<svg xmlns="http://www.w3.org/2000/svg" xmlns:xlink="http://www.w3.org/1999/xlink" viewBox="0 0 205.51 400.97"><defs><style>.cls-1{fill:none;}.cls-2{clip-path:url(#clip-path);}.cls-3{fill:#7b5240;}</style><clipPath id="clip-path" transform="translate(-0.26 -0.25)"><rect class="cls-1" width="206.04" height="401.47"/></clipPath></defs><g id="Layer_2" data-name="Layer 2"><g id="Skin"><g class="cls-2"><path class="cls-3" d="M95.22,400.92a12.39,12.39,0,0,1-2.4-.85,4.77,4.77,0,0,1-.77-.43,8.84,8.84,0,0,1-1.23-1,9.38,9.38,0,0,1-1.63-2.12,16.41,16.41,0,0,1-1.2-3.09l-.09-.28c-.23-.73-.44-1.47-.64-2.21l-.22-.79-.27-.95-.27-.95c-.3-.46-.62-.92-1-1.36A22.66,22.66,0,0,0,83,384.15c-.38-.35-.78-.69-1.18-1-.62-.53-1.25-1.06-1.83-1.63a14,14,0,0,1-2.42-3.29,14.47,14.47,0,0,1-.9-2,10.42,10.42,0,0,1-.51-1.76,11.09,11.09,0,0,1-.2-1.92,12.8,12.8,0,0,1,.15-1.76,20.56,20.56,0,0,1,.65-2.9,43.39,43.39,0,0,0,1.16-5.52c0-.19.06-.38.08-.58l0-.29,0-.43,0-.12,0-.1c0-.25-.09-.49-.14-.74l-.06-.36c-.17-.9-.32-1.73-.45-2.55-.06-.37-.12-.75-.17-1.12a26.14,26.14,0,0,1-1.93-2.64,40,40,0,0,1-2.62-4.55c-.8-1.68-1.44-3.38-2.07-5.12-1.34-3.62-2.35-6.57-3.18-9.29L67,333.34l-.06-.2c-.35-1.07-.71-2.23-1-3.39-.34-1.32-.66-2.76-1-4.67-.25-1.27-.48-2.71-.71-4.39-.1-.39-.2-.8-.28-1.22a46,46,0,0,1-.73-6c-.12-2-.06-4,0-5.64.07-1.89.17-3.79.27-5.68s.27-3.74.47-5.58.48-3.48.85-5.56c.44-2.45,1-5,1.44-7.08l0-.13c.49-2.26.93-4.3,1.32-6.38s.57-4,.72-6.09a42,42,0,0,0-.06-6.1,41.45,41.45,0,0,0-.84-5.07c-.31-1.39-.69-2.76-1.07-4.09L66,254.87l-.32-1.14-.07-.26c-.34-1.2-.67-2.4-1-3.61-.23-.93-.46-1.86-.68-2.78l-.22-.87-.46-1.91c-.11-.39-.2-.79-.3-1.19l0-.13-.15-.65-.16-.64-.63-2.6c-.5-2-.89-3.75-1.18-5.37-.15-.86-.29-1.71-.43-2.57a5.35,5.35,0,0,0,.08-.7l-.06-.66-.06-.68-.19-1.83L60,225.44a2.31,2.31,0,0,0,0-.37c0-.25,0-.48-.07-.71V224a.5.5,0,0,1,0-.12l0-.17,0-.2c-.16-1.86-.35-3.65-.53-5.44-.13-1.2-.26-2.4-.37-3.59,0-.26,0-.53,0-.8,0-.94,0-1.94,0-2.95,0-.67,0-1.34,0-2l0-1.38c0-1.21.07-2.43.12-3.64.07-1.47.19-3,.3-4.4l.06-.71c.13-1.64.28-3,.48-4.26.3-1.49.7-3,1.12-4.5l0-.12.13-.47c.2-.76.38-1.53.56-2.3l.05-.18c.28-1.22.58-2.49,1-3.67A54.48,54.48,0,0,1,65,177.35q1.17-2.57,2.35-5.11l.77-1.56c.72-1.45,1.51-3.06,2.22-4.64l.24-.55c.34-.76.65-1.46.93-2.16l.49-.76.5-.75a15.56,15.56,0,0,0,1.27-2.13c.28-.69.54-1.38.77-2.06A17.37,17.37,0,0,0,75.3,156c.34-.78.66-1.6,1-2.62.22-.54.41-1.08.61-1.63a3.89,3.89,0,0,0,.21-.83,36.61,36.61,0,0,0,1.43-5.54l.06-.34a16,16,0,0,0,.28-2.18c0-.83,0-1.66,0-2.64v-.52a16.87,16.87,0,0,0-.85-4.25l-.07-.23a9.25,9.25,0,0,0-.71-1.81,18,18,0,0,0-2.06-2.92,24.58,24.58,0,0,0-2.76-2.61V128c-.26.78-.5,1.57-.73,2.36-.16.53-.32,1.06-.49,1.59-.38,1.2-.81,2.59-1.3,3.93-.27.77-.56,1.53-.87,2.3l0,.09c-.2.5-.4,1-.59,1.51-1.17,3.09-2.29,5.74-3.42,8.11l-.72,1.5-.15.32-1,2.13c-.54,1.1-1.1,2.19-1.67,3.27l-.27.51c-1,1.91-2.07,3.81-3,5.49l-.93,1.66c-.69,1.23-1.43,2.45-2.19,3.63s-1.67,2.44-2.43,3.48c-1.93,2.63-3.72,4.92-5.45,7-2.18,2.6-3.87,4.53-5.5,6.27-.66.7-1.34,1.39-2,2.08l-.82.83-.72.75L38,187c-.6.61-1.27,1.31-1.95,1.93s-1.52,1.3-2.16,1.81l-.46.38-.45.36c-.27.22-.53.46-.78.69l-.71.63c-.51.42-1,.84-1.5,1.28s-.66.63-1,.95l-.22.23a7,7,0,0,1-.61.61l0,.1,0,.11a31.13,31.13,0,0,0-.77,3.06c-.06.28-.12.57-.17.86l-.07.37c-.11.62-.23,1.29-.4,2a14.78,14.78,0,0,1-1.14,3.15A12.88,12.88,0,0,1,24,207.88a3,3,0,0,1-.59.6,1.2,1.2,0,0,1-.43.19,1.18,1.18,0,0,1-.3,0,1.47,1.47,0,0,1-.68-.18,1.35,1.35,0,0,1-.58-.63,2.78,2.78,0,0,1-.24-.69,12.89,12.89,0,0,1,0-2.56l0-.51V204a16.6,16.6,0,0,0,0-2.73,5.85,5.85,0,0,0-.3-1.08,4.17,4.17,0,0,0-.35-.66l-.12-.11h-.27c-.5.08-1,.19-1.5.31l-.16,0-1.05.24a31.1,31.1,0,0,1-3.68.51c-.41,0-.82.05-1.24.05-.78,0-1.58-.05-2.25-.1a16.83,16.83,0,0,1-3.58-.59,14.63,14.63,0,0,1-3.48-1.52,12.39,12.39,0,0,1-1.61-1.09,5.51,5.51,0,0,1-.75-.71,2.19,2.19,0,0,1-.61-1.45,1.56,1.56,0,0,1,.09-.56,1.57,1.57,0,0,1,.73-.94,2.07,2.07,0,0,1,.94-.25H3.11l1.59-.06c1.08-.05,2.16-.18,3.21-.3l.17,0,1.95-.2c.7-.07,1.4-.14,2.1-.23,1-.16,1.88-.32,2.76-.49l.56-.1c.77-.14,1.52-.29,2.25-.46l1.79-.47.65-.35.48-.26.56-.3,1.2-.64a1.68,1.68,0,0,1,.63-.64l.19-.13c.69-.42,1.31-.81,1.92-1.24.78-.65,1.48-1.33,2.05-1.91l.3-.3c.7-.7,1.28-1.29,1.83-1.91,1.48-1.67,2.86-3.4,3.9-4.73,1.18-1.53,2.1-2.82,2.9-4q1.45-2.22,2.86-4.46c1.16-1.82,2.08-3.33,2.91-4.77,1-1.7,1.89-3.49,2.55-4.8.84-1.66,1.67-3.46,2.47-5.34l.22-.54c1.2-2.88,2.4-5.76,3.41-8.68.54-1.56,1-3.17,1.53-4.72l0-.13.07-.24c.52-1.69,1.09-3.48,1.67-5.18q.35-1,.72-2l.16-.45c.32-.87.64-1.75.93-2.62.55-1.6,1.07-3.24,1.55-4.9.39-1.35.77-2.7,1.15-4.06a2.09,2.09,0,0,1,0-.65,25.71,25.71,0,0,1,.58-2.61c.12-.41.25-.82.38-1.23s.24-.77.35-1.15l.36-1.27c.35-1.2.7-2.4,1.07-3.6.1-.33.22-.66.34-1,.18-.52.33-.94.44-1.37l.21-.88c.1-.46.2-.91.33-1.36a19,19,0,0,1,1.11-3,21.44,21.44,0,0,1,1.37-2.43c.21-.32.44-.63.67-.94l.25-.33a20,20,0,0,1,1.28-1.57c.39-.42.77-.83,1.18-1.23s.86-.78,1.3-1.16.84-.67,1.26-1l.41-.31a11,11,0,0,1,1.14-.79l.12-.07c.47-.28.88-.53,1.31-.75.25-.14.5-.26.77-.38s.51-.23.78-.34c.85-.42,1.66-.77,2.76-1.22,1.87-.78,4.33-1.82,6.81-2.9l.47-.21.23-.11c.74-.31,1.47-.63,2.21-.92l3-1.2.55-.22.22-.09c.65-.26,1.31-.52,2-.79l.9-.71a7.09,7.09,0,0,0,2.15-2.6l.2-.2a23.25,23.25,0,0,0,.83-2.93,16.39,16.39,0,0,0-.07-3.46,11.8,11.8,0,0,0-.45-1.84,10.92,10.92,0,0,0-1.08-1.74c-.44-.54-.81-1-1.19-1.36a8,8,0,0,0-.59-.58L94,69.1c-.1-.13-.18-.25-.28-.37a8.71,8.71,0,0,0-1.27-1.19,13.69,13.69,0,0,0-1.86-1.18,7.23,7.23,0,0,0-.75-.37c-.49-.28-1-.56-1.43-.85a28.59,28.59,0,0,1-6.08-5.28,53.79,53.79,0,0,1-4-5.19c-.15-.28-.29-.56-.43-.85-.3-.84-.55-1.68-.8-2.54-.33-1.1-.71-2.16-1.15-3.23a29,29,0,0,1-1.86-6.3c-.1-.74-.21-1.48-.31-2.21a60.31,60.31,0,0,1,.5-11.47c.14-.93.28-1.86.4-2.79-.06.48-.12,1-.19,1.46C75,23.31,76.09,20,76.84,16.63c.17-.75.33-1.5.47-2.25l.12-.19h0l.38-.5c-.07.09-.13.18-.2.26a8,8,0,0,0,1-1.5,2.55,2.55,0,0,0,.13-.29c.49-.56,1-1.11,1.56-1.63s1.18-1,1.8-1.52c1.11-.82,2.27-1.53,3.39-2.32,1.34-.95,2.63-2,3.88-3.06a13.94,13.94,0,0,1,2-1.11c1.23-.48,2.48-.92,3.75-1.3,1.29-.1,2.59-.12,3.88-.21,1.72-.13,3.44-.37,5.16-.52.9-.07,1.8-.17,2.7-.19l1.73,0,.14.1a6.77,6.77,0,0,0,2.94.74h.11a23.56,23.56,0,0,1,2.27.68,41.76,41.76,0,0,0,4.07,1.15,4.88,4.88,0,0,0,1.07.12,5,5,0,0,0,.67,0c.22.13.45.28.66.43.75.6,1.49,1.21,2.29,1.73.54.35,1.12.63,1.67,1s.88.84,1.32,1.26a24.38,24.38,0,0,1,1.71,1.81c.77.88,1.56,1.73,2.31,2.63a20.83,20.83,0,0,1,1.71,2.92c.29.73.54,1.48.83,2.21.48,1.2.94,2.4,1.44,3.6-.11-.25-.21-.5-.32-.74.42,1.05.77,2.14,1.1,3.23.09.71.15,1.36.18,2,.06,1.45.05,2.77,0,4l-.07.68L134.53,31l0,.35,0,.27-.07-.1.05.13v.14c-.05.74-.09,1.42-.14,2.09-.15,1.35-.34,2.67-.53,4a39.5,39.5,0,0,1-.85,4.46c-.1.37-.2.74-.31,1.1l-.06.21c-.13.44-.26.88-.37,1.34s-.23.82-.36,1.22l-.13.38-.18.36-.06.11-.15.28a33.72,33.72,0,0,0-1.74,4.33l-.06.15a8.45,8.45,0,0,0-.62,2,58.91,58.91,0,0,1-3.7,5,30.72,30.72,0,0,1-5.9,5.76,21.58,21.58,0,0,1-2.66,1.68l-1.07.71c-.8.53-1.71,1.09-2.87,1.75l-.3.17-.86.49a20.35,20.35,0,0,0-.83,1.86c-.14.48-.26,1-.36,1.48a1.5,1.5,0,0,0-.06.29c0,.68,0,1.36.06,2v.15l0,.1c.27.84.63,2,1,3l-.13-.14.3.57.06.13c.32.68.61,1.32.93,1.94q.27.51.57,1c.94.66,1.79,1.23,2.59,1.71.45.27.88.54,1.31.82.63.3,1.27.57,1.91.84l-.28,0a32.36,32.36,0,0,1,3.57,1.59l.15.07c1,.52,2.06,1,3.13,1.48l1.08.44a42.26,42.26,0,0,1,7.3,3.53A15.2,15.2,0,0,1,136.16,94a18,18,0,0,1,1.82,2.1,17.56,17.56,0,0,1,1.6,2.62c.19.23.4.5.62.8l.16.22c.32.42.55.73.76,1.06a19.83,19.83,0,0,1,1.36,2.42,17.84,17.84,0,0,1,1.12,3c.13.44.24.9.34,1.35.06.3.13.59.2.89a11.15,11.15,0,0,0,.43,1.31c.14.42.25.72.35,1,.37,1.2.72,2.4,1.06,3.6l.37,1.27c.11.38.23.76.35,1.14s.26.83.38,1.24a26,26,0,0,1,.58,2.62,2.41,2.41,0,0,1,.05.65c.37,1.35.75,2.71,1.14,4.06.48,1.65,1,3.29,1.54,4.89.3.87.62,1.74.93,2.61l.17.47c.24.66.49,1.33.72,2,.59,1.73,1.15,3.52,1.67,5.19l.07.22.07.23c.48,1.53,1,3.11,1.5,4.64,1,2.91,2.21,5.79,3.37,8.58l.26.63c.78,1.83,1.61,3.62,2.47,5.34.79,1.55,1.63,3.21,2.55,4.81.83,1.43,1.75,2.94,2.9,4.76,1,1.49,1.9,3,2.87,4.46.8,1.21,1.72,2.49,2.9,4s2.46,3.1,3.89,4.72c.56.63,1.14,1.21,1.84,1.91l.3.3c.58.58,1.27,1.27,2.06,1.92.6.42,1.24.83,1.89,1.23l.21.13a1.79,1.79,0,0,1,.63.65l.47.24,1.3.7,1.12.6c.63.18,1.22.33,1.79.47.73.18,1.48.32,2.21.46l.59.1c.89.18,1.78.34,2.77.49.7.09,1.4.16,2.1.23l2,.2.15,0c1,.12,2.12.25,3.23.3l1.59.07H204a2.18,2.18,0,0,1,.94.24,1.57,1.57,0,0,1,.73.94,1.58,1.58,0,0,1,.09.57,2.18,2.18,0,0,1-.61,1.44,5,5,0,0,1-.75.71,12.54,12.54,0,0,1-1.61,1.1,15.49,15.49,0,0,1-3.48,1.52,18.17,18.17,0,0,1-3.59.59c-.66,0-1.46.09-2.24.09-.42,0-.83,0-1.24,0a30.47,30.47,0,0,1-3.68-.52q-.54-.1-1-.24l-.16,0c-.5-.11-1-.23-1.5-.31h-.15l-.14,0-.1.11a3.58,3.58,0,0,0-.35.65,5.73,5.73,0,0,0-.3,1.09,16.48,16.48,0,0,0,0,2.72v.14l0,.48a13.17,13.17,0,0,1,0,2.59,2.78,2.78,0,0,1-.24.69,1.37,1.37,0,0,1-.58.64,1.58,1.58,0,0,1-.68.17,1.43,1.43,0,0,1-.29,0,1.37,1.37,0,0,1-.44-.2,3,3,0,0,1-.59-.6,13.16,13.16,0,0,1-1.57-2.45,15,15,0,0,1-1.14-3.15c-.15-.61-.27-1.23-.38-1.86l0-.1-.07-.36c-.05-.29-.11-.58-.17-.87a30.3,30.3,0,0,0-.77-3.05l0-.12,0-.11a5.76,5.76,0,0,1-.61-.6l-.22-.22c-.31-.33-.63-.65-1-1s-1-.87-1.5-1.29l-.7-.62-.09-.09c-.23-.21-.46-.41-.7-.6l-.46-.38-.45-.36c-.64-.51-1.43-1.15-2.16-1.82s-1.35-1.32-1.95-1.93l-.09-.09-.73-.75-.81-.83c-.68-.7-1.36-1.39-2-2.09-1.63-1.73-3.33-3.67-5.5-6.27-1.73-2.09-3.52-4.38-5.45-7-.76-1-1.63-2.24-2.43-3.47s-1.5-2.4-2.19-3.63l-.93-1.67c-.95-1.68-2-3.58-3-5.49l-.27-.5c-.57-1.09-1.13-2.18-1.67-3.28-.35-.7-.69-1.41-1-2.13l-.14-.32-.72-1.5c-1.14-2.37-2.25-5-3.42-8.11l-.58-1.5c-.32-.8-.63-1.6-.91-2.4-.49-1.34-.92-2.73-1.3-3.92-.17-.53-.33-1.07-.49-1.6s-.36-1.21-.55-1.81l-.05.17-.08.15a2.1,2.1,0,0,1-.13.26,43.48,43.48,0,0,1-2.48,4.26c-.29.46-.61.9-.93,1.34l-.07.11-.42.57c-.33.45-.64.91-1,1.37-.15.77-.3,1.55-.44,2.34s-.26,1.91-.3,2.87-.11,2.32-.07,3.57c0,.69.06,1.38.1,2.08.25,1,.56,2.1.94,3.26a5.81,5.81,0,0,0,.22.84c.19.54.39,1.09.61,1.62.36,1,.68,1.84,1,2.58s.52,1.15.81,1.66c.23.68.49,1.38.77,2.07a15.44,15.44,0,0,0,1.27,2.12l.49.75.5.76c.28.72.6,1.44.92,2.14l.25.57c.71,1.59,1.5,3.19,2.2,4.6l.79,1.6c.79,1.7,1.56,3.39,2.34,5.09a54.44,54.44,0,0,1,2.29,5.77c.37,1.16.65,2.35.93,3.51l0,.12c.2.9.39,1.71.61,2.52l.13.47,0,.12c.39,1.38.82,2.95,1.13,4.5.19,1.27.35,2.62.48,4.26l0,.69c.13,1.51.24,3,.31,4.42.05,1.22.09,2.43.12,3.64l0,1.38c0,.68,0,1.35,0,2,0,1,0,2,0,2.94,0,.27,0,.54-.05.81-.11,1.19-.24,2.38-.36,3.57-.19,1.8-.38,3.6-.54,5.45l0,.15v.18a1,1,0,0,0,0,.17l0,.13v.2c0,.23-.05.46-.07.71a2.43,2.43,0,0,0,0,.38l-.19,1.83-.18,1.83-.06.68-.06.67a5.4,5.4,0,0,0,.08.69c-.14.86-.28,1.72-.44,2.57-.28,1.63-.67,3.38-1.17,5.37l-.43,1.77-.2.83-.16.64-.15.66c-.1.44-.21.87-.32,1.31-.24.93-.46,1.85-.69,2.78s-.45,1.86-.68,2.78c-.31,1.21-.64,2.41-1,3.61l-.07.26-.33,1.15-.32,1.14c-.39,1.39-.77,2.77-1.08,4.16a41.31,41.31,0,0,0-.84,5.06,42,42,0,0,0-.06,6.1c.15,2.09.39,4.14.72,6.1s.82,4.09,1.32,6.34l0,.11c.45,2.08,1,4.68,1.45,7.14.37,2.07.65,3.81.85,5.55s.36,3.71.47,5.58.2,3.79.27,5.69c.06,1.68.11,3.63,0,5.63a47.61,47.61,0,0,1-.73,6c-.08.43-.18.83-.29,1.22-.22,1.66-.45,3.1-.7,4.39-.38,1.92-.7,3.36-1,4.67s-.66,2.32-1,3.39L139,333l-.36,1.12c-.83,2.72-1.84,5.67-3.18,9.29a54.23,54.23,0,0,1-2.07,5.12c-.33.68-.71,1.41-1.16,2.18V351a8.62,8.62,0,0,0-1,1.6,9.15,9.15,0,0,0-.79,2.12,11.5,11.5,0,0,0-.2,1.86,6.06,6.06,0,0,0,.34,2,7.49,7.49,0,0,0,1.68,3.08.53.53,0,0,0,.14.12,5.34,5.34,0,0,0,.5.65c.34,1,.73,1.9,1.21,3.07a11.5,11.5,0,0,1,.64,1.79,15.4,15.4,0,0,1,.42,2.34,10.77,10.77,0,0,1,.07,1.78,13.34,13.34,0,0,1-.36,2.31,13.66,13.66,0,0,1-.91,2.46,12.87,12.87,0,0,1-1.08,1.92,20.1,20.1,0,0,1-1.82,2.24c-.37.41-.73.82-1.08,1.24a11.13,11.13,0,0,0-1.13,2,20,20,0,0,0-1.05,3.45c-.08.42-.14.83-.2,1.25l0,.15a14.57,14.57,0,0,1-.46,2.35,11.92,11.92,0,0,1-.78,1.86l-.12.23a12.73,12.73,0,0,1-.87,1.6c-.23.34-.46.67-.72,1a3.19,3.19,0,0,1-.8.72,3.59,3.59,0,0,1-1.21.55,11.08,11.08,0,0,1-1.12.85,7.64,7.64,0,0,1-1.85.85,6.07,6.07,0,0,1-1.07.2l-.52,0c-.23,0-.45,0-.68,0l-.23.12-.14.06a1.55,1.55,0,0,1-.2.51,1.78,1.78,0,0,1-.62.63,1.83,1.83,0,0,1-.88.23h-.11a2.19,2.19,0,0,1-1.41-.74,2.7,2.7,0,0,1-.56-.79l0-.1a3.94,3.94,0,0,1-.24-.63,5.67,5.67,0,0,1-.16-.9c0-.28-.07-.49-.08-.7a2.82,2.82,0,0,1-.31-1.44,7.31,7.31,0,0,1,0-.94c0-.14,0-.29,0-.42l0-.18c-.06-.36-.09-.72-.12-1.1a5.36,5.36,0,0,1,.09-1.15,18.52,18.52,0,0,1,.17-2.53l0-.31c.12-1.05.26-2.09.4-3.13l0-.11,0-.16c.15-1.19.33-2.43.51-3.67l0-.22,0-.42.06-.42v.15c.18-1.69.38-3.37.58-5l.19-1.61c.16-1.27.29-2.5.41-3.73v-5c0-.19,0-.39,0-.59,0-.44,0-.9,0-1.35,0-.91.09-1.9.24-3.18,0-.32.08-.63.13-1a3.65,3.65,0,0,1-.13-.55,3.35,3.35,0,0,1,0-1.09,10.77,10.77,0,0,1,.26-1.17l.08-.35c.19-.78.37-1.57.55-2.36s.38-1.67.57-2.55l.16-.75c.12-.5.23-1,.34-1.5l.22-.94c.3-1.31.61-2.63.9-3.95.66-3,1.43-6.59,2-10.3.54-3.44,1-6.92,1.3-10.62.15-1.87.25-3.51.31-5.16s.08-3.25,0-5.28c-.06-3.16-.22-6.46-.49-10.37a95.32,95.32,0,0,0-1.17-9.6l0-.1c-.09-.47-.17-.91-.27-1.36a8.49,8.49,0,0,0-.42-1.67l-.05-.29a11.9,11.9,0,0,0-.56-1.91l-.13-.35c-.21-.59-.44-1.2-.71-1.81-.09-.21-.19-.43-.29-.64l0-.17c-.11-.49-.23-1-.37-1.45-.43-1.4-.94-3-1.59-4.74-.31-.83-.6-1.67-.89-2.5-.34-1-.67-1.95-1-2.91-.24-.65-.45-1.3-.67-1.95-.13-.42-.27-.84-.41-1.26s-.21-.6-.33-.89c-.22-.59-.47-1.15-.72-1.71a41.75,41.75,0,0,1-1.73-6.88l0-.28c-.18-.93-.35-1.85-.56-2.77-.7-3.13-1.23-6.42-1.7-9.32l-.32-2c-.19-1.2-.44-2.43-.68-3.62l0-.24c-.13-.6-.25-1.2-.37-1.8l0-.12c-.35-1.8-.71-3.61-1.09-5.4l-.1-.48c-.36-1.67-.7-3.3-1-4.92-.18-1-.33-2.08-.48-3.1v-.1c-.12-.8-.23-1.6-.36-2.4l0-.11-.06-.39c0-.4-.09-.81-.12-1.22a14,14,0,0,1-.11,1.59c0,.16,0,.33-.08.49-.13.8-.25,1.6-.36,2.41l0,.11c-.14,1-.29,2.07-.48,3.09-.31,1.67-.68,3.4-1,4.92l-.1.47c-.39,1.84-.75,3.68-1.11,5.52-.12.61-.24,1.21-.37,1.81l0,.24c-.24,1.19-.49,2.41-.69,3.62l-.32,2c-.49,3-1,6.2-1.7,9.32-.2.9-.37,1.81-.54,2.72l0,.29a41.51,41.51,0,0,1-1.75,6.92c-.35.81-.74,1.71-1.05,2.6-.11.32-.21.64-.31,1l-.1.29c-.21.65-.42,1.31-.67,1.95-.36,1-.69,1.93-1,2.9s-.58,1.67-.88,2.51c-.65,1.79-1.17,3.34-1.59,4.74-.15.5-.28,1-.41,1.61a26,26,0,0,0-1,2.45l-.11.33c-.12.31-.23.62-.33.94a5.43,5.43,0,0,0-.23.93c0,.11,0,.23-.07.35a8.68,8.68,0,0,0-.42,1.67c-.08.39-.15.77-.23,1.17l-.06.3a92.67,92.67,0,0,0-1.17,9.59c-.27,3.91-.43,7.21-.49,10.38,0,2,0,3.7,0,5.28s.16,3.29.31,5.16c.33,3.7.76,7.17,1.3,10.62.59,3.7,1.36,7.28,2,10.29.29,1.33.6,2.64.9,4l.22.93c.11.5.22,1,.34,1.51l.16.74c.19.88.37,1.72.57,2.56s.36,1.57.55,2.36l.08.35a4.36,4.36,0,0,1,.43.82l.06.12a9.08,9.08,0,0,1,.39,1c.19.52.38,1,.55,1.56l.12.37.24.75c.58,1.23,1.12,2.54,1.6,3.86a32,32,0,0,1,1,3.5c.31,1.24.51,2.5.69,3.58.1.71.21,1.43.3,2.14l0,.11c.1.73.21,1.46.32,2.19.08.5.17,1,.25,1.5l.06.32.07.4.1.63c.1.59.2,1.18.33,1.77a1.69,1.69,0,0,1,0,.71q.28.75.6,1.5c.31.73.69,1.59,1.13,2.42.54,1,1.05,1.87,1.55,2.69.25.41.5.8.76,1.2s.56.87.83,1.31.52.89.75,1.35a10.35,10.35,0,0,1,.71,1.7,5.38,5.38,0,0,1,.29,1.53l.18.58c.11.37.21.76.29,1.14a5.67,5.67,0,0,1,.16,1.4,2.38,2.38,0,0,1-.7,1.72,2.17,2.17,0,0,1-1.4.65h-.14a2,2,0,0,1-.9-.24A5.61,5.61,0,0,1,100,401a10.44,10.44,0,0,1-1.23.18c-.37,0-.73,0-1.1,0A12.23,12.23,0,0,1,95.22,400.92Z" transform="translate(-0.26 -0.25)"/><path class="cls-3" d="M91.39,360.44h0l0,.05Zm-.12-.28.12.28Zm-.45-1.07,0,.1Zm2,10.53a1.39,1.39,0,0,1-.72-.19,1.88,1.88,0,0,1-.76-1.05c-.05-.13-.1-.25-.14-.38-.17-.46-.33-.91-.49-1.37-.69-2-1.37-3.91-2.1-5.86l-2.34-6.06a7.22,7.22,0,0,1-.34-.92,1.25,1.25,0,0,1,.55-1.38,4.35,4.35,0,0,1-.06-.52.28.28,0,0,1,0-.24.38.38,0,0,1,.45-.26.38.38,0,0,1,.26.45,1.17,1.17,0,0,1,0,.11h0a2.56,2.56,0,0,0,0,.27,1.2,1.2,0,0,1,.64.16,1.21,1.21,0,0,1,.44.46h0c1,2.18,1.88,4.38,2.8,6.58l-.09-.23c.18.42.35.84.53,1.25.82,1.95,1.65,3.9,2.38,5.88a8.61,8.61,0,0,1,.38,1.15,2,2,0,0,1,.08.64,1.59,1.59,0,0,1-.21.77,1.26,1.26,0,0,1-.25.32,1.35,1.35,0,0,1-1,.42Z" transform="translate(-0.26 -0.25)"/><circle class="cls-3" cx="81.16" cy="358.79" r="0.56"/><path class="cls-3" d="M81.15,367.19a2.3,2.3,0,0,1-.5-.78,1.15,1.15,0,0,1-.2-.29,12.7,12.7,0,0,1-.75-1.88c-.19-.51-.36-1-.54-1.54-.42-1.19-.85-2.37-1.31-3.55S77,357,76.57,355.93c-.25-.61-.48-1.23-.71-1.84-.1-.27-.2-.54-.29-.81a6.18,6.18,0,0,1-.4-1.31,1.89,1.89,0,0,1,0-1,1.75,1.75,0,0,1,.12-.32,5,5,0,0,1-.06-.56v-.2A1.65,1.65,0,0,1,76,348a1.73,1.73,0,0,1,1.28-.17,1.6,1.6,0,0,1,1,.77.83.83,0,0,0,.07.13l0,.05a5.09,5.09,0,0,1,.76,1.13l.4.76c.31.58.59,1.17.86,1.76.6,1.29,1.09,2.63,1.57,4,.58,1.61,1.11,3.25,1.58,4.9.17.47.35.95.51,1.42.09.23.17.47.25.7s.07.23.11.34a2.4,2.4,0,0,1,.1.48,1.57,1.57,0,0,1,0,.37,1.6,1.6,0,0,1-.09.53c0,.21.06.43.08.64a2,2,0,0,1-2,2A1.91,1.91,0,0,1,81.15,367.19Z" transform="translate(-0.26 -0.25)"/><path class="cls-3" d="M116.66,378.15a2.43,2.43,0,0,1-1.08-1.41c-.23-.66-.46-1.32-.63-2a13.82,13.82,0,0,1-.28-2.73c0-1.26-.07-2.52-.1-3.77s-.09-2.43-.1-3.64c0-.3,0-.59,0-.88a22.85,22.85,0,0,1-.11-2.33,18.72,18.72,0,0,1,.13-2.37,20.7,20.7,0,0,1,.51-2.81,7.45,7.45,0,0,1,.27-.92,3.57,3.57,0,0,1,.86-1.45,2.57,2.57,0,0,1,1.16-.68,2.6,2.6,0,0,1,3.23,1.82l.09.69h0v.08c.28,2.64.06,5.3.21,7.95.08,1.43.24,2.85.35,4.28.07,1,0,1.93.07,2.89a2.61,2.61,0,0,1-.3,1.87c-.13.16-.25.33-.37.49a2.59,2.59,0,0,1-.58.42l0,.11c0,.1-.07.2-.11.3.09.48.19.95.29,1.43a2.45,2.45,0,0,1-.24,1.82,2.35,2.35,0,0,1-1.41,1.08,2.16,2.16,0,0,1-.62.09A2.31,2.31,0,0,1,116.66,378.15Z" transform="translate(-0.26 -0.25)"/><path class="cls-3" d="M88.37,8.19l.2-.15ZM85.1,53.44,85,53.33Zm7.18,13.7c-.39-.2-.76-.41-1.12-.64-.73-.44-1.48-.85-2.22-1.28a42.26,42.26,0,0,1-5.63-3.87C80,58.62,78.05,54.78,76.19,51a27.24,27.24,0,0,1-1.44-3.49c-.35-1.06-.63-2.15-.9-3.24a64.7,64.7,0,0,1-1.23-6.47,31.55,31.55,0,0,1,1.23-14.08c.3-.9.63-1.78,1-2.66a26.58,26.58,0,0,1,1.69-5.13,24.69,24.69,0,0,1,2.82-4.71A20,20,0,0,1,81.41,8.8c.37-.34.73-.68,1.11-1s.59-.49.91-.72a25.82,25.82,0,0,1,4-2.86c.77-.46,1.58-.88,2.38-1.31,1-.53,2.09-1.24,3.27-1a1.49,1.49,0,0,1,1,1.84,1.55,1.55,0,0,1-.68.9h0a11.69,11.69,0,0,0-1.19.79c-.45.32-.9.64-1.36,1C90,7,89.11,7.65,88.24,8.29a23.4,23.4,0,0,0-2.19,1.91c-.51.52-1,1.06-1.47,1.61l-.23.33-.09.15a4.09,4.09,0,0,1,0,1,15.21,15.21,0,0,1-.6,3.19c-.28,1-.61,2-.93,3-.69,2.15-1.4,4.3-2,6.49a46.76,46.76,0,0,0-1.06,5.37,32.23,32.23,0,0,0-.34,5.28,1.48,1.48,0,0,0,0,.21c.06.38.13.76.21,1.13.1.55.21,1.09.32,1.63a10,10,0,0,1,.36,2.08A2.15,2.15,0,0,1,80,42.77c.12.71.25,1.41.41,2.11.06.17.13.35.2.52.63,1.43,1.35,2.82,2.1,4.19a41.78,41.78,0,0,0,2.67,4.19,10.29,10.29,0,0,0,.83.92c.33.32.68.62,1,.91a33.83,33.83,0,0,0,3.4,2.11c1,.55,2,1.16,3,1.64l1,.41c.56.23,1.12.46,1.67.72a5,5,0,0,1,1,.62L97.21,61l.22.15a3.72,3.72,0,0,1,1.71,4.18,3.7,3.7,0,0,1-1,1.63l-.75.59a3.68,3.68,0,0,1-1.86.5l-.36,0A6.32,6.32,0,0,1,92.28,67.14Z" transform="translate(-0.26 -0.25)"/><path class="cls-3" d="M108.07,1.16h0Zm-.14.92Zm.26,0h0Zm1.74.37-.09,0Zm15.79,11-.16-.31Zm-.24,40.08a2.17,2.17,0,0,1-.25-1.92c.22-.74.5-1.46.76-2.2l.18-.51a36,36,0,0,0,.83-4c.22-1.45.47-2.9.59-4.37s.23-2.69.44-4a10.14,10.14,0,0,1-.42-2.5c0-.68,0-1.38,0-2.06s-.12-1.4-.18-2.1-.1-1.2-.18-1.8-.2-1.27-.27-1.9-.14-1.27-.19-1.9a9.82,9.82,0,0,1,0-2.76,2.75,2.75,0,0,1,1.12-1.72c-.1-.6-.22-1.2-.35-1.8a20.59,20.59,0,0,0-1.77-4.39,21.37,21.37,0,0,0-3-4.27c-.47-.47-1-.9-1.46-1.34a15.21,15.21,0,0,0-1.55-1.23c-.68-.39-1.4-.73-2.1-1.08-.9-.46-1.79-.94-2.71-1.37a44.62,44.62,0,0,0-5.18-1.92,6.62,6.62,0,0,0-1.52-.31l-.29,0h0a.45.45,0,0,1-.51-.3.48.48,0,0,1,.3-.63h0a5.92,5.92,0,0,1,2.41-.28,16.4,16.4,0,0,1,3,.37,35.53,35.53,0,0,1,5.25,1.65c.82.3,1.65.59,2.47.9a13.19,13.19,0,0,1,2.44,1.28,23.47,23.47,0,0,1,3.59,2.84,13.27,13.27,0,0,1,1.61,1.82c.4.56.77,1.16,1.12,1.76a26,26,0,0,1,2.43,5.24,33.75,33.75,0,0,1,1.19,6c.09.78.24,1.54.33,2.32a18.36,18.36,0,0,1,.12,2.67c0,.3,0,.59,0,.88.32,1.26.68,2.52.95,3.8a6.23,6.23,0,0,1,.14,1.14,8.21,8.21,0,0,1-.12,2,16.42,16.42,0,0,1-.8,2.49c-.19.8-.21,1.62-.33,2.43s-.28,1.69-.47,2.53a40.24,40.24,0,0,1-1.65,5.82c-.31.8-.69,1.57-1.07,2.33A10,10,0,0,1,129,53.46a2.53,2.53,0,0,1-1.63.92h-.19A2,2,0,0,1,125.48,53.56Z" transform="translate(-0.26 -0.25)"/><path class="cls-3" d="M132.76,32.9c-.33,0-.42-.45-.48-.71a6.71,6.71,0,0,1-.14-.88c0-.56,0-1.13,0-1.69s0-1.15,0-1.73a18.33,18.33,0,0,0-.17-1.95,1.13,1.13,0,1,1,2.26-.2,15.88,15.88,0,0,1-.35,4c-.09.56-.22,1.12-.35,1.67l-.18.81c-.07.29-.19.73-.55.73Z" transform="translate(-0.26 -0.25)"/></g></g></g></svg>