<svg xmlns="http://www.w3.org/2000/svg" viewBox="0 0 102.03 38.12"><defs><style>.cls-1{fill:#fff;}.cls-2{fill:none;}</style></defs><g id="Layer_2" data-name="Layer 2"><g id="Egg_Hat" data-name="Egg Hat"><g id="Layer_2-2" data-name="Layer 2"><g id="Layer_9" data-name="Layer 9"><path class="cls-1" d="M23.24,27.51a2.31,2.31,0,0,1-.37,0,1.08,1.08,0,0,1-.53-.18.75.75,0,0,1-.23-.24l0-.1h0a.33.33,0,0,1,0-.44q0-.12,0-.27L22,26c0-.17,0-.33,0-.49a7.3,7.3,0,0,1,0-.81c0-.3.05-.6.1-.89a12.86,12.86,0,0,1,.35-1.61c.17-.59.38-1.15.56-1.62l.18-.49.06-.13q0-.32.12-.63.18-.86.39-1.71A17,17,0,0,1,24.25,16a14.14,14.14,0,0,1,.7-1.72,13.68,13.68,0,0,1,1-1.62,18.73,18.73,0,0,1,4.91-4.78,26.09,26.09,0,0,1,2.9-1.7l.43-.33c.17-.13.35-.24.52-.36l.12-.07.14-.1c.18-.12.35-.24.54-.35l.27-.17c.44-.26.87-.52,1.31-.76l.34-.18.46-.25.29-.14.72-.33c.48-.23,1-.42,1.46-.62l.17-.07.59-.21.18-.06.7-.24.53-.16.53-.16.54-.15.25-.06.1,0,.58-.15L45.4,1,45.66,1l.81-.14.22,0c.2,0,.4-.08.6-.1C48.42.51,49.62.35,50.84.29h.26l.62,0h1a6.32,6.32,0,0,1,.65,0h.28l.76.07.28,0c.6.06,1.19.17,1.63.25s1.17.24,1.75.4a26.79,26.79,0,0,1,3.43,1.2c.6.25,1.07.46,1.48.68l.76.42.79.52c.29.2.58.43.93.72a16.62,16.62,0,0,1,1.67.77,18.94,18.94,0,0,1,2.79,1.79l.35.28c.25.19.49.38.73.59a9.52,9.52,0,0,1,1.12,1.18l.13.15a3.41,3.41,0,0,1,.84,1.38,1.87,1.87,0,0,1,0,.32,1.88,1.88,0,0,1,.17.46,1.27,1.27,0,0,1,0,.43,1.93,1.93,0,0,1-.23.92,2.8,2.8,0,0,1-.33.49,2.53,2.53,0,0,1-.31.39l-.1.11a.83.83,0,0,1-.06.21.76.76,0,0,1-.56.41,1.09,1.09,0,0,0-.17.13l.08-.1a6.38,6.38,0,0,1-.8.66c-.34.23-.71.44-1.07.65l-.2.11-.21.12-.15.1a1.22,1.22,0,0,1-.26.12l-.41.23-.42.22c-.5.27-1,.53-1.5.77a25.72,25.72,0,0,1-3.2,1.28c-1.18.38-2.4.67-3.44.91l-3.88.86c-3.27.72-6.66,1.46-10,2.33-.8.2-1.59.42-2.38.63l-.92.25-3.44.92-3.37.86c-1,.24-2,.47-3.44.73-1.69.32-3.49.61-5.5.88-.94.12-1.87.25-2.81.33l-.45,0H23.6l-.16,0Z"/></g><g id="Layer_8" data-name="Layer 8"><path class="cls-1" d="M23.24,27.51a2.31,2.31,0,0,1-.37,0,1.08,1.08,0,0,1-.53-.18.75.75,0,0,1-.23-.24l0-.1h0a.33.33,0,0,1,0-.44q0-.12,0-.27L22,26c0-.17,0-.33,0-.49a7.3,7.3,0,0,1,0-.81c0-.3.05-.6.1-.89a12.86,12.86,0,0,1,.35-1.61c.17-.59.38-1.15.56-1.62l.18-.49.06-.13q0-.32.12-.63.18-.86.39-1.71A17,17,0,0,1,24.25,16a14.14,14.14,0,0,1,.7-1.72,13.68,13.68,0,0,1,1-1.62,18.73,18.73,0,0,1,4.91-4.78,26.09,26.09,0,0,1,2.9-1.7l.43-.33c.17-.13.35-.24.52-.36l.12-.07.14-.1c.18-.12.35-.24.54-.35l.27-.17c.44-.26.87-.52,1.31-.76l.34-.18.46-.25.29-.14.72-.33c.48-.23,1-.42,1.46-.62l.17-.07.59-.21.18-.06.7-.24.53-.16.53-.16.54-.15.25-.06.1,0,.58-.15L45.4,1,45.66,1l.81-.14.22,0c.2,0,.4-.08.6-.1C48.42.51,49.62.35,50.84.29h.26l.62,0h1a6.32,6.32,0,0,1,.65,0h.28l.76.07.28,0c.6.06,1.19.17,1.63.25s1.17.24,1.75.4a26.79,26.79,0,0,1,3.43,1.2c.6.25,1.07.46,1.48.68l.76.42.79.52c.29.2.58.43.93.72a16.62,16.62,0,0,1,1.67.77,18.94,18.94,0,0,1,2.79,1.79l.35.28c.25.19.49.38.73.59a9.52,9.52,0,0,1,1.12,1.18l.13.15a3.41,3.41,0,0,1,.84,1.38,1.87,1.87,0,0,1,0,.32,1.88,1.88,0,0,1,.17.46,1.27,1.27,0,0,1,0,.43,1.93,1.93,0,0,1-.23.92,2.8,2.8,0,0,1-.33.49,2.53,2.53,0,0,1-.31.39l-.1.11a.83.83,0,0,1-.06.21.76.76,0,0,1-.56.41,1.09,1.09,0,0,0-.17.13l.08-.1a6.38,6.38,0,0,1-.8.66c-.34.23-.71.44-1.07.65l-.2.11-.21.12-.15.1a1.22,1.22,0,0,1-.26.12l-.41.23-.42.22c-.5.27-1,.53-1.5.77a25.72,25.72,0,0,1-3.2,1.28c-1.18.38-2.4.67-3.44.91l-3.88.86c-3.27.72-6.66,1.46-10,2.33-.8.2-1.59.42-2.38.63l-.92.25-3.44.92-3.37.86c-1,.24-2,.47-3.44.73-1.69.32-3.49.61-5.5.88-.94.12-1.87.25-2.81.33l-.45,0H23.6l-.16,0Z"/><path class="cls-1" d="M23.33,23.55a.61.61,0,0,0,.05-.12ZM22,26.73c0-.13,0-.26,0-.39a6.5,6.5,0,0,1-.12-.75,6.92,6.92,0,0,1,.13-1.5,12,12,0,0,1,.36-1.55c.16-.48.35-1,.54-1.44s.38-.91.55-1.36.36-1,.56-1.48a14.25,14.25,0,0,1,1.42-2.81c.29-.43.59-.84.91-1.25s.65-.81,1-1.19A1,1,0,0,1,29,13.7a1,1,0,0,1-.29.7c-.47.53-.93,1.08-1.37,1.64a16.72,16.72,0,0,0-1.1,1.68c-.37.64-.7,1.3-1,2s-.63,1.29-1,1.92-.63,1.2-.9,1.82a17.4,17.4,0,0,0-.62,1.89c-.07.26-.11.54-.18.8a2.76,2.76,0,0,0-.08.27,2,2,0,0,0,0,.34.25.25,0,0,1-.25.25A.26.26,0,0,1,22,26.73Z"/></g><g id="Layer_7" data-name="Layer 7"><path class="cls-1" d="M23.24,27.51a2.31,2.31,0,0,1-.37,0,1.08,1.08,0,0,1-.53-.18.75.75,0,0,1-.23-.24l0-.1h0a.33.33,0,0,1,0-.44q0-.12,0-.27L22,26c0-.17,0-.33,0-.49a7.3,7.3,0,0,1,0-.81c0-.3.05-.6.1-.89a12.86,12.86,0,0,1,.35-1.61c.17-.59.38-1.15.56-1.62l.18-.49.06-.13q0-.32.12-.63.18-.86.39-1.71A17,17,0,0,1,24.25,16a14.14,14.14,0,0,1,.7-1.72,13.68,13.68,0,0,1,1-1.62,18.73,18.73,0,0,1,4.91-4.78,26.09,26.09,0,0,1,2.9-1.7l.43-.33c.17-.13.35-.24.52-.36l.12-.07.14-.1c.18-.12.35-.24.54-.35l.27-.17c.44-.26.87-.52,1.31-.76l.34-.18.46-.25.29-.14.72-.33c.48-.23,1-.42,1.46-.62l.17-.07.59-.21.18-.06.7-.24.53-.16.53-.16.54-.15.25-.06.1,0,.58-.15L45.4,1,45.66,1l.81-.14.22,0c.2,0,.4-.08.6-.1C48.42.51,49.62.35,50.84.29h.26l.62,0h1a6.32,6.32,0,0,1,.65,0h.28l.76.07.28,0c.6.06,1.19.17,1.63.25s1.17.24,1.75.4a26.79,26.79,0,0,1,3.43,1.2c.6.25,1.07.46,1.48.68l.76.42.79.52c.29.2.58.43.93.72a16.62,16.62,0,0,1,1.67.77,18.94,18.94,0,0,1,2.79,1.79l.35.28c.25.19.49.38.73.59a9.52,9.52,0,0,1,1.12,1.18l.13.15a3.41,3.41,0,0,1,.84,1.38,1.87,1.87,0,0,1,0,.32,1.88,1.88,0,0,1,.17.46,1.27,1.27,0,0,1,0,.43,1.93,1.93,0,0,1-.23.92,2.8,2.8,0,0,1-.33.49,2.53,2.53,0,0,1-.31.39l-.1.11a.83.83,0,0,1-.06.21.76.76,0,0,1-.56.41,1.09,1.09,0,0,0-.17.13l.08-.1a6.38,6.38,0,0,1-.8.66c-.34.23-.71.44-1.07.65l-.2.11-.21.12-.15.1a1.22,1.22,0,0,1-.26.12l-.41.23-.42.22c-.5.27-1,.53-1.5.77a25.72,25.72,0,0,1-3.2,1.28c-1.18.38-2.4.67-3.44.91l-3.88.86c-3.27.72-6.66,1.46-10,2.33-.8.2-1.59.42-2.38.63l-.92.25-3.44.92-3.37.86c-1,.24-2,.47-3.44.73-1.69.32-3.49.61-5.5.88-.94.12-1.87.25-2.81.33l-.45,0H23.6l-.16,0Z"/><path class="cls-1" d="M23.33,23.55a.61.61,0,0,0,.05-.12ZM22,26.73c0-.13,0-.26,0-.39a6.5,6.5,0,0,1-.12-.75,6.92,6.92,0,0,1,.13-1.5,12,12,0,0,1,.36-1.55c.16-.48.35-1,.54-1.44s.38-.91.55-1.36.36-1,.56-1.48a14.25,14.25,0,0,1,1.42-2.81c.29-.43.59-.84.91-1.25s.65-.81,1-1.19A1,1,0,0,1,29,13.7a1,1,0,0,1-.29.7c-.47.53-.93,1.08-1.37,1.64a16.72,16.72,0,0,0-1.1,1.68c-.37.64-.7,1.3-1,2s-.63,1.29-1,1.92-.63,1.2-.9,1.82a17.4,17.4,0,0,0-.62,1.89c-.07.26-.11.54-.18.8a2.76,2.76,0,0,0-.08.27,2,2,0,0,0,0,.34.25.25,0,0,1-.25.25A.26.26,0,0,1,22,26.73Z"/><path class="cls-1" d="M39.2,4.47a.1.1,0,0,1,0,0h0l0,0Zm0,0ZM24.06,23.61a.8.8,0,0,1-.49-.38.82.82,0,0,1-.08-.63c.2-1,.32-2.05.6-3.05s.68-1.92,1.06-2.86c.22-.55.44-1.09.67-1.62s.45-.94.7-1.39.53-.9.81-1.33l.42-.62.21-.27.33-.43c.16-.19.32-.38.49-.56s.43-.44.65-.65a11.72,11.72,0,0,1,1.13-1,27.28,27.28,0,0,1,2.66-1.89c.92-.57,1.86-1.13,2.83-1.62.49-.25,1-.46,1.5-.67.21-.08.43-.15.65-.21l.48-.15a1.76,1.76,0,0,1,.39-.06.71.71,0,0,1,.52.12.29.29,0,0,1,.08.3.57.57,0,0,1-.08.13.25.25,0,0,1-.35,0l0,0h-.12a3.35,3.35,0,0,0-.86.24,14.69,14.69,0,0,0-2.43,1.47c-.69.48-1.36,1-2,1.48s-1.41,1.15-2.08,1.77a19,19,0,0,0-1.83,2l-.6.86c-.21.31-.39.63-.58,1a21.16,21.16,0,0,0-1,2c-.23.56-.45,1.13-.67,1.7s-.51,1.29-.77,1.94a17.18,17.18,0,0,0-.61,1.88c-.09.33-.16.66-.23,1s-.2.74-.32,1.11a.81.81,0,0,1-.38.49.77.77,0,0,1-.41.11A.91.91,0,0,1,24.06,23.61Z"/></g><g id="Layer_6" data-name="Layer 6"><path class="cls-1" d="M23.24,27.51a2.31,2.31,0,0,1-.37,0,1.08,1.08,0,0,1-.53-.18.75.75,0,0,1-.23-.24l0-.1h0a.33.33,0,0,1,0-.44q0-.12,0-.27L22,26c0-.17,0-.33,0-.49a7.3,7.3,0,0,1,0-.81c0-.3.05-.6.1-.89a12.86,12.86,0,0,1,.35-1.61c.17-.59.38-1.15.56-1.62l.18-.49.06-.13q0-.32.12-.63.18-.86.39-1.71A17,17,0,0,1,24.25,16a14.14,14.14,0,0,1,.7-1.72,13.68,13.68,0,0,1,1-1.62,18.73,18.73,0,0,1,4.91-4.78,26.09,26.09,0,0,1,2.9-1.7l.43-.33c.17-.13.35-.24.52-.36l.12-.07.14-.1c.18-.12.35-.24.54-.35l.27-.17c.44-.26.87-.52,1.31-.76l.34-.18.46-.25.29-.14.72-.33c.48-.23,1-.42,1.46-.62l.17-.07.59-.21.18-.06.7-.24.53-.16.53-.16.54-.15.25-.06.1,0,.58-.15L45.4,1,45.66,1l.81-.14.22,0c.2,0,.4-.08.6-.1C48.42.51,49.62.35,50.84.29h.26l.62,0h1a6.32,6.32,0,0,1,.65,0h.28l.76.07.28,0c.6.06,1.19.17,1.63.25s1.17.24,1.75.4a26.79,26.79,0,0,1,3.43,1.2c.6.25,1.07.46,1.48.68l.76.42.79.52c.29.2.58.43.93.72a16.62,16.62,0,0,1,1.67.77,18.94,18.94,0,0,1,2.79,1.79l.35.28c.25.19.49.38.73.59a9.52,9.52,0,0,1,1.12,1.18l.13.15a3.41,3.41,0,0,1,.84,1.38,1.87,1.87,0,0,1,0,.32,1.88,1.88,0,0,1,.17.46,1.27,1.27,0,0,1,0,.43,1.93,1.93,0,0,1-.23.92,2.8,2.8,0,0,1-.33.49,2.53,2.53,0,0,1-.31.39l-.1.11a.83.83,0,0,1-.06.21.76.76,0,0,1-.56.41,1.09,1.09,0,0,0-.17.13l.08-.1a6.38,6.38,0,0,1-.8.66c-.34.23-.71.44-1.07.65l-.2.11-.21.12-.15.1a1.22,1.22,0,0,1-.26.12l-.41.23-.42.22c-.5.27-1,.53-1.5.77a25.72,25.72,0,0,1-3.2,1.28c-1.18.38-2.4.67-3.44.91l-3.88.86c-3.27.72-6.66,1.46-10,2.33-.8.2-1.59.42-2.38.63l-.92.25-3.44.92-3.37.86c-1,.24-2,.47-3.44.73-1.69.32-3.49.61-5.5.88-.94.12-1.87.25-2.81.33l-.45,0H23.6l-.16,0Z"/><path class="cls-1" d="M23.33,23.55a.61.61,0,0,0,.05-.12ZM22,26.73c0-.13,0-.26,0-.39a6.5,6.5,0,0,1-.12-.75,6.92,6.92,0,0,1,.13-1.5,12,12,0,0,1,.36-1.55c.16-.48.35-1,.54-1.44s.38-.91.55-1.36.36-1,.56-1.48a14.25,14.25,0,0,1,1.42-2.81c.29-.43.59-.84.91-1.25s.65-.81,1-1.19A1,1,0,0,1,29,13.7a1,1,0,0,1-.29.7c-.47.53-.93,1.08-1.37,1.64a16.72,16.72,0,0,0-1.1,1.68c-.37.64-.7,1.3-1,2s-.63,1.29-1,1.92-.63,1.2-.9,1.82a17.4,17.4,0,0,0-.62,1.89c-.07.26-.11.54-.18.8a2.76,2.76,0,0,0-.08.27,2,2,0,0,0,0,.34.25.25,0,0,1-.25.25A.26.26,0,0,1,22,26.73Z"/><path class="cls-1" d="M39.2,4.47a.1.1,0,0,1,0,0h0l0,0Zm0,0ZM24.06,23.61a.8.8,0,0,1-.49-.38.82.82,0,0,1-.08-.63c.2-1,.32-2.05.6-3.05s.68-1.92,1.06-2.86c.22-.55.44-1.09.67-1.62s.45-.94.7-1.39.53-.9.81-1.33l.42-.62.21-.27.33-.43c.16-.19.32-.38.49-.56s.43-.44.65-.65a11.72,11.72,0,0,1,1.13-1,27.28,27.28,0,0,1,2.66-1.89c.92-.57,1.86-1.13,2.83-1.62.49-.25,1-.46,1.5-.67.21-.08.43-.15.65-.21l.48-.15a1.76,1.76,0,0,1,.39-.06.71.71,0,0,1,.52.12.29.29,0,0,1,.08.3.57.57,0,0,1-.08.13.25.25,0,0,1-.35,0l0,0h-.12a3.35,3.35,0,0,0-.86.24,14.69,14.69,0,0,0-2.43,1.47c-.69.48-1.36,1-2,1.48s-1.41,1.15-2.08,1.77a19,19,0,0,0-1.83,2l-.6.86c-.21.31-.39.63-.58,1a21.16,21.16,0,0,0-1,2c-.23.56-.45,1.13-.67,1.7s-.51,1.29-.77,1.94a17.18,17.18,0,0,0-.61,1.88c-.09.33-.16.66-.23,1s-.2.74-.32,1.11a.81.81,0,0,1-.38.49.77.77,0,0,1-.41.11A.91.91,0,0,1,24.06,23.61Z"/><path class="cls-1" d="M22.49,26.36h0Zm0,0v0h0Zm0,0,0,0h0Zm0,0a.08.08,0,0,0,0-.05A.08.08,0,0,1,22.52,26.46Zm.33.28Zm0,0h0Zm0,0Zm-1-.18a2,2,0,0,1-.23-1A9.13,9.13,0,0,1,21.7,24a14.84,14.84,0,0,1,.71-3c.17-.49.37-1,.56-1.44s.35-.91.52-1.37.38-1,.62-1.5.44-.89.67-1.33c.14-.27.28-.53.43-.79s.35-.55.55-.82.45-.58.68-.86l.33-.38a5,5,0,0,1,.67-.55.91.91,0,0,1,.48-.13,1,1,0,0,1,.67,1.62,15.85,15.85,0,0,0-1.32,1.51,17.7,17.7,0,0,0-1.05,1.65c-.34.57-.66,1.15-1,1.75s-.58,1.19-.87,1.8-.6,1.23-.87,1.86a18.39,18.39,0,0,0-1,3.87,3.38,3.38,0,0,0,0,.45v0h.07a.28.28,0,0,1,.17-.07.25.25,0,0,1,.25.25.25.25,0,0,1-.15.23.73.73,0,0,1-.42.11h-.1A.55.55,0,0,1,21.84,26.58Z"/></g><g id="Layer_5" data-name="Layer 5"><path class="cls-1" d="M23.24,27.51a2.31,2.31,0,0,1-.37,0,1.08,1.08,0,0,1-.53-.18.75.75,0,0,1-.23-.24l0-.1h0a.33.33,0,0,1,0-.44q0-.12,0-.27L22,26c0-.17,0-.33,0-.49a7.3,7.3,0,0,1,0-.81c0-.3.05-.6.1-.89a12.86,12.86,0,0,1,.35-1.61c.17-.59.38-1.15.56-1.62l.18-.49.06-.13q0-.32.12-.63.18-.86.39-1.71A17,17,0,0,1,24.25,16a14.14,14.14,0,0,1,.7-1.72,13.68,13.68,0,0,1,1-1.62,18.73,18.73,0,0,1,4.91-4.78,26.09,26.09,0,0,1,2.9-1.7l.43-.33c.17-.13.35-.24.52-.36l.12-.07.14-.1c.18-.12.35-.24.54-.35l.27-.17c.44-.26.87-.52,1.31-.76l.34-.18.46-.25.29-.14.72-.33c.48-.23,1-.42,1.46-.62l.17-.07.59-.21.18-.06.7-.24.53-.16.53-.16.54-.15.25-.06.1,0,.58-.15L45.4,1,45.66,1l.81-.14.22,0c.2,0,.4-.08.6-.1C48.42.51,49.62.35,50.84.29h.26l.62,0h1a6.32,6.32,0,0,1,.65,0h.28l.76.07.28,0c.6.06,1.19.17,1.63.25s1.17.24,1.75.4a26.79,26.79,0,0,1,3.43,1.2c.6.25,1.07.46,1.48.68l.76.42.79.52c.29.2.58.43.93.72a16.62,16.62,0,0,1,1.67.77,18.94,18.94,0,0,1,2.79,1.79l.35.28c.25.19.49.38.73.59a9.52,9.52,0,0,1,1.12,1.18l.13.15a3.41,3.41,0,0,1,.84,1.38,1.87,1.87,0,0,1,0,.32,1.88,1.88,0,0,1,.17.46,1.27,1.27,0,0,1,0,.43,1.93,1.93,0,0,1-.23.92,2.8,2.8,0,0,1-.33.49,2.53,2.53,0,0,1-.31.39l-.1.11a.83.83,0,0,1-.06.21.76.76,0,0,1-.56.41,1.09,1.09,0,0,0-.17.13l.08-.1a6.38,6.38,0,0,1-.8.66c-.34.23-.71.44-1.07.65l-.2.11-.21.12-.15.1a1.22,1.22,0,0,1-.26.12l-.41.23-.42.22c-.5.27-1,.53-1.5.77a25.72,25.72,0,0,1-3.2,1.28c-1.18.38-2.4.67-3.44.91l-3.88.86c-3.27.72-6.66,1.46-10,2.33-.8.2-1.59.42-2.38.63l-.92.25-3.44.92-3.37.86c-1,.24-2,.47-3.44.73-1.69.32-3.49.61-5.5.88-.94.12-1.87.25-2.81.33l-.45,0H23.6l-.16,0Z"/><path class="cls-1" d="M23.33,23.55a.61.61,0,0,0,.05-.12ZM22,26.73c0-.13,0-.26,0-.39a6.5,6.5,0,0,1-.12-.75,6.92,6.92,0,0,1,.13-1.5,12,12,0,0,1,.36-1.55c.16-.48.35-1,.54-1.44s.38-.91.55-1.36.36-1,.56-1.48a14.25,14.25,0,0,1,1.42-2.81c.29-.43.59-.84.91-1.25s.65-.81,1-1.19A1,1,0,0,1,29,13.7a1,1,0,0,1-.29.7c-.47.53-.93,1.08-1.37,1.64a16.72,16.72,0,0,0-1.1,1.68c-.37.64-.7,1.3-1,2s-.63,1.29-1,1.92-.63,1.2-.9,1.82a17.4,17.4,0,0,0-.62,1.89c-.07.26-.11.54-.18.8a2.76,2.76,0,0,0-.08.27,2,2,0,0,0,0,.34.25.25,0,0,1-.25.25A.26.26,0,0,1,22,26.73Z"/><path class="cls-1" d="M39.2,4.47a.1.1,0,0,1,0,0h0l0,0Zm0,0ZM24.06,23.61a.8.8,0,0,1-.49-.38.82.82,0,0,1-.08-.63c.2-1,.32-2.05.6-3.05s.68-1.92,1.06-2.86c.22-.55.44-1.09.67-1.62s.45-.94.7-1.39.53-.9.81-1.33l.42-.62.21-.27.33-.43c.16-.19.32-.38.49-.56s.43-.44.65-.65a11.72,11.72,0,0,1,1.13-1,27.28,27.28,0,0,1,2.66-1.89c.92-.57,1.86-1.13,2.83-1.62.49-.25,1-.46,1.5-.67.21-.08.43-.15.65-.21l.48-.15a1.76,1.76,0,0,1,.39-.06.71.71,0,0,1,.52.12.29.29,0,0,1,.08.3.57.57,0,0,1-.08.13.25.25,0,0,1-.35,0l0,0h-.12a3.35,3.35,0,0,0-.86.24,14.69,14.69,0,0,0-2.43,1.47c-.69.48-1.36,1-2,1.48s-1.41,1.15-2.08,1.77a19,19,0,0,0-1.83,2l-.6.86c-.21.31-.39.63-.58,1a21.16,21.16,0,0,0-1,2c-.23.56-.45,1.13-.67,1.7s-.51,1.29-.77,1.94a17.18,17.18,0,0,0-.61,1.88c-.09.33-.16.66-.23,1s-.2.74-.32,1.11a.81.81,0,0,1-.38.49.77.77,0,0,1-.41.11A.91.91,0,0,1,24.06,23.61Z"/><path class="cls-1" d="M22.49,26.36h0Zm0,0v0h0Zm0,0,0,0h0Zm0,0a.08.08,0,0,0,0-.05A.08.08,0,0,1,22.52,26.46Zm.33.28Zm0,0h0Zm0,0Zm-1-.18a2,2,0,0,1-.23-1A9.13,9.13,0,0,1,21.7,24a14.84,14.84,0,0,1,.71-3c.17-.49.37-1,.56-1.44s.35-.91.52-1.37.38-1,.62-1.5.44-.89.67-1.33c.14-.27.28-.53.43-.79s.35-.55.55-.82.45-.58.68-.86l.33-.38a5,5,0,0,1,.67-.55.91.91,0,0,1,.48-.13,1,1,0,0,1,.67,1.62,15.85,15.85,0,0,0-1.32,1.51,17.7,17.7,0,0,0-1.05,1.65c-.34.57-.66,1.15-1,1.75s-.58,1.19-.87,1.8-.6,1.23-.87,1.86a18.39,18.39,0,0,0-1,3.87,3.38,3.38,0,0,0,0,.45v0h.07a.28.28,0,0,1,.17-.07.25.25,0,0,1,.25.25.25.25,0,0,1-.15.23.73.73,0,0,1-.42.11h-.1A.55.55,0,0,1,21.84,26.58Z"/><path class="cls-1" d="M20.91,27.53h0l0,0ZM44.46,25.8l-.09,0ZM61,20.62l-.07,0ZM75,10.9h0Zm0,0h0Zm0,0Zm-.3,2.7,0,0Zm-4,2.79,0,0ZM23.38,29a9.54,9.54,0,0,1-1.31-.14,1.75,1.75,0,0,1-.63-.26,3.91,3.91,0,0,1-.49-.34c-.11-.09-.22-.18-.32-.28l-.18-.17a1.51,1.51,0,0,1-.24-.36A1.82,1.82,0,0,1,20,27c0-.13-.05-.27-.07-.4a2.53,2.53,0,0,1,0-.38.25.25,0,0,1-.18-.1.24.24,0,0,1,0-.35c.11-.09.21-.22.35-.25a.25.25,0,0,1,.26.15l0,.09V26c0,.15,0,.3,0,.45s.05.31.08.45a3.62,3.62,0,0,0,.2.45l0-.06a1.29,1.29,0,0,0,.2.25h0l0,0h0a5.18,5.18,0,0,0,.83.63,1.68,1.68,0,0,0,.39.16l-.06,0a4.21,4.21,0,0,0,.62.09c.27,0,.54.05.81.07l1.73,0c.86,0,1.71-.06,2.57-.11s1.74-.1,2.61-.17,1.62-.19,2.43-.31c.42-.06.84-.13,1.26-.22s.87-.2,1.3-.32l-.08,0c1.06-.3,2.11-.63,3.19-.88s1.92-.46,2.88-.72,1.77-.52,2.65-.78a25.93,25.93,0,0,1,2.76-.7c1-.18,1.92-.34,2.88-.55s1.78-.44,2.67-.68c.71-.2,1.42-.41,2.11-.64.36-.12.71-.25,1.06-.39s.71-.29,1.08-.41.77-.21,1.15-.3l1.08-.22L60,20.89c.33-.07.66-.16,1-.25h0c.41-.12.81-.25,1.21-.4s.88-.31,1.31-.48.81-.35,1.22-.53L66,18.67l1.25-.53c.38-.18.75-.37,1.12-.57s.8-.41,1.2-.61.79-.4,1.16-.62l1.57-1-.09.06.85-.49h0a7.21,7.21,0,0,0,1.24-.86,3.64,3.64,0,0,0,.43-.54,3.48,3.48,0,0,0,.26-.63,4.34,4.34,0,0,0,.12-.87c0-.13,0-.24,0-.36s0-.22,0-.33a1,1,0,0,0,0-.24,1,1,0,0,0-.1-.21l-.08-.05a.3.3,0,1,1,.36-.49.57.57,0,0,1,.16.15l.06.11c0,.06.08.11.11.17a1.06,1.06,0,0,1,.1.3,2.33,2.33,0,0,1,0,.53c0,.2,0,.4,0,.6a4.6,4.6,0,0,1-.11.83,2.84,2.84,0,0,1-.57,1.2,5.07,5.07,0,0,1-.9.83,26.75,26.75,0,0,1-2.25,1.51c-.41.25-.82.5-1.24.72s-.86.42-1.29.62-.81.38-1.21.58-.9.43-1.36.62l-1.37.56-1.34.59c-.47.22-.95.39-1.43.56s-.9.31-1.36.43c-.91.23-1.84.39-2.75.65l-.1,0h0c-.49.14-1,.29-1.45.45s-.94.35-1.4.53-.94.34-1.41.5l-1.42.46c-1,.3-2,.57-3,.8s-2.05.37-3.07.57c-.74.15-1.48.35-2.21.55h0c-1,.28-2,.57-2.95.81s-2,.44-3,.63q-.77.16-1.53.36c-.5.12-1,.27-1.52.4s-1,.24-1.53.33-1,.15-1.5.21c-1,.12-2,.21-3,.29s-2.05.11-3.07.16q-.69,0-1.38,0C24.45,29,23.91,29,23.38,29Z"/></g><g id="Layer_4" data-name="Layer 4"><path class="cls-1" d="M23.24,27.51a2.31,2.31,0,0,1-.37,0,1.08,1.08,0,0,1-.53-.18.75.75,0,0,1-.23-.24l0-.1h0a.33.33,0,0,1,0-.44q0-.12,0-.27L22,26c0-.17,0-.33,0-.49a7.3,7.3,0,0,1,0-.81c0-.3.05-.6.1-.89a12.86,12.86,0,0,1,.35-1.61c.17-.59.38-1.15.56-1.62l.18-.49.06-.13q0-.32.12-.63.18-.86.39-1.71A17,17,0,0,1,24.25,16a14.14,14.14,0,0,1,.7-1.72,13.68,13.68,0,0,1,1-1.62,18.73,18.73,0,0,1,4.91-4.78,26.09,26.09,0,0,1,2.9-1.7l.43-.33c.17-.13.35-.24.52-.36l.12-.07.14-.1c.18-.12.35-.24.54-.35l.27-.17c.44-.26.87-.52,1.31-.76l.34-.18.46-.25.29-.14.72-.33c.48-.23,1-.42,1.46-.62l.17-.07.59-.21.18-.06.7-.24.53-.16.53-.16.54-.15.25-.06.1,0,.58-.15L45.4,1,45.66,1l.81-.14.22,0c.2,0,.4-.08.6-.1C48.42.51,49.62.35,50.84.29h.26l.62,0h1a6.32,6.32,0,0,1,.65,0h.28l.76.07.28,0c.6.06,1.19.17,1.63.25s1.17.24,1.75.4a26.79,26.79,0,0,1,3.43,1.2c.6.25,1.07.46,1.48.68l.76.42.79.52c.29.2.58.43.93.72a16.62,16.62,0,0,1,1.67.77,18.94,18.94,0,0,1,2.79,1.79l.35.28c.25.19.49.38.73.59a9.52,9.52,0,0,1,1.12,1.18l.13.15a3.41,3.41,0,0,1,.84,1.38,1.87,1.87,0,0,1,0,.32,1.88,1.88,0,0,1,.17.46,1.27,1.27,0,0,1,0,.43,1.93,1.93,0,0,1-.23.92,2.8,2.8,0,0,1-.33.49,2.53,2.53,0,0,1-.31.39l-.1.11a.83.83,0,0,1-.06.21.76.76,0,0,1-.56.41,1.09,1.09,0,0,0-.17.13l.08-.1a6.38,6.38,0,0,1-.8.66c-.34.23-.71.44-1.07.65l-.2.11-.21.12-.15.1a1.22,1.22,0,0,1-.26.12l-.41.23-.42.22c-.5.27-1,.53-1.5.77a25.72,25.72,0,0,1-3.2,1.28c-1.18.38-2.4.67-3.44.91l-3.88.86c-3.27.72-6.66,1.46-10,2.33-.8.2-1.59.42-2.38.63l-.92.25-3.44.92-3.37.86c-1,.24-2,.47-3.44.73-1.69.32-3.49.61-5.5.88-.94.12-1.87.25-2.81.33l-.45,0H23.6l-.16,0Z"/><path class="cls-1" d="M23.33,23.55a.61.61,0,0,0,.05-.12ZM22,26.73c0-.13,0-.26,0-.39a6.5,6.5,0,0,1-.12-.75,6.92,6.92,0,0,1,.13-1.5,12,12,0,0,1,.36-1.55c.16-.48.35-1,.54-1.44s.38-.91.55-1.36.36-1,.56-1.48a14.25,14.25,0,0,1,1.42-2.81c.29-.43.59-.84.91-1.25s.65-.81,1-1.19A1,1,0,0,1,29,13.7a1,1,0,0,1-.29.7c-.47.53-.93,1.08-1.37,1.64a16.72,16.72,0,0,0-1.1,1.68c-.37.64-.7,1.3-1,2s-.63,1.29-1,1.92-.63,1.2-.9,1.82a17.4,17.4,0,0,0-.62,1.89c-.07.26-.11.54-.18.8a2.76,2.76,0,0,0-.08.27,2,2,0,0,0,0,.34.25.25,0,0,1-.25.25A.26.26,0,0,1,22,26.73Z"/><path class="cls-1" d="M39.2,4.47a.1.1,0,0,1,0,0h0l0,0Zm0,0ZM24.06,23.61a.8.8,0,0,1-.49-.38.82.82,0,0,1-.08-.63c.2-1,.32-2.05.6-3.05s.68-1.92,1.06-2.86c.22-.55.44-1.09.67-1.62s.45-.94.7-1.39.53-.9.81-1.33l.42-.62.21-.27.33-.43c.16-.19.32-.38.49-.56s.43-.44.65-.65a11.72,11.72,0,0,1,1.13-1,27.28,27.28,0,0,1,2.66-1.89c.92-.57,1.86-1.13,2.83-1.62.49-.25,1-.46,1.5-.67.21-.08.43-.15.65-.21l.48-.15a1.76,1.76,0,0,1,.39-.06.71.71,0,0,1,.52.12.29.29,0,0,1,.08.3.57.57,0,0,1-.08.13.25.25,0,0,1-.35,0l0,0h-.12a3.35,3.35,0,0,0-.86.24,14.69,14.69,0,0,0-2.43,1.47c-.69.48-1.36,1-2,1.48s-1.41,1.15-2.08,1.77a19,19,0,0,0-1.83,2l-.6.86c-.21.31-.39.63-.58,1a21.16,21.16,0,0,0-1,2c-.23.56-.45,1.13-.67,1.7s-.51,1.29-.77,1.94a17.18,17.18,0,0,0-.61,1.88c-.09.33-.16.66-.23,1s-.2.74-.32,1.11a.81.81,0,0,1-.38.49.77.77,0,0,1-.41.11A.91.91,0,0,1,24.06,23.61Z"/><path class="cls-1" d="M22.49,26.36h0Zm0,0v0h0Zm0,0,0,0h0Zm0,0a.08.08,0,0,0,0-.05A.08.08,0,0,1,22.52,26.46Zm.33.28Zm0,0h0Zm0,0Zm-1-.18a2,2,0,0,1-.23-1A9.13,9.13,0,0,1,21.7,24a14.84,14.84,0,0,1,.71-3c.17-.49.37-1,.56-1.44s.35-.91.52-1.37.38-1,.62-1.5.44-.89.67-1.33c.14-.27.28-.53.43-.79s.35-.55.55-.82.45-.58.68-.86l.33-.38a5,5,0,0,1,.67-.55.91.91,0,0,1,.48-.13,1,1,0,0,1,.67,1.62,15.85,15.85,0,0,0-1.32,1.51,17.7,17.7,0,0,0-1.05,1.65c-.34.57-.66,1.15-1,1.75s-.58,1.19-.87,1.8-.6,1.23-.87,1.86a18.39,18.39,0,0,0-1,3.87,3.38,3.38,0,0,0,0,.45v0h.07a.28.28,0,0,1,.17-.07.25.25,0,0,1,.25.25.25.25,0,0,1-.15.23.73.73,0,0,1-.42.11h-.1A.55.55,0,0,1,21.84,26.58Z"/><path class="cls-1" d="M20.91,27.53h0l0,0ZM44.46,25.8l-.09,0ZM61,20.62l-.07,0ZM75,10.9h0Zm0,0h0Zm0,0Zm-.3,2.7,0,0Zm-4,2.79,0,0ZM23.38,29a9.54,9.54,0,0,1-1.31-.14,1.75,1.75,0,0,1-.63-.26,3.91,3.91,0,0,1-.49-.34c-.11-.09-.22-.18-.32-.28l-.18-.17a1.51,1.51,0,0,1-.24-.36A1.82,1.82,0,0,1,20,27c0-.13-.05-.27-.07-.4a2.53,2.53,0,0,1,0-.38.25.25,0,0,1-.18-.1.24.24,0,0,1,0-.35c.11-.09.21-.22.35-.25a.25.25,0,0,1,.26.15l0,.09V26c0,.15,0,.3,0,.45s.05.31.08.45a3.62,3.62,0,0,0,.2.45l0-.06a1.29,1.29,0,0,0,.2.25h0l0,0h0a5.18,5.18,0,0,0,.83.63,1.68,1.68,0,0,0,.39.16l-.06,0a4.21,4.21,0,0,0,.62.09c.27,0,.54.05.81.07l1.73,0c.86,0,1.71-.06,2.57-.11s1.74-.1,2.61-.17,1.62-.19,2.43-.31c.42-.06.84-.13,1.26-.22s.87-.2,1.3-.32l-.08,0c1.06-.3,2.11-.63,3.19-.88s1.92-.46,2.88-.72,1.77-.52,2.65-.78a25.93,25.93,0,0,1,2.76-.7c1-.18,1.92-.34,2.88-.55s1.78-.44,2.67-.68c.71-.2,1.42-.41,2.11-.64.36-.12.71-.25,1.06-.39s.71-.29,1.08-.41.77-.21,1.15-.3l1.08-.22L60,20.89c.33-.07.66-.16,1-.25h0c.41-.12.81-.25,1.21-.4s.88-.31,1.31-.48.81-.35,1.22-.53L66,18.67l1.25-.53c.38-.18.75-.37,1.12-.57s.8-.41,1.2-.61.79-.4,1.16-.62l1.57-1-.09.06.85-.49h0a7.21,7.21,0,0,0,1.24-.86,3.64,3.64,0,0,0,.43-.54,3.48,3.48,0,0,0,.26-.63,4.34,4.34,0,0,0,.12-.87c0-.13,0-.24,0-.36s0-.22,0-.33a1,1,0,0,0,0-.24,1,1,0,0,0-.1-.21l-.08-.05a.3.3,0,1,1,.36-.49.57.57,0,0,1,.16.15l.06.11c0,.06.08.11.11.17a1.06,1.06,0,0,1,.1.3,2.33,2.33,0,0,1,0,.53c0,.2,0,.4,0,.6a4.6,4.6,0,0,1-.11.83,2.84,2.84,0,0,1-.57,1.2,5.07,5.07,0,0,1-.9.83,26.75,26.75,0,0,1-2.25,1.51c-.41.25-.82.5-1.24.72s-.86.42-1.29.62-.81.38-1.21.58-.9.43-1.36.62l-1.37.56-1.34.59c-.47.22-.95.39-1.43.56s-.9.31-1.36.43c-.91.23-1.84.39-2.75.65l-.1,0h0c-.49.14-1,.29-1.45.45s-.94.35-1.4.53-.94.34-1.41.5l-1.42.46c-1,.3-2,.57-3,.8s-2.05.37-3.07.57c-.74.15-1.48.35-2.21.55h0c-1,.28-2,.57-2.95.81s-2,.44-3,.63q-.77.16-1.53.36c-.5.12-1,.27-1.52.4s-1,.24-1.53.33-1,.15-1.5.21c-1,.12-2,.21-3,.29s-2.05.11-3.07.16q-.69,0-1.38,0C24.45,29,23.91,29,23.38,29Z"/><path class="cls-1" d="M74.24,25.06Zm.81-14.65,0,0ZM98.89,6.8l0,0h0Zm1.81-1.55,0,0Zm-.41.51,0,0ZM86.58,11.31h0Zm-2.93,1.17,0,0Zm-.83.67,0,0ZM20.07,25.94l0,0Zm-.78.14h0Zm49.86,2.81h0ZM2.24,35.24l-.06-.06ZM7,37.86c-.28,0-.57,0-.85-.06a14,14,0,0,1-1.55-.28l-.83-.23A5.66,5.66,0,0,1,3,37a5.86,5.86,0,0,1-1.19-.69,4.42,4.42,0,0,1-.59-.55A4.25,4.25,0,0,1,.7,35a3.69,3.69,0,0,1-.43-1.69,4.35,4.35,0,0,1,.43-2,3.4,3.4,0,0,1,.53-.77,4.44,4.44,0,0,1,.7-.6,6.81,6.81,0,0,1,1.73-.8,29.26,29.26,0,0,1,3.19-.82c.56-.1,1.11-.2,1.67-.28l1.67-.2c.51-.06,1-.11,1.52-.14s1-.06,1.56-.11a15.91,15.91,0,0,0,2-.25c.68-.12,1.34-.27,2-.45l-.07,0a10.4,10.4,0,0,0,1.19-.4c.33-.14.67-.29,1-.46l.09-.08.23-.31a.38.38,0,0,1,.37-.18.24.24,0,0,1,.22.27A.26.26,0,0,1,20,26l-.13.18a1.55,1.55,0,0,1-.24.27,1.46,1.46,0,0,1-.3.17l-.65.31-.62.27-.71.26a14.6,14.6,0,0,1-1.47.43c-.52.13-1,.26-1.56.34s-1,.16-1.46.2c-1.05.09-2.11.2-3.15.35-.74.1-1.48.2-2.2.36-.39.08-.77.16-1.16.26s-.69.17-1,.27a13,13,0,0,0-2.53,1,5.06,5.06,0,0,0-.69.53,4.21,4.21,0,0,0-.35.48,3.35,3.35,0,0,0-.39,1.56A3.33,3.33,0,0,0,1.5,34a4.26,4.26,0,0,0,.32.73,4,4,0,0,0,.44.56,5.66,5.66,0,0,0,.85.63A9.58,9.58,0,0,0,4,36.3c.23.09.48.16.72.23.48.12,1,.21,1.44.29a10.4,10.4,0,0,0,1.37.1A14,14,0,0,0,9,36.8c.55-.1,1.09-.22,1.64-.34,1-.24,2-.53,3-.77s2.14-.51,3.22-.7,2.11-.35,3.17-.51,2.11-.34,3.16-.52c.51-.08,1-.17,1.52-.24l.8-.09c.28,0,.56,0,.84-.05.53,0,1.07,0,1.59,0s1.06,0,1.59.09a26.84,26.84,0,0,1,3.09.49c.88.18,1.75.39,2.62.6s1.8.42,2.7.61l1.37.28c.44.08.88.14,1.33.21l.62.08L42,36l.7,0h.71c.5,0,1,0,1.49-.05s1.06-.08,1.59-.14c1.06-.12,2.11-.25,3.16-.4L53,35c1-.17,2.09-.35,3.13-.59l1.19-.29-.06,0,.77-.22.84-.26c.53-.17,1.06-.37,1.59-.57s1-.37,1.45-.57,1-.42,1.48-.64c.94-.42,1.87-.86,2.79-1.33.5-.26,1-.51,1.49-.78l1.5-.85,0,0q.67-.41,1.35-.84c.44-.28.87-.59,1.3-.9s.86-.65,1.27-1c.23-.19.46-.4.68-.6l.49-.49,0,0,0,0,0,0,0,0c.62-.7,1.23-1.41,1.82-2.14.31-.38.62-.76.92-1.16s.54-.76.79-1.15.48-.89.69-1.35.38-.91.56-1.36.36-.94.56-1.4a13.57,13.57,0,0,1,.72-1.36,11.46,11.46,0,0,1,.75-1.2c.27-.37.57-.73.88-1.08a5.21,5.21,0,0,1,1.16-1,8.82,8.82,0,0,1,1.27-.63,21.85,21.85,0,0,1,2.42-.74c.42-.11.85-.2,1.28-.29l1.31-.31c.89-.21,1.78-.45,2.66-.69s1.7-.43,2.54-.67c.37-.11.74-.21,1.11-.34l1.18-.43c.36-.13.71-.29,1-.44s.63-.33.94-.51h0l0,0h0a8,8,0,0,0,1.44-1.08,3.21,3.21,0,0,0,.39-.52,4.67,4.67,0,0,0,.27-.65c0-.18.08-.36.11-.54a4.17,4.17,0,0,0,.06-.71,3.5,3.5,0,0,0-.11-.79,2.41,2.41,0,0,0-.25-.57,1.91,1.91,0,0,0-.24-.32h0a3.32,3.32,0,0,0-.42-.32,1.92,1.92,0,0,0-.25-.12l-.34-.11.08,0A5.88,5.88,0,0,0,98.54,1l-1,0-.35,0-.5.05-.55.09a3.41,3.41,0,0,0-.46.1c-.34.07-.67.16-1,.25l.09,0c-.48.15-1,.3-1.42.48s-1,.37-1.48.58c-1,.42-2,.87-3,1.33S87,4.83,86.08,5.32s-1.83,1-2.76,1.42c-.72.34-1.45.68-2.16,1s-1.42.71-2.11,1.09S77.7,9.61,77,10c-.53.28-1.06.55-1.57.85l.07,0a4.43,4.43,0,0,1-.63.36.27.27,0,0,1-.32-.08.27.27,0,0,1,.05-.38c.12-.09.26-.16.39-.24h0l.66-.38c.38-.22.76-.41,1.14-.62.84-.46,1.67-.94,2.52-1.4l1.31-.68c.45-.23.91-.43,1.36-.65.93-.44,1.85-.9,2.76-1.37l1.37-.75c.5-.27,1-.52,1.51-.78.9-.45,1.82-.89,2.75-1.29s2-.87,3-1.24c.51-.18,1-.35,1.54-.49l.79-.2q.44-.09.87-.15c.23,0,.46,0,.68-.08l.78,0a10,10,0,0,1,1.34,0,3.11,3.11,0,0,1,.91.28,2.49,2.49,0,0,1,.76.57,2.34,2.34,0,0,1,.42.65,3.39,3.39,0,0,1,.25.78,3.79,3.79,0,0,1,0,.83c0,.13,0,.27,0,.4a6.74,6.74,0,0,1-.16.78,3.94,3.94,0,0,1-.25.68,3,3,0,0,1-.56.77,5.6,5.6,0,0,1-.69.6c-.21.16-.43.3-.65.44a13.5,13.5,0,0,1-1.34.75A25.91,25.91,0,0,1,95.16,9c-.73.23-1.46.43-2.2.62l-2.1.57-2.23.58-2,.52c-.53.16-1,.32-1.55.51a8.65,8.65,0,0,0-1.34.64c-.15.1-.3.2-.45.32a5.22,5.22,0,0,0-.43.39,11.24,11.24,0,0,0-1.5,2.05l.06-.11c-.24.42-.48.85-.7,1.28s-.41.89-.6,1.35-.37.94-.58,1.4a15.49,15.49,0,0,1-.71,1.41A10.82,10.82,0,0,1,78,21.84c-.32.42-.65.83-1,1.24-.71.84-1.41,1.66-2.16,2.47a3.83,3.83,0,0,1-.29.28l-.23.24c-.21.18-.41.37-.63.55-.43.36-.87.7-1.32,1-.85.63-1.76,1.2-2.67,1.75a56.94,56.94,0,0,1-5.7,3c-1,.46-2,.87-3,1.27s-2,.75-3.06,1.05a30.18,30.18,0,0,1-3.15.78c-1.06.2-2.14.38-3.21.54-2.15.34-4.29.66-6.46.83-.55,0-1.1.06-1.65.07s-1.07,0-1.6,0l-.68-.07-.8-.1c-.53-.07-1-.15-1.58-.25s-1-.19-1.49-.3l-1.51-.32c-1-.23-2-.48-3-.68-.51-.11-1-.21-1.54-.3s-1.05-.17-1.58-.22c-1.06-.09-2.14-.13-3.21-.12h.13l-.68,0-.85.09c-.55.07-1.09.17-1.64.26-1.05.17-2.11.37-3.16.53s-2,.32-3.05.5-2.16.43-3.23.69-2.1.52-3.15.79c-.51.12-1,.23-1.52.32a12.11,12.11,0,0,1-1.58.17H7Z"/></g><g id="Layer_3" data-name="Layer 3"><path class="cls-1" d="M23.24,27.51a2.31,2.31,0,0,1-.37,0,1.08,1.08,0,0,1-.53-.18.75.75,0,0,1-.23-.24l0-.1h0a.33.33,0,0,1,0-.44q0-.12,0-.27L22,26c0-.17,0-.33,0-.49a7.3,7.3,0,0,1,0-.81c0-.3.05-.6.1-.89a12.86,12.86,0,0,1,.35-1.61c.17-.59.38-1.15.56-1.62l.18-.49.06-.13q0-.32.12-.63.18-.86.39-1.71A17,17,0,0,1,24.25,16a14.14,14.14,0,0,1,.7-1.72,13.68,13.68,0,0,1,1-1.62,18.73,18.73,0,0,1,4.91-4.78,26.09,26.09,0,0,1,2.9-1.7l.43-.33c.17-.13.35-.24.52-.36l.12-.07.14-.1c.18-.12.35-.24.54-.35l.27-.17c.44-.26.87-.52,1.31-.76l.34-.18.46-.25.29-.14.72-.33c.48-.23,1-.42,1.46-.62l.17-.07.59-.21.18-.06.7-.24.53-.16.53-.16.54-.15.25-.06.1,0,.58-.15L45.4,1,45.66,1l.81-.14.22,0c.2,0,.4-.08.6-.1C48.42.51,49.62.35,50.84.29h.26l.62,0h1a6.32,6.32,0,0,1,.65,0h.28l.76.07.28,0c.6.06,1.19.17,1.63.25s1.17.24,1.75.4a26.79,26.79,0,0,1,3.43,1.2c.6.25,1.07.46,1.48.68l.76.42.79.52c.29.2.58.43.93.72a16.62,16.62,0,0,1,1.67.77,18.94,18.94,0,0,1,2.79,1.79l.35.28c.25.19.49.38.73.59a9.52,9.52,0,0,1,1.12,1.18l.13.15a3.41,3.41,0,0,1,.84,1.38,1.87,1.87,0,0,1,0,.32,1.88,1.88,0,0,1,.17.46,1.27,1.27,0,0,1,0,.43,1.93,1.93,0,0,1-.23.92,2.8,2.8,0,0,1-.33.49,2.53,2.53,0,0,1-.31.39l-.1.11a.83.83,0,0,1-.06.21.76.76,0,0,1-.56.41,1.09,1.09,0,0,0-.17.13l.08-.1a6.38,6.38,0,0,1-.8.66c-.34.23-.71.44-1.07.65l-.2.11-.21.12-.15.1a1.22,1.22,0,0,1-.26.12l-.41.23-.42.22c-.5.27-1,.53-1.5.77a25.72,25.72,0,0,1-3.2,1.28c-1.18.38-2.4.67-3.44.91l-3.88.86c-3.27.72-6.66,1.46-10,2.33-.8.2-1.59.42-2.38.63l-.92.25-3.44.92-3.37.86c-1,.24-2,.47-3.44.73-1.69.32-3.49.61-5.5.88-.94.12-1.87.25-2.81.33l-.45,0H23.6l-.16,0Z"/><path class="cls-1" d="M23.33,23.55a.61.61,0,0,0,.05-.12ZM22,26.73c0-.13,0-.26,0-.39a6.5,6.5,0,0,1-.12-.75,6.92,6.92,0,0,1,.13-1.5,12,12,0,0,1,.36-1.55c.16-.48.35-1,.54-1.44s.38-.91.55-1.36.36-1,.56-1.48a14.25,14.25,0,0,1,1.42-2.81c.29-.43.59-.84.91-1.25s.65-.81,1-1.19A1,1,0,0,1,29,13.7a1,1,0,0,1-.29.7c-.47.53-.93,1.08-1.37,1.64a16.72,16.72,0,0,0-1.1,1.68c-.37.64-.7,1.3-1,2s-.63,1.29-1,1.92-.63,1.2-.9,1.82a17.4,17.4,0,0,0-.62,1.89c-.07.26-.11.54-.18.8a2.76,2.76,0,0,0-.08.27,2,2,0,0,0,0,.34.25.25,0,0,1-.25.25A.26.26,0,0,1,22,26.73Z"/><path class="cls-1" d="M39.2,4.47a.1.1,0,0,1,0,0h0l0,0Zm0,0ZM24.06,23.61a.8.8,0,0,1-.49-.38.82.82,0,0,1-.08-.63c.2-1,.32-2.05.6-3.05s.68-1.92,1.06-2.86c.22-.55.44-1.09.67-1.62s.45-.94.7-1.39.53-.9.81-1.33l.42-.62.21-.27.33-.43c.16-.19.32-.38.49-.56s.43-.44.65-.65a11.72,11.72,0,0,1,1.13-1,27.28,27.28,0,0,1,2.66-1.89c.92-.57,1.86-1.13,2.83-1.62.49-.25,1-.46,1.5-.67.21-.08.43-.15.65-.21l.48-.15a1.76,1.76,0,0,1,.39-.06.71.71,0,0,1,.52.12.29.29,0,0,1,.08.3.57.57,0,0,1-.08.13.25.25,0,0,1-.35,0l0,0h-.12a3.35,3.35,0,0,0-.86.24,14.69,14.69,0,0,0-2.43,1.47c-.69.48-1.36,1-2,1.48s-1.41,1.15-2.08,1.77a19,19,0,0,0-1.83,2l-.6.86c-.21.31-.39.63-.58,1a21.16,21.16,0,0,0-1,2c-.23.56-.45,1.13-.67,1.7s-.51,1.29-.77,1.94a17.18,17.18,0,0,0-.61,1.88c-.09.33-.16.66-.23,1s-.2.74-.32,1.11a.81.81,0,0,1-.38.49.77.77,0,0,1-.41.11A.91.91,0,0,1,24.06,23.61Z"/><path class="cls-1" d="M22.49,26.36h0Zm0,0v0h0Zm0,0,0,0h0Zm0,0a.08.08,0,0,0,0-.05A.08.08,0,0,1,22.52,26.46Zm.33.28Zm0,0h0Zm0,0Zm-1-.18a2,2,0,0,1-.23-1A9.13,9.13,0,0,1,21.7,24a14.84,14.84,0,0,1,.71-3c.17-.49.37-1,.56-1.44s.35-.91.52-1.37.38-1,.62-1.5.44-.89.67-1.33c.14-.27.28-.53.43-.79s.35-.55.55-.82.45-.58.68-.86l.33-.38a5,5,0,0,1,.67-.55.91.91,0,0,1,.48-.13,1,1,0,0,1,.67,1.62,15.85,15.85,0,0,0-1.32,1.51,17.7,17.7,0,0,0-1.05,1.65c-.34.57-.66,1.15-1,1.75s-.58,1.19-.87,1.8-.6,1.23-.87,1.86a18.39,18.39,0,0,0-1,3.87,3.38,3.38,0,0,0,0,.45v0h.07a.28.28,0,0,1,.17-.07.25.25,0,0,1,.25.25.25.25,0,0,1-.15.23.73.73,0,0,1-.42.11h-.1A.55.55,0,0,1,21.84,26.58Z"/><path class="cls-1" d="M20.91,27.53h0l0,0ZM44.46,25.8l-.09,0ZM61,20.62l-.07,0ZM75,10.9h0Zm0,0h0Zm0,0Zm-.3,2.7,0,0Zm-4,2.79,0,0ZM23.38,29a9.54,9.54,0,0,1-1.31-.14,1.75,1.75,0,0,1-.63-.26,3.91,3.91,0,0,1-.49-.34c-.11-.09-.22-.18-.32-.28l-.18-.17a1.51,1.51,0,0,1-.24-.36A1.82,1.82,0,0,1,20,27c0-.13-.05-.27-.07-.4a2.53,2.53,0,0,1,0-.38.25.25,0,0,1-.18-.1.24.24,0,0,1,0-.35c.11-.09.21-.22.35-.25a.25.25,0,0,1,.26.15l0,.09V26c0,.15,0,.3,0,.45s.05.31.08.45a3.62,3.62,0,0,0,.2.45l0-.06a1.29,1.29,0,0,0,.2.25h0l0,0h0a5.18,5.18,0,0,0,.83.63,1.68,1.68,0,0,0,.39.16l-.06,0a4.21,4.21,0,0,0,.62.09c.27,0,.54.05.81.07l1.73,0c.86,0,1.71-.06,2.57-.11s1.74-.1,2.61-.17,1.62-.19,2.43-.31c.42-.06.84-.13,1.26-.22s.87-.2,1.3-.32l-.08,0c1.06-.3,2.11-.63,3.19-.88s1.92-.46,2.88-.72,1.77-.52,2.65-.78a25.93,25.93,0,0,1,2.76-.7c1-.18,1.92-.34,2.88-.55s1.78-.44,2.67-.68c.71-.2,1.42-.41,2.11-.64.36-.12.71-.25,1.06-.39s.71-.29,1.08-.41.77-.21,1.15-.3l1.08-.22L60,20.89c.33-.07.66-.16,1-.25h0c.41-.12.81-.25,1.21-.4s.88-.31,1.31-.48.81-.35,1.22-.53L66,18.67l1.25-.53c.38-.18.75-.37,1.12-.57s.8-.41,1.2-.61.79-.4,1.16-.62l1.57-1-.09.06.85-.49h0a7.21,7.21,0,0,0,1.24-.86,3.64,3.64,0,0,0,.43-.54,3.48,3.48,0,0,0,.26-.63,4.34,4.34,0,0,0,.12-.87c0-.13,0-.24,0-.36s0-.22,0-.33a1,1,0,0,0,0-.24,1,1,0,0,0-.1-.21l-.08-.05a.3.3,0,1,1,.36-.49.57.57,0,0,1,.16.15l.06.11c0,.06.08.11.11.17a1.06,1.06,0,0,1,.1.3,2.33,2.33,0,0,1,0,.53c0,.2,0,.4,0,.6a4.6,4.6,0,0,1-.11.83,2.84,2.84,0,0,1-.57,1.2,5.07,5.07,0,0,1-.9.83,26.75,26.75,0,0,1-2.25,1.51c-.41.25-.82.5-1.24.72s-.86.42-1.29.62-.81.38-1.21.58-.9.43-1.36.62l-1.37.56-1.34.59c-.47.22-.95.39-1.43.56s-.9.31-1.36.43c-.91.23-1.84.39-2.75.65l-.1,0h0c-.49.14-1,.29-1.45.45s-.94.35-1.4.53-.94.34-1.41.5l-1.42.46c-1,.3-2,.57-3,.8s-2.05.37-3.07.57c-.74.15-1.48.35-2.21.55h0c-1,.28-2,.57-2.95.81s-2,.44-3,.63q-.77.16-1.53.36c-.5.12-1,.27-1.52.4s-1,.24-1.53.33-1,.15-1.5.21c-1,.12-2,.21-3,.29s-2.05.11-3.07.16q-.69,0-1.38,0C24.45,29,23.91,29,23.38,29Z"/><path class="cls-1" d="M74.24,25.06Zm.81-14.65,0,0ZM98.89,6.8l0,0h0Zm1.81-1.55,0,0Zm-.41.51,0,0ZM86.58,11.31h0Zm-2.93,1.17,0,0Zm-.83.67,0,0ZM20.07,25.94l0,0Zm-.78.14h0Zm49.86,2.81h0ZM2.24,35.24l-.06-.06ZM7,37.86c-.28,0-.57,0-.85-.06a14,14,0,0,1-1.55-.28l-.83-.23A5.66,5.66,0,0,1,3,37a5.86,5.86,0,0,1-1.19-.69,4.42,4.42,0,0,1-.59-.55A4.25,4.25,0,0,1,.7,35a3.69,3.69,0,0,1-.43-1.69,4.35,4.35,0,0,1,.43-2,3.4,3.4,0,0,1,.53-.77,4.44,4.44,0,0,1,.7-.6,6.81,6.81,0,0,1,1.73-.8,29.26,29.26,0,0,1,3.19-.82c.56-.1,1.11-.2,1.67-.28l1.67-.2c.51-.06,1-.11,1.52-.14s1-.06,1.56-.11a15.91,15.91,0,0,0,2-.25c.68-.12,1.34-.27,2-.45l-.07,0a10.4,10.4,0,0,0,1.19-.4c.33-.14.67-.29,1-.46l.09-.08.23-.31a.38.38,0,0,1,.37-.18.24.24,0,0,1,.22.27A.26.26,0,0,1,20,26l-.13.18a1.55,1.55,0,0,1-.24.27,1.46,1.46,0,0,1-.3.17l-.65.31-.62.27-.71.26a14.6,14.6,0,0,1-1.47.43c-.52.13-1,.26-1.56.34s-1,.16-1.46.2c-1.05.09-2.11.2-3.15.35-.74.1-1.48.2-2.2.36-.39.08-.77.16-1.16.26s-.69.17-1,.27a13,13,0,0,0-2.53,1,5.06,5.06,0,0,0-.69.53,4.21,4.21,0,0,0-.35.48,3.35,3.35,0,0,0-.39,1.56A3.33,3.33,0,0,0,1.5,34a4.26,4.26,0,0,0,.32.73,4,4,0,0,0,.44.56,5.66,5.66,0,0,0,.85.63A9.58,9.58,0,0,0,4,36.3c.23.09.48.16.72.23.48.12,1,.21,1.44.29a10.4,10.4,0,0,0,1.37.1A14,14,0,0,0,9,36.8c.55-.1,1.09-.22,1.64-.34,1-.24,2-.53,3-.77s2.14-.51,3.22-.7,2.11-.35,3.17-.51,2.11-.34,3.16-.52c.51-.08,1-.17,1.52-.24l.8-.09c.28,0,.56,0,.84-.05.53,0,1.07,0,1.59,0s1.06,0,1.59.09a26.84,26.84,0,0,1,3.09.49c.88.18,1.75.39,2.62.6s1.8.42,2.7.61l1.37.28c.44.08.88.14,1.33.21l.62.08L42,36l.7,0h.71c.5,0,1,0,1.49-.05s1.06-.08,1.59-.14c1.06-.12,2.11-.25,3.16-.4L53,35c1-.17,2.09-.35,3.13-.59l1.19-.29-.06,0,.77-.22.84-.26c.53-.17,1.06-.37,1.59-.57s1-.37,1.45-.57,1-.42,1.48-.64c.94-.42,1.87-.86,2.79-1.33.5-.26,1-.51,1.49-.78l1.5-.85,0,0q.67-.41,1.35-.84c.44-.28.87-.59,1.3-.9s.86-.65,1.27-1c.23-.19.46-.4.68-.6l.49-.49,0,0,0,0,0,0,0,0c.62-.7,1.23-1.41,1.82-2.14.31-.38.62-.76.92-1.16s.54-.76.79-1.15.48-.89.69-1.35.38-.91.56-1.36.36-.94.56-1.4a13.57,13.57,0,0,1,.72-1.36,11.46,11.46,0,0,1,.75-1.2c.27-.37.57-.73.88-1.08a5.21,5.21,0,0,1,1.16-1,8.82,8.82,0,0,1,1.27-.63,21.85,21.85,0,0,1,2.42-.74c.42-.11.85-.2,1.28-.29l1.31-.31c.89-.21,1.78-.45,2.66-.69s1.7-.43,2.54-.67c.37-.11.74-.21,1.11-.34l1.18-.43c.36-.13.71-.29,1-.44s.63-.33.94-.51h0l0,0h0a8,8,0,0,0,1.44-1.08,3.21,3.21,0,0,0,.39-.52,4.67,4.67,0,0,0,.27-.65c0-.18.08-.36.11-.54a4.17,4.17,0,0,0,.06-.71,3.5,3.5,0,0,0-.11-.79,2.41,2.41,0,0,0-.25-.57,1.91,1.91,0,0,0-.24-.32h0a3.32,3.32,0,0,0-.42-.32,1.92,1.92,0,0,0-.25-.12l-.34-.11.08,0A5.88,5.88,0,0,0,98.54,1l-1,0-.35,0-.5.05-.55.09a3.41,3.41,0,0,0-.46.1c-.34.07-.67.16-1,.25l.09,0c-.48.15-1,.3-1.42.48s-1,.37-1.48.58c-1,.42-2,.87-3,1.33S87,4.83,86.08,5.32s-1.83,1-2.76,1.42c-.72.34-1.45.68-2.16,1s-1.42.71-2.11,1.09S77.7,9.61,77,10c-.53.28-1.06.55-1.57.85l.07,0a4.43,4.43,0,0,1-.63.36.27.27,0,0,1-.32-.08.27.27,0,0,1,.05-.38c.12-.09.26-.16.39-.24h0l.66-.38c.38-.22.76-.41,1.14-.62.84-.46,1.67-.94,2.52-1.4l1.31-.68c.45-.23.91-.43,1.36-.65.93-.44,1.85-.9,2.76-1.37l1.37-.75c.5-.27,1-.52,1.51-.78.9-.45,1.82-.89,2.75-1.29s2-.87,3-1.24c.51-.18,1-.35,1.54-.49l.79-.2q.44-.09.87-.15c.23,0,.46,0,.68-.08l.78,0a10,10,0,0,1,1.34,0,3.11,3.11,0,0,1,.91.28,2.49,2.49,0,0,1,.76.57,2.34,2.34,0,0,1,.42.65,3.39,3.39,0,0,1,.25.78,3.79,3.79,0,0,1,0,.83c0,.13,0,.27,0,.4a6.74,6.74,0,0,1-.16.78,3.94,3.94,0,0,1-.25.68,3,3,0,0,1-.56.77,5.6,5.6,0,0,1-.69.6c-.21.16-.43.3-.65.44a13.5,13.5,0,0,1-1.34.75A25.91,25.91,0,0,1,95.16,9c-.73.23-1.46.43-2.2.62l-2.1.57-2.23.58-2,.52c-.53.16-1,.32-1.55.51a8.65,8.65,0,0,0-1.34.64c-.15.1-.3.2-.45.32a5.22,5.22,0,0,0-.43.39,11.24,11.24,0,0,0-1.5,2.05l.06-.11c-.24.42-.48.85-.7,1.28s-.41.89-.6,1.35-.37.94-.58,1.4a15.49,15.49,0,0,1-.71,1.41A10.82,10.82,0,0,1,78,21.84c-.32.42-.65.83-1,1.24-.71.84-1.41,1.66-2.16,2.47a3.83,3.83,0,0,1-.29.28l-.23.24c-.21.18-.41.37-.63.55-.43.36-.87.7-1.32,1-.85.63-1.76,1.2-2.67,1.75a56.94,56.94,0,0,1-5.7,3c-1,.46-2,.87-3,1.27s-2,.75-3.06,1.05a30.18,30.18,0,0,1-3.15.78c-1.06.2-2.14.38-3.21.54-2.15.34-4.29.66-6.46.83-.55,0-1.1.06-1.65.07s-1.07,0-1.6,0l-.68-.07-.8-.1c-.53-.07-1-.15-1.58-.25s-1-.19-1.49-.3l-1.51-.32c-1-.23-2-.48-3-.68-.51-.11-1-.21-1.54-.3s-1.05-.17-1.58-.22c-1.06-.09-2.14-.13-3.21-.12h.13l-.68,0-.85.09c-.55.07-1.09.17-1.64.26-1.05.17-2.11.37-3.16.53s-2,.32-3.05.5-2.16.43-3.23.69-2.1.52-3.15.79c-.51.12-1,.23-1.52.32a12.11,12.11,0,0,1-1.58.17H7Z"/><rect class="cls-2" width="102.03" height="38.12"/></g></g></g></g></svg>