<svg xmlns="http://www.w3.org/2000/svg" xmlns:xlink="http://www.w3.org/1999/xlink" viewBox="0 0 75.25 26.26"><defs><style>.cls-1{fill:none;}.cls-2{clip-path:url(#clip-path);}.cls-3{fill:#7b5240;}</style><clipPath id="clip-path" transform="translate(-0.25 -0.27)"><rect class="cls-1" width="75.79" height="26.78"/></clipPath></defs><g id="Layer_2" data-name="Layer 2"><g id="Elf_Ears" data-name="Elf Ears"><g class="cls-2"><path class="cls-3" d="M62.65,23.23l.12-.05Zm-.26.06h0Zm1.4,3.16a5.05,5.05,0,0,1-1.5-.57c-.42-.23-.93-.57-1-1.08a1.31,1.31,0,0,1,.12-.95,1.28,1.28,0,0,1,.74-.57.94.94,0,0,1,.44,0l.28-.18a7.5,7.5,0,0,0,.9-1A19.15,19.15,0,0,0,65,20.25c0-.17.09-.35.13-.53s.07-.33.11-.49a2.08,2.08,0,0,1-.24-.34,3.22,3.22,0,0,1-.16-2.6q.08-.4.18-.81c.17-.64.35-1.27.54-1.91a17.72,17.72,0,0,1,.74-1.92.39.39,0,0,1-.3-.07h0a.45.45,0,0,1-.22-.4c0-.42.29-.79.53-1.11s.45-.53.69-.78a18.47,18.47,0,0,1,1.84-1.58,14.21,14.21,0,0,1,1.73-1.12c.59-.34,1.18-.68,1.8-1,.26-.13.52-.24.78-.38a4.63,4.63,0,0,1,.78-.37,1.22,1.22,0,0,1,1.21.36,1.53,1.53,0,0,1,.35,1.3,8.45,8.45,0,0,1-.26,1.33C74.84,9.24,74.41,10.61,74,12s-.9,2.68-1.32,4-.85,2.66-1.38,4a19.41,19.41,0,0,1-1,2.16,10.36,10.36,0,0,1-1.33,1.82,10.25,10.25,0,0,1-1.49,1.38,7.89,7.89,0,0,1-1,.7,5.67,5.67,0,0,1-1.12.44,2.88,2.88,0,0,1-.65.07A6.25,6.25,0,0,1,63.79,26.45Z" transform="translate(-0.25 -0.27)"/><path class="cls-3" d="M13.62,24.42A11.76,11.76,0,0,1,12,24.28,3.66,3.66,0,0,1,11,24a8.22,8.22,0,0,1-1-.45,10.15,10.15,0,0,1-2-1.42,9.68,9.68,0,0,1-1.61-2,15.36,15.36,0,0,1-.85-1.48A54.05,54.05,0,0,1,2.86,11.8c-.25-.75-.52-1.49-.77-2.24S1.68,8.2,1.51,7.51s-.32-1.4-.45-2.1C1,5,.92,4.49.86,4c0-.17,0-.34,0-.52a2.1,2.1,0,0,1,.54-1.62,1.68,1.68,0,0,1,2-.26A1.59,1.59,0,0,1,4,2.22l0,0,.27.34c.27.34.54.67.8,1s.61.81.9,1.22.64.86.94,1.3a5.16,5.16,0,0,1,.4.63,1.92,1.92,0,0,1,.19.7A.73.73,0,0,1,7,8.15l-.21,0A1.05,1.05,0,0,1,6.26,8a1.66,1.66,0,0,1-.32-.22c-.17-.13-.34-.26-.5-.4.16.6.33,1.2.53,1.79.75,2.26,1.4,4.55,2.2,6.8.09.25.18.49.28.73a14.71,14.71,0,0,0,1.44,2.57,6.6,6.6,0,0,0,.71.69,8,8,0,0,0,1.33.76,11.05,11.05,0,0,0,2.11.53,1.67,1.67,0,0,1,.72.41,1.65,1.65,0,0,1,.46,1.14,1.62,1.62,0,0,1-1.58,1.6Z" transform="translate(-0.25 -0.27)"/><path class="cls-3" d="M8.33,9.85l-.05-.06.21.27ZM6.4,11.78c-.21-.33-.41-.67-.61-1a5.28,5.28,0,0,1-.5-.82c-.15-.26-.32-.52-.45-.8-.3-.49-.58-1-.91-1.48a1,1,0,1,1,1.91-.81c0,.05,0,.09,0,.13l.21.44a1.31,1.31,0,0,1,.5.28A7.63,7.63,0,0,1,7.65,9l.54.71,0,0,.17.21.43.56a1.28,1.28,0,0,1,.13,1.05,1.36,1.36,0,0,1-1.3,1A1.4,1.4,0,0,1,6.4,11.78Z" transform="translate(-0.25 -0.27)"/><path class="cls-3" d="M10.19,24.57a5.35,5.35,0,0,1-1.33-.45,5,5,0,0,1-.74-.44,10.29,10.29,0,0,1-1.54-1.33,26.53,26.53,0,0,1-2.58-3,12.67,12.67,0,0,1-1.66-3.89,29.05,29.05,0,0,1-.76-4q-.24-2-.36-4.05c0-.69-.07-1.37-.07-2.07a8.4,8.4,0,0,1,.07-1c0-.3.07-.61.14-.91a.69.69,0,0,1,1-.56.68.68,0,0,1,.27.85v0c.19,1,.54,2,.8,3S4,9,4.32,10.17s.45,2.13.76,3.18a30.36,30.36,0,0,0,1,3.06,8.62,8.62,0,0,0,.41.8,7.06,7.06,0,0,0,.48.73,9.64,9.64,0,0,0,1.34,1.37c.38.27.77.51,1.16.74s.68.4,1,.57l.71.23a2,2,0,0,1,1.34,2.37,1.92,1.92,0,0,1-.88,1.15l-.46.2a1.93,1.93,0,0,1-1,0Z" transform="translate(-0.25 -0.27)"/><path class="cls-3" d="M10.71,25.9a6.48,6.48,0,0,1-.77-.1,6.8,6.8,0,0,1-.75-.18,9,9,0,0,1-1-.41,3.5,3.5,0,0,1-.62-.37A12.06,12.06,0,0,1,6,23.58,12.6,12.6,0,0,1,4.75,22,18.74,18.74,0,0,1,1.89,15.9a29.06,29.06,0,0,1-1-6.69c0-.55,0-1.11,0-1.67S.75,6.46.71,5.91C.63,4.82.46,3.73.39,2.63a2.42,2.42,0,0,1,.11-1A2,2,0,0,1,.94,1,2.29,2.29,0,0,1,1.3.67,1.1,1.1,0,0,1,2.62.8,1.39,1.39,0,0,1,3,1.71,1.22,1.22,0,0,1,3,2a1.82,1.82,0,0,0,0,.33c.1.65.22,1.29.32,1.94.13.82.23,1.64.29,2.47s0,1.41.08,2.12.09,1.29.17,1.93A27.53,27.53,0,0,0,5.34,17,17.15,17.15,0,0,0,7,20a8.08,8.08,0,0,0,1,1.09,7.66,7.66,0,0,0,1,.61c.36.13.73.24,1.11.34s1,.19,1.41.34a1.82,1.82,0,0,1,1.31,1.73,1.79,1.79,0,0,1-1.31,1.73,4.92,4.92,0,0,1-.76.09Z" transform="translate(-0.25 -0.27)"/><path class="cls-3" d="M65.15,24l.07,0-.08,0Zm1.36-12.37h0ZM64,24.14a1.52,1.52,0,0,1-.72-.38,3,3,0,0,1-.28-.33,1.2,1.2,0,0,1-.2-.41,1.74,1.74,0,0,1-.06-.74s0-.07,0-.11c0-.21,0-.42,0-.63a11.08,11.08,0,0,1,.15-1.82,12,12,0,0,1,.29-1.45c.13-.5.3-1,.46-1.46.32-1,.61-2,1-2.95a13.3,13.3,0,0,1,.69-1.6,4.19,4.19,0,0,1,.34-.58,2.58,2.58,0,0,1,.6-.71v0a.42.42,0,0,1,.65.21,2.3,2.3,0,0,1,0,1c0,.31-.11.62-.17.92-.11.59-.2,1.18-.3,1.77-.19,1.15-.38,2.3-.5,3.46,0,.66-.07,1.33-.09,2,0,.37,0,.73,0,1.09,0,.13,0,.26,0,.39l.07.15a1.76,1.76,0,0,1,.05.91,1.73,1.73,0,0,1-.39.76c-.07.07-.37.29-.39.31a1.62,1.62,0,0,1-.81.23A1.14,1.14,0,0,1,64,24.14Z" transform="translate(-0.25 -0.27)"/><path class="cls-3" d="M64.2,20s0-.07,0-.11Zm-2.29,3.9Zm.52.12Zm-.64.19Zm.42,1.55A2.7,2.7,0,0,1,61,23.94a12.51,12.51,0,0,1-.24-2.11c0-.42,0-.84,0-1.25s0-.82,0-1.23l.06-.82a17.86,17.86,0,0,1,.27-2.06,8,8,0,0,1,.69-1.9,11,11,0,0,1,2.52-3.12c.32-.3.66-.59,1-.87l.16-.16a2.87,2.87,0,0,1,1.07-.77,3.37,3.37,0,0,1,.32-.19,4,4,0,0,1,.7-.45c.2-.1.41-.21.64-.31l.08-.06a2.13,2.13,0,0,1,.57-.33,1.59,1.59,0,0,1,1.19.09,1.39,1.39,0,0,1,.72.87,1.52,1.52,0,0,1,0,.82,1.69,1.69,0,0,1-.4.76,1.67,1.67,0,0,1-.25.28c-.32.3-.65.59-1,.87-.51.44-1,.91-1.52,1.36l-.1.09c-.18.32-.36.64-.55,1-.29.49-.56,1-.84,1.49s-.57,1-.84,1.51a28.88,28.88,0,0,0-1.19,2.75l-.18.48c0,.41,0,.82,0,1.23s0,.83.09,1.25.17.57.26.86a1.8,1.8,0,0,1,0,.89,1.42,1.42,0,0,1-.33.63,1.51,1.51,0,0,1-.62.4A1.18,1.18,0,0,1,63,26,1.79,1.79,0,0,1,62.21,25.79Z" transform="translate(-0.25 -0.27)"/><path class="cls-3" d="M1.82.88ZM6.67,5.25l0,0ZM5,6.38l0,0Zm.66.6Zm2.63,7.55a1.16,1.16,0,0,1-.57-.88c-.07-.31-.13-.61-.19-.91-.15-.69-.35-1.36-.55-2s-.36-1.31-.59-1.95c-.11-.29-.22-.59-.34-.88s-.2-.34-.32-.51C5.48,7,5.25,6.72,5,6.42c-.47-.54-1-1-1.43-1.57A10,10,0,0,1,3,4.05c-.21-.3-.4-.61-.6-.91s-.41-.55-.58-.85l-.06-.1L1.5,2h0L1.37,2a.82.82,0,0,1-.59-.36L.7,1.46a.77.77,0,0,1,0-.4A.92.92,0,0,1,1,.6.76.76,0,0,1,1.69.52L2,.62h.08a.25.25,0,0,1,.22.11L2.67,1l.71.52A16.59,16.59,0,0,1,4.82,2.78a22.09,22.09,0,0,1,1.51,1.7L6.82,5c.13.15.25.29.36.44a1.07,1.07,0,0,1,.17.8.9.9,0,0,1-.11.27.35.35,0,0,1-.07.12c.25.46.49.93.71,1.4s.36.85.52,1.28.32.93.45,1.4.25.92.38,1.38c0,.18.09.35.13.53s.1.26.14.4a1.42,1.42,0,0,1,.07.22,1.89,1.89,0,0,1,0,.23,1,1,0,0,1,0,.47h0v0h0l0,.09h0a.64.64,0,0,1-.13.19.9.9,0,0,1-.69.3A1,1,0,0,1,8.26,14.53Z" transform="translate(-0.25 -0.27)"/><path class="cls-3" d="M.85,4a1.17,1.17,0,0,1-.27-.42,2.17,2.17,0,0,1-.07-.24,6.41,6.41,0,0,1-.16-.76,8,8,0,0,1-.1-.84V1.51a1.82,1.82,0,0,1,.06-.46A1.07,1.07,0,0,1,.56.58,1,1,0,0,1,1,.32a1.07,1.07,0,0,1,.56,0,.88.88,0,0,1,.28.12c.12.08.23.17.34.26.26.2.51.41.76.64a7.12,7.12,0,0,1,.85,1,.75.75,0,0,1-.08.91.75.75,0,0,1-1.05,0c-.17-.19-.33-.39-.5-.57a2.72,2.72,0,0,1,0,.9h0a.44.44,0,0,1-.07.19.82.82,0,0,1-.45.39,1,1,0,0,1-.25,0A.71.71,0,0,1,.85,4Z" transform="translate(-0.25 -0.27)"/><path class="cls-3" d="M10,15.82h0s0,0,0,.07ZM6,7.43H6v0Zm2.5,10.11a5.65,5.65,0,0,1-.11-.7c0-.29-.08-.59-.12-.87,0-.09,0-.18,0-.26a.89.89,0,0,1-.71-.42,1.11,1.11,0,0,1-.17-.56,1.09,1.09,0,0,1,0-.18c0-.26,0-.52,0-.78,0-.64,0-1.29-.07-1.94q0-.72-.12-1.44c-.15-.49-.3-1-.48-1.46A15.67,15.67,0,0,0,6,7.47a.93.93,0,0,1,0,.1L6,7.44l0-.1,0,.09c-.1-.22-.21-.44-.33-.65l-.17-.31-.07-.12a1.27,1.27,0,0,1-.17-.53,1,1,0,0,1,.1-.48.93.93,0,0,1,.55-.46A.94.94,0,0,1,7,5.26,14.63,14.63,0,0,1,8.31,7.81a15.59,15.59,0,0,1,.8,2.68,27.61,27.61,0,0,1,.51,2.86c.11.82.19,1.64.33,2.46v0L10,16s0-.08,0-.12c0,.23.1.45.15.67a3.1,3.1,0,0,1,.1.68.75.75,0,0,1-.1.44.85.85,0,0,1-.5.43,1.09,1.09,0,0,1-.26,0A.88.88,0,0,1,8.51,17.54Z" transform="translate(-0.25 -0.27)"/></g></g></g></svg>