<svg xmlns="http://www.w3.org/2000/svg" xmlns:xlink="http://www.w3.org/1999/xlink" viewBox="0 0 47.42 12.56"><defs><style>.cls-1{fill:none;}.cls-2{clip-path:url(#clip-path);}.cls-3{clip-path:url(#clip-path-2);}.cls-4,.cls-5,.cls-6{fill:#582020;}.cls-4{opacity:0.4;}.cls-5{opacity:0.4;}.cls-7{clip-path:url(#clip-path-3);}.cls-8{opacity:0.4;}</style><clipPath id="clip-path" transform="translate(-0.29 -0.25)"><rect class="cls-1" width="47.99" height="13.06"/></clipPath><clipPath id="clip-path-2" transform="translate(-0.29 -0.25)"><rect class="cls-1" y="1.98" width="47.1" height="11.09"/></clipPath><clipPath id="clip-path-3" transform="translate(-0.29 -0.25)"><rect class="cls-1" x="7.61" width="40.38" height="9.65"/></clipPath></defs><g id="Layer_2" data-name="Layer 2"><g id="Eyes"><g class="cls-2"><g class="cls-3"><path class="cls-4" d="M14.41,9.67h-.26l-.24,0a4.44,4.44,0,0,1-1.05-.12,4.27,4.27,0,0,1-.61-.18A3.47,3.47,0,0,1,11.49,9,3.68,3.68,0,0,1,11,8.65a6.57,6.57,0,0,1-.59-.52,4.34,4.34,0,0,1-.52-.62,4.14,4.14,0,0,1-.3-.5l-.11-.2A4.08,4.08,0,0,1,8.9,5.37a2.29,2.29,0,0,1,0-.37l0-.12v0a2.33,2.33,0,0,1,0-.37A2.58,2.58,0,0,1,9.5,3.08a2.4,2.4,0,0,1,.42-.46,1.34,1.34,0,0,1,.34-.27,1.18,1.18,0,0,1,.25-.1l.13,0h0a.71.71,0,0,1,.22,0l.13,0a.57.57,0,0,1,.09.93L11,3.3a3.68,3.68,0,0,0-.23.44,2,2,0,0,0-.09.35c0,.21,0,.42,0,.62s.07.27.11.39a5.26,5.26,0,0,0,.38.65,6.34,6.34,0,0,0,.41.6,6.1,6.1,0,0,0,.87.89,6.37,6.37,0,0,0,1.3.71l-.18,0,.22.06.42.14a4.38,4.38,0,0,0,.63.12,3.78,3.78,0,0,0,.47.06,8.14,8.14,0,0,0,.85-.08A3.66,3.66,0,0,0,16.87,8c.11-.15.2-.22.31-.23a2.62,2.62,0,0,1,.31,0l.12,0a.18.18,0,0,1,.11,0,.43.43,0,0,1,.43.32.5.5,0,0,1-.26.56l-.1,0h0l-.13.07-.1.08-.12.07a3.1,3.1,0,0,1-.86.41l-.16,0-.36.11-.31,0-.18,0h-.11A7.6,7.6,0,0,1,14.41,9.67Z" transform="translate(-0.29 -0.25)"/><path class="cls-5" d="M41.86,10l.22,0a4.57,4.57,0,0,0,1-.11,3.86,3.86,0,0,0,.58-.17,3.89,3.89,0,0,0,.72-.3,3.3,3.3,0,0,0,.49-.34l.56-.48A5.47,5.47,0,0,0,45.92,8a5.11,5.11,0,0,0,.28-.46l.11-.19A4,4,0,0,0,46.84,6c0-.12,0-.23,0-.35l0-.11v0a1.39,1.39,0,0,0,0-.35,3.56,3.56,0,0,0-.06-.44,2.69,2.69,0,0,0-.44-.9,2.11,2.11,0,0,0-.4-.43,1.4,1.4,0,0,0-.32-.25,1.1,1.1,0,0,0-.24-.09l-.12,0a.62.62,0,0,0-.21,0,.33.33,0,0,0-.12.05.55.55,0,0,0-.28.46.59.59,0,0,0,.18.41l.09.07a3,3,0,0,1,.21.4,2,2,0,0,1,.09.33,5.61,5.61,0,0,1,0,.58c0,.12-.06.25-.1.37a5.51,5.51,0,0,1-.37.61c-.12.19-.25.37-.38.55a6.51,6.51,0,0,1-.83.83,6.34,6.34,0,0,1-1.24.67l.18,0-.21,0-.4.13a4,4,0,0,1-.6.12l-.45.05c-.26,0-.53,0-.81-.07a4.33,4.33,0,0,1-.67-.16A.47.47,0,0,0,39,8.3l-.3,0h-.11l-.1,0a.41.41,0,0,0-.41.31.48.48,0,0,0,.24.52l.1,0h0l.12.07.1.07.12.07a3.13,3.13,0,0,0,.8.39l.16,0a2.19,2.19,0,0,0,.34.1l.3,0a.86.86,0,0,0,.17,0l.11,0a6.75,6.75,0,0,0,1,.09Z" transform="translate(-0.29 -0.25)"/><path class="cls-6" d="M.31,12.68a.25.25,0,0,1,.11-.33.76.76,0,0,1,.21-.08l.17,0a.26.26,0,0,1,.3.19.25.25,0,0,1-.18.3l-.26.07h0a.2.2,0,0,1-.11,0A.28.28,0,0,1,.31,12.68Z" transform="translate(-0.29 -0.25)"/></g><g class="cls-7"><path d="M38.42,8.89a2.23,2.23,0,0,1-1.8-1.36,2.11,2.11,0,0,1-.1-.5,1.83,1.83,0,0,1,0-.33,2.08,2.08,0,0,1,.22-1,3.43,3.43,0,0,1,.51-.77,3.24,3.24,0,0,1,.36-.38A3.33,3.33,0,0,1,38,4.16,6.47,6.47,0,0,1,39.4,3.11a5,5,0,0,1,1.07-.43,5.14,5.14,0,0,1,1.46-.15,4.6,4.6,0,0,1,2,.57,3,3,0,0,1,.68.58,2,2,0,0,1,.41,1,2.37,2.37,0,0,1,0,.47,2.47,2.47,0,0,1-.06.29,3,3,0,0,1-.34.72,5.08,5.08,0,0,1-1.46,1.38,7.82,7.82,0,0,1-1.5.76,9,9,0,0,1-1,.42A4.83,4.83,0,0,1,39.53,9l-.38,0A3.47,3.47,0,0,1,38.42,8.89Z" transform="translate(-0.29 -0.25)"/><path d="M42.63,3.93V4s0,0,0,0S42.63,3.92,42.63,3.93ZM37.21,8.19a1.85,1.85,0,0,1-.6-.71,1.81,1.81,0,0,1-.11-1.1,2.19,2.19,0,0,1,.21-.59,2.9,2.9,0,0,1,.2-.33,6.66,6.66,0,0,1,1.54-1.55A5.25,5.25,0,0,1,40.55,3,5.1,5.1,0,0,1,42.11,3c.18,0,.36,0,.54.09s.48.11.72.17l.13,0a.5.5,0,0,1,.08.92.76.76,0,0,1-.64.05.52.52,0,0,1-.19-.12l-.18,0a6,6,0,0,0-1,.08,5.27,5.27,0,0,0-.82.28,5.88,5.88,0,0,0-.72.46,5.51,5.51,0,0,0-.67.7,3.73,3.73,0,0,0-.37.6,2.3,2.3,0,0,0-.06.28v0l0,.07.08.12a.88.88,0,0,1,.23.52A1,1,0,0,1,39,8a1.38,1.38,0,0,1-.86.38H38A1.53,1.53,0,0,1,37.21,8.19Z" transform="translate(-0.29 -0.25)"/><path d="M40.69,4.75,40.11,5a6.45,6.45,0,0,0-.76.47,3.76,3.76,0,0,0-.35.34c0,.08-.1.15-.14.23s0,.07,0,.1,0,.09,0,.13l0,.1h0l.18.12a5.54,5.54,0,0,0,.68.25,5.4,5.4,0,0,0,.6.09l.44,0,.5-.17a8.06,8.06,0,0,0,1.15-.74,3.3,3.3,0,0,0,.38-.37.75.75,0,0,0,.07-.12A1.09,1.09,0,0,0,43,5.2c0-.06-.05-.11-.07-.16l-.17-.22-.16-.11-.22-.08-.3,0A8.6,8.6,0,0,0,40.69,4.75ZM38.91,9.3A5.11,5.11,0,0,1,37,8.57a5.68,5.68,0,0,1-.59-.49A2.36,2.36,0,0,1,36,7.44a1.4,1.4,0,0,1-.14-.37,3.91,3.91,0,0,1-.14-.82,2.66,2.66,0,0,1,.47-1.62,5,5,0,0,1,1-1.06c.23-.19.46-.37.71-.54a6.5,6.5,0,0,1,.95-.48,5.9,5.9,0,0,1,2.55-.4,4.11,4.11,0,0,1,.78-.07,4.9,4.9,0,0,1,.94.07l.63.14a4,4,0,0,1,.62.18,5.12,5.12,0,0,1,.57.3,1,1,0,0,1,.23.18,2.6,2.6,0,0,1,.46.48,2.67,2.67,0,0,1,.5,1.4,3.9,3.9,0,0,1-1.24,2.63,5,5,0,0,1-1.2.92A8.25,8.25,0,0,1,42.28,9a4.54,4.54,0,0,1-.63.18,10.23,10.23,0,0,1-1.08.2h-.08L40,9.4A6.36,6.36,0,0,1,38.91,9.3Z" transform="translate(-0.29 -0.25)"/><path d="M39.57,3.44a.3.3,0,0,1-.2-.24.31.31,0,0,1,.16-.27,2.59,2.59,0,0,1,1.12-.53,5.65,5.65,0,0,1,1.08-.17,17.34,17.34,0,0,1,1.91,0,10.67,10.67,0,0,0,1.88-.13,5.89,5.89,0,0,0,.95-.32l0,0h0a1.37,1.37,0,0,0,.2-.13,3.33,3.33,0,0,0,.39-.36,2.11,2.11,0,0,1,.19-.23.08.08,0,0,1,0,0A.25.25,0,0,1,47.59,1a.15.15,0,0,1,.09.23l-.09.18a2,2,0,0,1-.16.24,2.71,2.71,0,0,1-.59.63A4.46,4.46,0,0,1,45.19,3a6.2,6.2,0,0,1-1,.16,11.3,11.3,0,0,1-1.16,0l-1.72-.06h.14a6.58,6.58,0,0,0-1.17.08l-.27.08s0,.05-.06.08a.39.39,0,0,1-.28.11A.32.32,0,0,1,39.57,3.44Z" transform="translate(-0.29 -0.25)"/><path d="M16.06,8.51a4.31,4.31,0,0,1-1.13-.25,6.81,6.81,0,0,1-1-.42,7.51,7.51,0,0,1-1.5-.75A5,5,0,0,1,11,5.7,3.13,3.13,0,0,1,10.67,5a2.29,2.29,0,0,1-.07-.28,1.83,1.83,0,0,1,0-.47,1.88,1.88,0,0,1,.4-1,2.6,2.6,0,0,1,.69-.58,4.31,4.31,0,0,1,2-.57,4.87,4.87,0,0,1,1.47.15,5.21,5.21,0,0,1,1.07.43,6.39,6.39,0,0,1,1.41,1l.36.38c.12.12.25.25.36.38a3.43,3.43,0,0,1,.51.77,2.24,2.24,0,0,1,.22,1,1.9,1.9,0,0,1,0,.34,1.53,1.53,0,0,1-.1.5,2.24,2.24,0,0,1-1.79,1.36,4.3,4.3,0,0,1-.73.07Z" transform="translate(-0.29 -0.25)"/><path d="M13,3.52l0,0v0S13,3.5,13,3.52ZM17.45,8a1.42,1.42,0,0,1-.87-.39,1,1,0,0,1-.3-.79,1,1,0,0,1,.22-.53l.09-.12,0-.07v0a1.43,1.43,0,0,0-.07-.28,3.67,3.67,0,0,0-.36-.6,6.31,6.31,0,0,0-.67-.7A5.88,5.88,0,0,0,14.8,4,5.66,5.66,0,0,0,14,3.73a6,6,0,0,0-1-.08l-.18,0a.63.63,0,0,1-.2.13A.77.77,0,0,1,12,3.74a.51.51,0,0,1,.21-1A5.83,5.83,0,0,1,13,2.61l.54-.08a4.82,4.82,0,0,1,1.56.06,5.39,5.39,0,0,1,2.1.89A6.66,6.66,0,0,1,18.69,5a1.77,1.77,0,0,1,.19.33A2.1,2.1,0,0,1,19.1,6,1.86,1.86,0,0,1,19,7a1.69,1.69,0,0,1-.59.71,1.52,1.52,0,0,1-.8.23Z" transform="translate(-0.29 -0.25)"/><path d="M13.27,4.2l-.22.07-.16.12-.17.22a.77.77,0,0,0-.07.16.94.94,0,0,0,0,.16l.08.13a3.34,3.34,0,0,0,.38.37,8,8,0,0,0,1.15.73,3,3,0,0,0,.5.17l.44,0a5.77,5.77,0,0,0,.6-.09A6.66,6.66,0,0,0,16.51,6l.19-.12.05-.11s0-.08,0-.12a.44.44,0,0,1,0-.1l-.14-.24c-.11-.12-.23-.23-.35-.34a5.3,5.3,0,0,0-.76-.46,4.07,4.07,0,0,0-.58-.22,7.56,7.56,0,0,0-1.34-.17Zm1.84,4.74H15A10.23,10.23,0,0,1,14,8.73c-.21-.05-.43-.1-.64-.17a8.28,8.28,0,0,1-1.39-.62A5.14,5.14,0,0,1,10.73,7,3.86,3.86,0,0,1,9.49,4.39,2.62,2.62,0,0,1,10,3a3,3,0,0,1,.46-.48,1,1,0,0,1,.23-.17,3.76,3.76,0,0,1,.56-.3,4.57,4.57,0,0,1,.63-.19l.63-.14a5.78,5.78,0,0,1,.94-.07,5.14,5.14,0,0,1,.78.07,6,6,0,0,1,2.54.4,6.62,6.62,0,0,1,1,.48c.25.17.48.36.71.54a4.94,4.94,0,0,1,.94,1.06,2.69,2.69,0,0,1,.48,1.62,3.8,3.8,0,0,1-.14.82,1.49,1.49,0,0,1-.14.37,2.22,2.22,0,0,1-.42.64,5.57,5.57,0,0,1-.59.5,5.1,5.1,0,0,1-1.87.72,5.46,5.46,0,0,1-1.07.1Z" transform="translate(-0.29 -0.25)"/><path d="M15.6,2.92a.22.22,0,0,1,0-.08l-.28-.08a6.46,6.46,0,0,0-1.17-.07h.14l-1.71.05a11.3,11.3,0,0,1-1.16,0,7.83,7.83,0,0,1-1-.15,4.67,4.67,0,0,1-1.64-.77,2.52,2.52,0,0,1-.59-.63A1.25,1.25,0,0,1,8,.92a1.51,1.51,0,0,0-.1-.17A.17.17,0,0,1,8,.51.23.23,0,0,1,8.29.6l0,0,.19.23c.12.13.25.25.38.37l.23.14a6.36,6.36,0,0,0,1,.32A10.63,10.63,0,0,0,12,1.83c.64,0,1.27-.08,1.91,0A6.4,6.4,0,0,1,14.94,2a2.53,2.53,0,0,1,1.12.53.29.29,0,0,1,.16.27A.31.31,0,0,1,16,3a.36.36,0,0,1-.14,0A.44.44,0,0,1,15.6,2.92Z" transform="translate(-0.29 -0.25)"/><path class="cls-8" d="M36.74,2.38l0,0S36.75,2.37,36.74,2.38ZM36,2.71a.36.36,0,0,1-.17-.21.37.37,0,0,1,.1-.36,2.9,2.9,0,0,1,.56-.49,3.65,3.65,0,0,1,.9-.46,4.73,4.73,0,0,1,1-.3A5.8,5.8,0,0,1,39.5.76a2.16,2.16,0,0,1,.44,0,1.45,1.45,0,0,1,.35.07.35.35,0,0,1,.25.32.34.34,0,0,1-.25.33,12.85,12.85,0,0,1-1.52.17c-.21,0-.43.07-.64.12a6.46,6.46,0,0,0-.78.25,3.63,3.63,0,0,0-.64.36l-.17.16,0,0a.36.36,0,0,1-.32.18A.41.41,0,0,1,36,2.71Z" transform="translate(-0.29 -0.25)"/><path class="cls-8" d="M19.08,2.13l0,0a1.21,1.21,0,0,0-.16-.16,3.13,3.13,0,0,0-.6-.37,5,5,0,0,0-.74-.25c-.2-.05-.4-.1-.6-.13A11.56,11.56,0,0,1,15.52,1a.33.33,0,0,1-.23-.33.36.36,0,0,1,.23-.33,1.28,1.28,0,0,1,.34-.07,2.73,2.73,0,0,1,.41,0,6,6,0,0,1,1,.14,4.58,4.58,0,0,1,.93.3,3.85,3.85,0,0,1,.84.47,4.34,4.34,0,0,1,.54.51.41.41,0,0,1,.09.37.45.45,0,0,1-.16.22.28.28,0,0,1-.17.05A.35.35,0,0,1,19.08,2.13Z" transform="translate(-0.29 -0.25)"/></g></g></g></g></svg>