<svg xmlns="http://www.w3.org/2000/svg" xmlns:xlink="http://www.w3.org/1999/xlink" viewBox="0 0 75.83 23.49"><defs><style>.cls-1{fill:none;}.cls-2{clip-path:url(#clip-path);}.cls-3{fill:#7b5240;}</style><clipPath id="clip-path" transform="translate(-0.36 -0.28)"><rect class="cls-1" width="76.45" height="24.02"/></clipPath></defs><g id="Layer_2" data-name="Layer 2"><g id="Human_Ears" data-name="Human Ears"><g class="cls-2"><path class="cls-3" d="M11.05,23.76a5.42,5.42,0,0,1-1.32-.21,6.74,6.74,0,0,1-1.64-.8A11,11,0,0,1,5.36,20.4c-.66-.83-1.25-1.7-1.9-2.53A14.93,14.93,0,0,1,2.27,16,16.68,16.68,0,0,1,1,13.37a11,11,0,0,1-.5-5.22c.1-.86.23-1.7.39-2.54a11.25,11.25,0,0,1,.82-2.52,5.2,5.2,0,0,1,1-1.47A3.84,3.84,0,0,1,4.13.73,3.45,3.45,0,0,1,5.82.64,2.32,2.32,0,0,1,7,1.26a2.69,2.69,0,0,1,.63.93,2,2,0,0,1,.11.63.76.76,0,0,1-.85,1.1,1.1,1.1,0,0,1,0,.18l.28.23a3.2,3.2,0,0,1,.69,1.39c.09.26.2.51.31.77.4.94.73,1.92,1.11,2.87A28.07,28.07,0,0,0,10.61,12c.5.87,1.07,1.71,1.64,2.55s1.1,1.6,1.59,2.44a10.79,10.79,0,0,1,.94,2.15A7,7,0,0,1,15,20.31a4.52,4.52,0,0,1-.12,1.1,2.56,2.56,0,0,1-.38.88,3.36,3.36,0,0,1-1.05,1,3.27,3.27,0,0,1-1.86.44h-.51Z" transform="translate(-0.36 -0.28)"/><path class="cls-3" d="M62.76,21.65a2,2,0,0,1-.9-2.22,2,2,0,0,1,.6-.95l.31-.25a19.33,19.33,0,0,0,2.85-2.94l.54-.79a2.14,2.14,0,0,1-.46-.57,2.56,2.56,0,0,1-.25-1.88c.26-1.25.6-2.5.89-3.74.16-.67.3-1.35.48-2a.68.68,0,0,1-.75-1,12,12,0,0,1,.93-2,3.6,3.6,0,0,1,2.21-1.54,3,3,0,0,1,1.7.09,3.38,3.38,0,0,1,1.19.75,3.48,3.48,0,0,1,.7,1.07,8.81,8.81,0,0,1,.62,2.26,14.26,14.26,0,0,1,.2,2.44,11.1,11.1,0,0,1-.37,2.5,12.67,12.67,0,0,1-.84,2.3,19.1,19.1,0,0,1-1,2,16.47,16.47,0,0,1-1.69,2.31,21.18,21.18,0,0,1-1.57,1.72A13.38,13.38,0,0,1,66,21c-.39.26-.82.43-1.23.65a2.18,2.18,0,0,1-1,.26A1.88,1.88,0,0,1,62.76,21.65Z" transform="translate(-0.36 -0.28)"/><path class="cls-3" d="M63.43,22.86l-.11,0a1.92,1.92,0,0,1-.46-.21l-.34-.26a2.18,2.18,0,0,1-.26-.34,1.32,1.32,0,0,1,.21-1.58,4,4,0,0,1,1.25-.8c.41-.21.81-.43,1.21-.67.71-.43,1.42-.88,2.09-1.38a20.34,20.34,0,0,0,2.85-2.87,19.32,19.32,0,0,0,1.93-3.44c.22-.53.41-1.08.6-1.62a9.75,9.75,0,0,0,.38-1.38,12.43,12.43,0,0,0,0-2.2,7,7,0,0,0-.23-.9,7.83,7.83,0,0,0-.62-1,3.55,3.55,0,0,0-.33-.34l-.18-.11-.36-.1h-.15l-.11,0a2.63,2.63,0,0,0-.33.2,7.09,7.09,0,0,0-.77.78A6.64,6.64,0,0,0,69,5.7c-.21.59-.34,1.21-.56,1.8a1.72,1.72,0,0,1-.4.69,1.58,1.58,0,0,1-2.23,0,1.55,1.55,0,0,1-.46-1.11,8.14,8.14,0,0,1,1.41-4,8,8,0,0,1,1.27-1.46A4.83,4.83,0,0,1,70.35.36a4.72,4.72,0,0,1,1.59,0,4.87,4.87,0,0,1,1.23.38,4.54,4.54,0,0,1,1.07.69,4.84,4.84,0,0,1,.82.93A6.3,6.3,0,0,1,76,4.27a6.6,6.6,0,0,1,.21,1.32,6,6,0,0,1,0,1c0,.75-.16,1.5-.27,2.25a11.88,11.88,0,0,1-.33,1.55c-.15.61-.31,1.22-.51,1.82s-.55,1.39-.84,2.07A14.52,14.52,0,0,1,72,17.86a22.45,22.45,0,0,1-2.57,2.59,12.46,12.46,0,0,1-2.76,1.85,6.09,6.09,0,0,1-2.15.65h-.2A4.2,4.2,0,0,1,63.43,22.86Z" transform="translate(-0.36 -0.28)"/><path class="cls-3" d="M62.89,22.37a2.7,2.7,0,0,1-.93-.88,3.75,3.75,0,0,1-.52-1.91,9.05,9.05,0,0,1,.15-1.8c.08-.52.18-1,.27-1.55a35.67,35.67,0,0,1,.68-3.57l.09-.3A11.34,11.34,0,0,1,63,10.85,18,18,0,0,1,64.62,7c.23-.41.46-.81.71-1.2a3.81,3.81,0,0,1,1.06-1.23A1.76,1.76,0,0,1,69.1,6,3.67,3.67,0,0,1,69,7.05a10.7,10.7,0,0,1-.52,1.57c0,.07,0,.13-.07.19a1.92,1.92,0,0,1,0,.79A11.69,11.69,0,0,1,67,12.23l-.34.6q-.06.76-.09,1.53l0,1.43c0,.37,0,.75,0,1.12a.82.82,0,0,1,0,.22v0h0a1.14,1.14,0,0,1-.25.49l-.12.11v.33A7.48,7.48,0,0,1,66,20l-.06.23a2.66,2.66,0,0,1,0,.28,2,2,0,0,1-.91,1.83,2.11,2.11,0,0,1-1,.32h-.15A2.33,2.33,0,0,1,62.89,22.37Z" transform="translate(-0.36 -0.28)"/><path class="cls-3" d="M6.22,3.21l0-.07Zm1,6.18c0-.09-.05-.18-.07-.26S7,8.84,7,8.7,6.8,8.21,6.74,8A11.22,11.22,0,0,1,6.58,6l0-.16c-.09-.57-.17-1.14-.22-1.71,0-.37-.08-.74-.14-1.1l0-.12a1,1,0,0,1,0-.87.88.88,0,0,1,.75-.47,1.07,1.07,0,0,1,.53.13,1.09,1.09,0,0,1,.43.42A1.85,1.85,0,0,1,8,2.44,1.91,1.91,0,0,1,8,2.77a1.66,1.66,0,0,1,0,.22c.06.62.1,1.23.18,1.85s.21,1.48.31,2.23c0,.36.09.72.15,1.07l.08.56a2.34,2.34,0,0,1,0,.26.9.9,0,0,1-.09.56A.82.82,0,0,1,8,10H8A.85.85,0,0,1,7.19,9.39Z" transform="translate(-0.36 -0.28)"/></g></g></g></svg>