<svg xmlns="http://www.w3.org/2000/svg" xmlns:xlink="http://www.w3.org/1999/xlink" viewBox="0 0 12.96 4.61"><defs><style>.cls-1{fill:none;}.cls-2{clip-path:url(#clip-path);}</style><clipPath id="clip-path" transform="translate(-0.28 -0.27)"><rect class="cls-1" width="13.48" height="5.14"/></clipPath></defs><g id="Layer_2" data-name="Layer 2"><g id="Lipless_Pout" data-name="Lipless Pout"><g class="cls-2"><path d="M2.27,3.79h0Zm1.37,0h0Zm4-1.84h0Zm4-.3h0ZM3.42,3.21l0,0ZM.29,4.7a.24.24,0,0,1,.17-.3,13.93,13.93,0,0,0,1.79-.6l0,0,.33-.16.3-.13.29-.14.27-.17A1.71,1.71,0,0,1,3.6,3a.91.91,0,0,1,.31-.12,3.78,3.78,0,0,0,.43-.26c.26-.14.51-.3.76-.45L6.23,1.5C6.62,1.26,7,1,7.41.79A5.06,5.06,0,0,1,8.77.34a6,6,0,0,1,1.58,0,6,6,0,0,1,1.5.32,7,7,0,0,1,.74.33,2.22,2.22,0,0,1,.27.19,1.34,1.34,0,0,1,.26.27.5.5,0,0,1,.11.26.29.29,0,0,1-.08.22L13,2l-.19.11A.27.27,0,0,1,12.48,2a.27.27,0,0,1,0-.26c-.27-.06-.54-.09-.82-.13h0l-.12,0h.07c-.48-.06-.95-.09-1.43-.11a8.66,8.66,0,0,0-1.35.05,4.16,4.16,0,0,0-.59.13c-.22.07-.43.14-.64.23l.07,0-.08,0,0,0h0c-.46.19-.89.42-1.33.64s-.9.43-1.34.65c-.21.1-.41.21-.63.3s-.32.11-.48.17l.08,0-.24.1h0c-.13.06-.27.12-.39.19a6.52,6.52,0,0,1-.7.25c-.35.14-.69.28-1,.4s-.6.19-.91.27H.53A.24.24,0,0,1,.29,4.7Z" transform="translate(-0.28 -0.27)"/></g></g></g></svg>