<svg xmlns="http://www.w3.org/2000/svg" xmlns:xlink="http://www.w3.org/1999/xlink" viewBox="0 0 31.12 10.11"><defs><style>.cls-1{fill:none;}.cls-2{clip-path:url(#clip-path);}.cls-3{fill:#6c0000;opacity:0.86;}</style><clipPath id="clip-path" transform="translate(-0.27 -0.27)"><rect class="cls-1" width="31.66" height="10.64"/></clipPath></defs><g id="Layer_2" data-name="Layer 2"><g id="Lippy_Smile" data-name="Lippy Smile"><g class="cls-2"><path class="cls-3" d="M13.23,7.23h0Zm2.7,1.95a6.91,6.91,0,0,1-1.46-.47c-.33-.14-.67-.28-1-.45a2.48,2.48,0,0,1-.32-.17.48.48,0,0,1-.35-.58.47.47,0,0,1,.58-.33l.06,0a10.74,10.74,0,0,0,1.28-.26,9.78,9.78,0,0,1,1.61-.33l1.23-.09a2.17,2.17,0,0,1,.36,0,3.31,3.31,0,0,1,.54.06.77.77,0,0,1,.3.11h0a1.22,1.22,0,0,1,.65.45l.37,0a7.93,7.93,0,0,0,1,.08A.24.24,0,0,1,21,7.5a.23.23,0,0,1-.24.25h-.45a5.62,5.62,0,0,0-.58,0l-.09,0,0,0a1.14,1.14,0,0,1-.34.79l-.26.2a1.31,1.31,0,0,1-.27.19,2.34,2.34,0,0,1-.5.19,4.6,4.6,0,0,1-.73.11h-.42A6.75,6.75,0,0,1,15.93,9.18Z" transform="translate(-0.27 -0.27)"/><path class="cls-3" d="M20.46,7.13h0Zm0,.51H19.9l-.72-.06a13.07,13.07,0,0,1-1.52-.27A.32.32,0,0,1,17.43,7a.31.31,0,0,1,.32-.31,7.48,7.48,0,0,1,1.32.18c.46.09.92.19,1.38.25h.09a.26.26,0,0,1,.27.33.26.26,0,0,1-.25.19Z" transform="translate(-0.27 -0.27)"/><path class="cls-3" d="M15.25,7.23h0ZM12.91,8a.54.54,0,0,1-.21-.05.4.4,0,0,1-.17-.44.34.34,0,0,1,.06-.12h0l0,0,0,0h0a.46.46,0,0,1,.22-.14L13.12,7c.18-.11.35-.24.52-.34L14,6.46l0,0c.1-.07.2-.16.3-.22a2.24,2.24,0,0,1,.36-.14A.6.6,0,0,1,14.91,6L15,6l.49-.1a3,3,0,0,1,.43,0,11.5,11.5,0,0,1,1.31.07,7.72,7.72,0,0,1,1.49.3,8.65,8.65,0,0,1,1.21.52l.51.23a4.37,4.37,0,0,1,.49.23.25.25,0,0,1,.18.14.29.29,0,0,1,0,.31.32.32,0,0,1-.27.16.28.28,0,0,1-.13,0c-.32,0-.64,0-1-.09s-.84-.12-1.26-.18l-.68-.08a.78.78,0,0,1-.34,0l-.17,0c-.28,0-.57,0-.86-.05a8.51,8.51,0,0,0-1,0l-.46,0a1.83,1.83,0,0,0-.39.09,4.76,4.76,0,0,1-.69.29c-.12,0-.25.05-.38.1A1.45,1.45,0,0,1,13,8Z" transform="translate(-0.27 -0.27)"/><path class="cls-3" d="M11.9,8s0,0,0,0l0-.1h0Zm0,.19h0Zm0,0h0Zm0,.18s0-.07,0-.11A.43.43,0,0,0,11.9,8.35Zm2.84,1.93-.09,0-.23-.09A1.16,1.16,0,0,0,14,10H14l0,0-.16-.07h0l-.09-.06-.15-.06-.14-.1a2.54,2.54,0,0,0-.38-.16l-.11-.05.1,0-.16-.07h0l-.05,0h0l-.08-.06h0l-.12-.1a3.87,3.87,0,0,1-.45-.35A1.39,1.39,0,0,1,12,8.67a1,1,0,0,1-.1-.24,1.41,1.41,0,0,1,0-.28v0a.69.69,0,0,1,0-.24v0a.25.25,0,0,1,.19-.3.8.8,0,0,1,.51-.21h0a1.38,1.38,0,0,1,.61.1,6.46,6.46,0,0,1,.6.27l.19,0a4.3,4.3,0,0,0,.62,0c.33,0,.65,0,1,.05a10.07,10.07,0,0,0,1.9,0c.65-.11,1.29-.26,1.93-.4a5,5,0,0,0,.79-.18l0,0,.08,0a1.34,1.34,0,0,1,.24-.12.68.68,0,0,1,.2,0h0a.79.79,0,0,1,.78.59.88.88,0,0,1-.22.8l-.12.11a4.35,4.35,0,0,1-.72.49c-.39.21-.79.42-1.19.59a11.58,11.58,0,0,1-1.36.48,9.77,9.77,0,0,1-1.42.23,5.32,5.32,0,0,1-.69,0A6.62,6.62,0,0,1,14.74,10.28Z" transform="translate(-0.27 -0.27)"/><path class="cls-3" d="M11.92,8.35l-.31-.23A.42.42,0,0,0,11.47,8a.33.33,0,0,1-.11-.15.27.27,0,0,1,0-.2.26.26,0,0,1,.16-.11.22.22,0,0,1,.19,0,.51.51,0,0,1,.13.09l.32.22a.28.28,0,0,1,.11.15.27.27,0,0,1,0,.2.29.29,0,0,1-.23.12Z" transform="translate(-0.27 -0.27)"/><path class="cls-3" d="M13,8.16h0Zm0,.55a4.26,4.26,0,0,1-.88-.44A2.8,2.8,0,0,1,11.78,8l-.16-.14a.34.34,0,0,1-.09-.15.23.23,0,0,1,.06-.24.27.27,0,0,1,.19-.08.25.25,0,0,1,.23.15l.12.1c.12.09.24.18.37.26s.35.18.53.26h0l.15.06a.31.31,0,0,1,.16.11.27.27,0,0,1,0,.2.28.28,0,0,1-.11.15.31.31,0,0,1-.13,0Z" transform="translate(-0.27 -0.27)"/><path class="cls-3" d="M13.14,9l-.32-.11c-.09,0-.17-.08-.26-.12l-.18-.11-.08-.06-.15-.11c-.05,0-.11-.1-.16-.16a1.71,1.71,0,0,1-.18-.2,1,1,0,0,1-.18-.28.64.64,0,0,0,0-.07v0a.25.25,0,0,1,0-.17A.27.27,0,0,1,12,7.51a.25.25,0,0,1,.12.18,1.12,1.12,0,0,0,.2.18l-.06,0a4.07,4.07,0,0,0,.48.33l.65.32a.31.31,0,0,1,.14.34.32.32,0,0,1-.29.23Z" transform="translate(-0.27 -0.27)"/><path class="cls-3" d="M13.45,9.39a1.09,1.09,0,0,1-.26-.05,2.35,2.35,0,0,1-.37-.14A1.83,1.83,0,0,1,12.48,9a2.88,2.88,0,0,1-.43-.33,2.37,2.37,0,0,1-.29-.34l-.17-.25a.26.26,0,0,1-.05-.24.26.26,0,0,1,.25-.19h0a.27.27,0,0,1,.25.22c.13.09.27.17.41.25a3,3,0,0,0,.47.24c.23.1.46.2.69.32a.37.37,0,0,1-.17.69Z" transform="translate(-0.27 -0.27)"/><path class="cls-3" d="M12.06,8.15Zm.52.87c-.16-.11-.33-.22-.48-.34l-.27-.24a.93.93,0,0,1-.18-.34.38.38,0,0,1,.09-.34l.06,0,0,0a.27.27,0,0,1,.4.23s0,.05,0,.08l.06.06c.2.14.41.26.63.39A.32.32,0,0,1,13,8.9a.33.33,0,0,1-.28.17A.3.3,0,0,1,12.58,9Z" transform="translate(-0.27 -0.27)"/><path class="cls-3" d="M12.87,6.7l.08,0Zm6.74,1.61Zm.06,0h0Zm-.06,0,.11,0-.11,0h0Zm.57,0H20a1.84,1.84,0,0,1-.41,0A4.16,4.16,0,0,1,19,8.22c-.2,0-.39-.11-.57-.16a19.6,19.6,0,0,0-2.47-.77,6.64,6.64,0,0,0-.89,0h0a9.06,9.06,0,0,0-1,.34l.11,0c-.45.2-.89.42-1.32.65a1.13,1.13,0,0,1-.41.11h-.08a.88.88,0,0,1-.23,0,.55.55,0,0,1-.39-.52.66.66,0,0,1,.17-.41A.8.8,0,0,1,12,7.23a4.71,4.71,0,0,1,.51-.4l.13,0A3.29,3.29,0,0,0,13,6.63h0l-.06,0,.06,0,.06,0h0l.08,0,.2-.08.05,0c.27-.1.56-.18.85-.28A6.21,6.21,0,0,1,15,6l.59-.12.29,0h.23l.22,0h.36a4,4,0,0,1,.49,0l.31,0,.79.13L18,6,18.3,6l.21,0h0l.34.08.27,0,.21.08.16,0,.19,0,.19.08c.12.08.23.18.34.27s.19.13.28.21,0,0,.05.06h0a.72.72,0,0,1,.54.51.7.7,0,0,1-.18.69.69.69,0,0,1-.51.21A.83.83,0,0,1,20.18,8.36Z" transform="translate(-0.27 -0.27)"/><path class="cls-3" d="M20.8,6.81l-.07,0Zm-.13,1.47-.13,0-.28-.11-.06,0-.07,0-.89-.29-.5-.14c-.21-.05-.48-.06-.62-.23a.08.08,0,0,0,0,0l-.88-.24a.65.65,0,0,1,.09-1.28h.17l.79.13L18,6,18.3,6l.21,0h0l.34.08.27,0,.21.08.16,0,.19,0,.31.13a1.72,1.72,0,0,1,.21.07l-.11,0,.15,0,.22.11.08,0,.08,0,.12,0-.11,0,.2.09h0l.07,0,0,0,.05,0h0l.18.11a.92.92,0,0,1,.31.31.63.63,0,0,1,.09.33.71.71,0,0,1-.19.48.74.74,0,0,1-.3.17l-.17,0Z" transform="translate(-0.27 -0.27)"/><path class="cls-3" d="M11.75,7.79h0Zm0,.2h0Zm2.17,1.4-.39-.16A5,5,0,0,1,13,9l-.5-.31A4,4,0,0,0,12,8.41l-.41-.16-.16-.07-.09-.07a.27.27,0,0,1-.08-.19.27.27,0,0,1,.19-.26h.08a.25.25,0,0,1,.23.13l.55.22a6.27,6.27,0,0,1,.58.29c.17.11.34.23.51.32l.51.24h0L14,8.9a.26.26,0,0,1-.07.5Z" transform="translate(-0.27 -0.27)"/><path class="cls-3" d="M10.42,7.42Zm2.43,1.25,0,0Zm.05.81h0Zm1.67.64-.26,0A.74.74,0,0,0,14,10h-.08l-.18-.09.05,0-.09-.06-.15-.06-.14-.1a2.54,2.54,0,0,0-.38-.16l-.11-.05.1,0-.15-.06h0l-.08-.06a1.08,1.08,0,0,0-.29-.13c-.13-.08-.27-.15-.41-.22l-.16-.13-.2-.1h0l-.11-.07a4.57,4.57,0,0,0-.44-.44A3,3,0,0,0,10.65,8h0l0,0h0l-.12,0h-.15a1,1,0,0,0-.28-.21.09.09,0,0,1,0,0,.26.26,0,0,1,.2-.24h.26a1.35,1.35,0,0,1,.63.26,4.25,4.25,0,0,1,.43.31.91.91,0,0,0,.22.11l.2.11c.29.15.58.32.88.46a3.15,3.15,0,0,0,.6.17h0l.58.07a2.7,2.7,0,0,1,.41.06,1.62,1.62,0,0,1,.42.15.6.6,0,0,1,.2.19.54.54,0,0,1-.47.81Z" transform="translate(-0.27 -0.27)"/><path class="cls-3" d="M14.74,9.62c-.27,0-.54-.07-.81-.11a11.33,11.33,0,0,1-1.52-.4l-.5-.19-.18-.1h0l-.12-.07-.2-.08-.16-.1,0,0,0,0h0l-.2-.14.18.13a3.64,3.64,0,0,0-.35-.24l-.14-.09a1.24,1.24,0,0,0-.18-.14L10.45,8l0,0A1.1,1.1,0,0,0,10,7.68h0a1.25,1.25,0,0,0-.28-.15.4.4,0,0,1,.12-.28l.09.06.16.07h0l0,0a.73.73,0,0,0,.36,0l.11,0h0c.2.11.42.21.62.3a11.47,11.47,0,0,0,1.41.43c.53.12,1.07.2,1.61.27h.07l.6.09a1,1,0,0,1,.38.14.55.55,0,0,1,.27.47.54.54,0,0,1-.4.52.8.8,0,0,1-.27,0Z" transform="translate(-0.27 -0.27)"/><path class="cls-3" d="M15.69,9.82c-.41,0-.81-.08-1.21-.14a5.32,5.32,0,0,1-1.13-.27A9.74,9.74,0,0,1,12.18,9c-.28-.13-.54-.27-.82-.39h0a.4.4,0,1,1,.3-.71,5.09,5.09,0,0,0,.56.14l.68.13c.48.06.95.09,1.42.11l.83.08c.25,0,.49.1.73.16a.67.67,0,0,1,.5.66.69.69,0,0,1-.64.69Z" transform="translate(-0.27 -0.27)"/><path class="cls-3" d="M21.69,7.68a0,0,0,0,0,0,0ZM18.21,8.84h0Zm-1,.78a.63.63,0,0,1,.43-.76,1.09,1.09,0,0,1,.36,0h.2a3.86,3.86,0,0,0,.48-.16l-.06,0q.4-.18.84-.33l.46-.15c.13-.05.26-.08.39-.12s.43-.17.65-.23l.46-.16.21-.1.14,0a.25.25,0,0,1,.45.21s0,0,0,.07a.48.48,0,0,1-.08.16,1.55,1.55,0,0,1-.39.33,1.54,1.54,0,0,1-.29.21L21,8.76c-.42.21-.84.41-1.27.59l-.6.23-.69.27-.22.1L18,10a1.05,1.05,0,0,1-.24,0h0A.61.61,0,0,1,17.18,9.62Z" transform="translate(-0.27 -0.27)"/><path class="cls-3" d="M15.29,9l-.15,0Zm0,1.26c-.33,0-.66-.1-1-.16A.83.83,0,0,0,14,10h-.08l-.18-.09.05,0-.09-.06-.15-.07-.14-.09a1.8,1.8,0,0,0-.38-.16l-.07,0,.06,0-.16-.07h0l-.05,0-.08-.06a1.08,1.08,0,0,0-.29-.13,3.23,3.23,0,0,0-.41-.22,1,1,0,0,0-.16-.12.93.93,0,0,0-.19-.11h0l-.12-.07-.2-.08a.81.81,0,0,1-.18-.12l0,0-.11-.07,0,0a.23.23,0,0,1,0-.11v0a.26.26,0,0,1,.13-.23.36.36,0,0,1,.29,0l.18.09.15.08a7.38,7.38,0,0,0,1.08.23c.31.05.61.14.92.2l.46.09c.32.06.65.15,1,.2a7.15,7.15,0,0,1,.93.1.6.6,0,0,1,.45.58.62.62,0,0,1-.18.43l-.12.1a.65.65,0,0,1-.31.08h-.23A5.27,5.27,0,0,1,15.28,10.25Z" transform="translate(-0.27 -0.27)"/><path class="cls-3" d="M11.8,8.75l-.06,0a.24.24,0,0,1-.17-.31.25.25,0,0,1,.3-.17h.06a.24.24,0,0,1,.17.31.21.21,0,0,1-.11.15l-.12,0Z" transform="translate(-0.27 -0.27)"/><path class="cls-3" d="M12,7.71h0Zm.81,1.69a1.08,1.08,0,0,0-.29-.13,3.23,3.23,0,0,0-.41-.22,1,1,0,0,0-.16-.12.93.93,0,0,0-.19-.11h0l-.12-.07-.2-.08a.81.81,0,0,1-.18-.12l0,0-.21-.15.17.14-.34-.25-.14-.08-.16-.13V7.93h0a.24.24,0,0,1,.06-.25.27.27,0,0,1,.26-.06H11l.18,0,.19,0a.85.85,0,0,1,.32,0,1.6,1.6,0,0,1,.31.1h0a5,5,0,0,1,.76.29.9.9,0,0,1,.49.77.76.76,0,0,1-.39.67Z" transform="translate(-0.27 -0.27)"/><path class="cls-3" d="M15.48,6.36Zm.23.09h0ZM13,6.63l-.08,0,.12,0Zm-.16.07.08,0Zm2.05,1.87c-.4,0-.8-.08-1.2-.1-.21,0-.41,0-.61,0l-.28,0a2.59,2.59,0,0,1-.56-.05c-.3,0-.6-.14-.89-.21a6.47,6.47,0,0,1-.77-.3,1.2,1.2,0,0,1-.45-.32.29.29,0,0,1-.1-.26h.09a.63.63,0,0,0,.36,0l.14,0a4.42,4.42,0,0,0,1-.29l.16,0L12.07,7l.08,0,.16,0h-.1a2.62,2.62,0,0,0,.38-.09A3.29,3.29,0,0,0,13,6.63l.1,0h0l0,0h0l.18-.07.05,0c.27-.1.56-.18.85-.28l.23-.07h0a5.43,5.43,0,0,1,.69.09,1.56,1.56,0,0,1,.5.17.82.82,0,0,1,.32.23,1.09,1.09,0,0,1,.28.49,1.08,1.08,0,0,1,0,.59,1.19,1.19,0,0,1-.3.52,1.41,1.41,0,0,1-.93.36Z" transform="translate(-0.27 -0.27)"/><path class="cls-3" d="M21.56,7.67h0Zm0,0,0,0Zm-9.73.16a.31.31,0,0,1-.26-.46.65.65,0,0,1,.17-.16l.18-.11a2.18,2.18,0,0,1,.37-.2l.53-.26.49-.2-.08,0,.29-.12.3-.13h0L14,6.14l.3-.14,0,0,.62-.28h0a.57.57,0,0,0,.15,0H15l.17,0h-.08l.13,0h.08a.75.75,0,0,0,.2,0,1,1,0,0,0,.25-.08l.07,0,.22-.1.1-.05.4,0c.25,0,.49.05.73.09a7.92,7.92,0,0,1,1.06.29l.87.27.81.26c.21.06.42.11.64.15l.46.11a2.45,2.45,0,0,1,.43.15.67.67,0,0,1,.32.38l.07,0a.26.26,0,0,1,0,.36.28.28,0,0,1-.29,0,.71.71,0,0,1-.25,0,1.55,1.55,0,0,1-.31-.07l-.54-.16c-.89-.26-1.77-.52-2.66-.76-.38-.1-.77-.17-1.16-.24a6,6,0,0,0-.61-.09,2.89,2.89,0,0,0-.83,0l-.3.07a3.39,3.39,0,0,0-.61.21h0l-.48.24-.63.31-.81.37a1.3,1.3,0,0,1-.59.23Z" transform="translate(-0.27 -0.27)"/><path class="cls-3" d="M21.79,7.6l-.31-.08-.22,0h-.05A.25.25,0,0,1,21,7.22.25.25,0,0,1,21.27,7h0l.23,0,.39.1a.25.25,0,0,1-.07.49Z" transform="translate(-0.27 -0.27)"/><path class="cls-3" d="M20.48,6.75Zm-.23.71Zm.06,0h0Zm2,.44.05,0Zm-1.92,1a.39.39,0,0,1-.25-.2.43.43,0,0,1,.15-.58,5.12,5.12,0,0,1,.52-.27l.18-.1a1.7,1.7,0,0,1-.31-.06,2.26,2.26,0,0,1-.37-.11,1.16,1.16,0,0,1-.38-.2.41.41,0,0,1-.06-.49.42.42,0,0,1,.37-.2l.19,0,.31,0h.13l.18,0,.27,0c.1,0,.2,0,.3.07s.3.07.44.12h.1a.5.5,0,0,1,.34.15.48.48,0,0,1,.14.34c0,.3-.27.5-.49.66l-.23.15a2.92,2.92,0,0,1-.37.24,3.42,3.42,0,0,1-.43.21,3.12,3.12,0,0,1-.5.14l-.12,0Z" transform="translate(-0.27 -0.27)"/><path class="cls-3" d="M15.21,5.8h-.13ZM8.9,7A.57.57,0,0,1,9,6.89H9L8.92,7h0S8.91,7,8.9,7Zm.75.72-.33-.07a.56.56,0,0,1-.43-.42.37.37,0,0,1,0-.29L9,6.88a2.65,2.65,0,0,0,.3-.11,1.48,1.48,0,0,0,.47-.12h0l.61-.15c.31-.07.62-.14.92-.24a11.22,11.22,0,0,1,1.17-.33l.07,0A4.34,4.34,0,0,1,13,5.75c.22-.06.43-.1.65-.14l.52-.11h0l.07,0,.11,0,.1,0-.05,0a.18.18,0,0,1,.07.05l.06,0h0l0,0,.14.06a.39.39,0,0,0,.15,0,.57.57,0,0,0,.15,0H15l.17,0h.13a.75.75,0,0,0,.2,0,1,1,0,0,0,.25-.08l.07,0,.23-.1h0a.83.83,0,0,1,.6.59.82.82,0,0,1-.09.65.89.89,0,0,1-.3.31,1.07,1.07,0,0,1-.52.14,5.58,5.58,0,0,1-1,0h-.39l-.72.15a5,5,0,0,1-1,.12H12a9.49,9.49,0,0,1-1.06.22,4.63,4.63,0,0,1-.74.07A2.31,2.31,0,0,1,9.65,7.74Z" transform="translate(-0.27 -0.27)"/><path class="cls-3" d="M9.8,7.81l0,0Zm4.82,1h0Zm.68,1.47H15a1.78,1.78,0,0,1-.45-.08c-.18,0-.36-.07-.53-.12a3.57,3.57,0,0,1-.67-.29c-.37-.19-.76-.36-1.13-.56s-.8-.39-1.19-.6a6.52,6.52,0,0,1-.82-.55l.07.05a3.92,3.92,0,0,1-.5-.39h0l-.16-.1-.05,0a.25.25,0,0,1-.2-.24.26.26,0,0,1,.32-.26.44.44,0,0,1,.15.08l.21.13.37.15c.16.06.33.1.49.15l.63.18.84.28.82.32.7.25c.21.06.41.12.62.16h.83a.85.85,0,0,1,.23,0,.81.81,0,0,1,.45.34,1,1,0,0,1,.1.37l0,.19a.74.74,0,0,1-.19.32.71.71,0,0,1-.55.23Z" transform="translate(-0.27 -0.27)"/><path class="cls-3" d="M9.42,7.09h0Zm-.06,0,.09,0h0Zm.13.42h0Zm-.05,0h0Zm2.41.13-.07,0Zm.09,0,0,0Zm-1.89.6-.05,0Zm4.52.19h0Zm.2,1.74h0Zm-.14,0a3.7,3.7,0,0,1-.58-.1,3.34,3.34,0,0,1-.5-.18c-.5-.19-1-.4-1.5-.61s-.78-.39-1.17-.59l-.49-.23-.22-.11a2.07,2.07,0,0,1-.25-.19l.06,0a2.24,2.24,0,0,1-.35-.34,1.52,1.52,0,0,1-.32-.45.24.24,0,0,1-.07-.17.26.26,0,0,1,.18-.25.14.14,0,0,1,.11,0,.55.55,0,0,1,.19,0,1.73,1.73,0,0,1,.32,0c.12,0,.24.07.36.1a9.54,9.54,0,0,1,1.47.53c.46.19.93.38,1.4.53a7.85,7.85,0,0,0,1.14.27l.65,0,.43.06a1.21,1.21,0,0,1,.35.12.85.85,0,0,1,.41.52.82.82,0,0,1-.08.65.84.84,0,0,1-.31.31,1,1,0,0,1-.55.14h0A3.62,3.62,0,0,1,14.63,10.23Z" transform="translate(-0.27 -0.27)"/><path class="cls-3" d="M11.06,7.21h0ZM10,7.33l0,0Zm.06.08h0Zm-.6.47h0Zm3.09,1.66-.06,0Zm1.68.46h-.12l-.42-.07c-.2,0-.4-.11-.6-.17s-.31-.12-.46-.18c-.34-.14-.67-.28-1-.44l-.81-.29a5.61,5.61,0,0,1-1-.49,5.11,5.11,0,0,1-.71-.51l-.24-.2s-.07-.08-.11-.11h0a.52.52,0,0,1-.1-.11.6.6,0,0,1,0-.47.45.45,0,0,0,.16,0,2.16,2.16,0,0,0,.49-.16l.3,0,.47.29a3.23,3.23,0,0,0,.49.25l.15,0a.78.78,0,0,1,.4,0l.12,0,.38.14,1,.4c.26.09.52.16.79.23s.42.12.63.16l.45.06a1.13,1.13,0,0,1,.7.5.82.82,0,0,1-.13.95,1.16,1.16,0,0,1-.81.31Z" transform="translate(-0.27 -0.27)"/><path d="M22,7.07Zm-2.31.59.08,0Zm-5.05.81a20.77,20.77,0,0,1-2.36-.26A21.12,21.12,0,0,1,10,7.69c-.35-.1-.69-.23-1-.35L7.81,6.93c-.35-.13-.71-.25-1-.4l-.51-.24A1,1,0,0,1,6,6.15.25.25,0,0,1,6,5.9a.26.26,0,0,1,.24-.18.38.38,0,0,1,.18,0,.24.24,0,0,1,.23.17l.48.21.66.26.66.2L9.82,7a23,23,0,0,0,2.95.59c.58.07,1.17.13,1.76.17s1.16.06,1.74.07,1.23,0,1.85,0,1.11-.09,1.67-.16c.4-.06.79-.14,1.18-.23a6.32,6.32,0,0,0,1-.34l0,0,.05,0,0,0,0,0a9.06,9.06,0,0,0,1.83-1,6.65,6.65,0,0,0,.65-.65l.27-.33a2.18,2.18,0,0,1,.35-.33.54.54,0,0,1,.27-.07.53.53,0,0,1,.38.16.51.51,0,0,1,.08.64,4.69,4.69,0,0,1-.9.88,9.72,9.72,0,0,1-1.16.77,10.68,10.68,0,0,1-1.29.59,8.77,8.77,0,0,1-1.41.42A19.63,19.63,0,0,1,18,8.51c-.38,0-.75,0-1.13,0Q15.74,8.53,14.66,8.47Z" transform="translate(-0.27 -0.27)"/><path d="M.74,3.76A.31.31,0,0,1,.53,3.6a.93.93,0,0,0-.05-.1.38.38,0,0,1-.11-.08.36.36,0,0,1-.09-.33.35.35,0,0,1,.58-.16A.41.41,0,0,0,1,3a1.92,1.92,0,0,1,.18.22.34.34,0,0,1,0,.28A.36.36,0,0,1,1,3.73a.37.37,0,0,1-.18,0Z" transform="translate(-0.27 -0.27)"/><path d="M31.07,1.19h0l.07-.05Zm-.1.1L31,1.23Zm-.66.58a.43.43,0,0,1-.3-.54,2.34,2.34,0,0,1,.31-.66,1.28,1.28,0,0,1,.26-.26A.7.7,0,0,1,30.79.3a.42.42,0,0,1,.36,0,.49.49,0,0,1,.22.29.48.48,0,0,1,0,.37.47.47,0,0,1-.29.21h0a1.38,1.38,0,0,0-.14.27s0-.07,0-.11a1.07,1.07,0,0,0-.07.19.49.49,0,0,1-.21.26.4.4,0,0,1-.22.06Z" transform="translate(-0.27 -0.27)"/></g></g></g></svg>