<svg xmlns="http://www.w3.org/2000/svg" xmlns:xlink="http://www.w3.org/1999/xlink" viewBox="0 0 6.5 13.93"><defs><style>.cls-1{fill:none;}.cls-2{opacity:0.45;}.cls-3{clip-path:url(#clip-path);}</style><clipPath id="clip-path" transform="translate(-0.25 -0.3)"><rect class="cls-1" width="7.03" height="14.47"/></clipPath></defs><g id="Layer_2" data-name="Layer 2"><g id="Pointy_Nose" data-name="Pointy Nose"><g class="cls-2"><g class="cls-3"><path d="M3.69.8h0Zm-.07,0h0Zm.07,8.45,0,0ZM5.9,9.9h0ZM4,14.16a.47.47,0,0,1-.17-.63,17.64,17.64,0,0,1,1-1.67l.54-.8a4.46,4.46,0,0,1-.51.07,3.2,3.2,0,0,1-.69,0A2.43,2.43,0,0,1,3,10.57a2.26,2.26,0,0,1-.56-.71,4.53,4.53,0,0,1-.23-.57,2.44,2.44,0,0,1-.09-.47c0-.15,0-.3,0-.45a19.29,19.29,0,0,1,.15-3c0-.53.13-1,.22-1.58s.17-1,.28-1.43.16-.66.25-1c0-.16.09-.31.14-.47A1.66,1.66,0,0,1,3.33.43.28.28,0,0,1,3.75.37a.28.28,0,0,1,0,.41l0,0a3.78,3.78,0,0,0-.13.67V1.41C3.5,2,3.45,2.6,3.41,3.2S3.32,4.32,3.3,4.89a25.27,25.27,0,0,0,.05,3.37,3.11,3.11,0,0,0,.16.67,3.18,3.18,0,0,0,.23.4L4,9.56a2.88,2.88,0,0,0,.38.22l.46.12a5.47,5.47,0,0,0,1.07,0l.34,0H6.3a.51.51,0,0,1,.33.13.43.43,0,0,1,.11.43,1.24,1.24,0,0,1-.15.33c-.11.21-.24.4-.36.6l-.8,1.3c-.26.45-.5.9-.77,1.34a.47.47,0,0,1-.4.22A.46.46,0,0,1,4,14.16Z" transform="translate(-0.25 -0.3)"/><path d="M1.34,13.7l-.26-.29c-.07-.08-.13-.17-.2-.26a4.5,4.5,0,0,1-.27-.43.32.32,0,0,1,.11-.41.31.31,0,0,1,.42.11c.05.1.1.2.16.3a2.92,2.92,0,0,0,.21.32l0-.06.26.33a.26.26,0,0,1,.08.19.27.27,0,0,1-.28.28A.27.27,0,0,1,1.34,13.7Z" transform="translate(-0.25 -0.3)"/><path d="M1.36,12.13Zm0,0h0ZM.72,13h0v0Zm.66,1a.93.93,0,0,1-.31-.19L1,13.7c-.1-.1-.2-.2-.3-.32a1.53,1.53,0,0,1-.38-.71l0-.18a1,1,0,0,1,0-.18.54.54,0,0,1,.08-.21.72.72,0,0,1,.38-.31.5.5,0,0,1,.4,0,.31.31,0,0,1,.11.08.43.43,0,0,1,.12.23l.15.34a1.68,1.68,0,0,1,.11.4l.23.21a.55.55,0,0,1,.19.42.52.52,0,0,1-.51.51A.45.45,0,0,1,1.38,14Z" transform="translate(-0.25 -0.3)"/><path d="M1.44,12.61h0Zm-.51.08h0Zm.25.36A.31.31,0,0,1,1,12.92a1.25,1.25,0,0,1-.1-.27.28.28,0,0,1,.18-.38.29.29,0,0,1,.36.23,1.19,1.19,0,0,0,.08.2A.29.29,0,0,1,1.4,13a.28.28,0,0,1-.15,0Z" transform="translate(-0.25 -0.3)"/></g></g></g></g></svg>