<svg xmlns="http://www.w3.org/2000/svg" xmlns:xlink="http://www.w3.org/1999/xlink" viewBox="0 0 6.02 14.52"><defs><style>.cls-1{fill:none;}.cls-2{opacity:0.45;}.cls-3{clip-path:url(#clip-path);}</style><clipPath id="clip-path" transform="translate(-0.3 -0.41)"><rect class="cls-1" width="6.58" height="15.18"/></clipPath></defs><g id="Layer_2" data-name="Layer 2"><g id="Round_Nose" data-name="Round Nose"><g class="cls-2"><g class="cls-3"><path d="M2.69,13.91a9,9,0,0,1,1-1.43,7.44,7.44,0,0,0,.75-1.24A9.07,9.07,0,0,0,4.78,10a8,8,0,0,0,0-1.09,9.28,9.28,0,0,0-.1-1.06l0,.19c-.2-1.25-.5-2.47-.81-3.69-.16-.6-.28-1.2-.4-1.8-.06-.28-.11-.55-.18-.82s-.08-.34-.11-.5A2.33,2.33,0,0,1,3.16.87.42.42,0,0,1,3.87.53.39.39,0,0,1,4,.77c.06.16.13.32.19.47s.18.52.26.78c.17.5.33,1,.5,1.5s.34,1,.5,1.48.28,1,.41,1.46.24,1,.33,1.52c.05.27.08.54.11.81a4.83,4.83,0,0,1,0,.76,6.11,6.11,0,0,1-.09.86A7.1,7.1,0,0,1,6,11.2a5.13,5.13,0,0,1-.83,1.5c-.14.18-.29.35-.45.52a4.09,4.09,0,0,0-.62.4,1.35,1.35,0,0,0-.46.21,3.58,3.58,0,0,0-.46.38l-.3.07-.21.07A.49.49,0,0,1,2.69,13.91Z" transform="translate(-0.3 -0.41)"/><path d="M3.16,14.21A.24.24,0,0,1,2.91,14,.26.26,0,0,1,3,13.78a.85.85,0,0,1,.25-.25.27.27,0,0,1,.31,0,.26.26,0,0,1,.07.22v.07a3.13,3.13,0,0,0-.44.36Z" transform="translate(-0.3 -0.41)"/><path d="M2.6,14.06l.24-.24.08-.06L3,13.67a.25.25,0,0,1,.19,0,.24.24,0,0,1,.15.11.28.28,0,0,1,0,.2.14.14,0,0,1,0,.06l-.12.11h0l-.1.08-.28.07-.3.11A.25.25,0,0,1,2.6,14.06Z" transform="translate(-0.3 -0.41)"/><path d="M1.76,14.71a1.08,1.08,0,0,1,.12-.24A2.75,2.75,0,0,1,2.32,14L3,13.49a.94.94,0,0,1,.29-.2h.12a.38.38,0,0,1,.36.47l0,0-.06.05a3.7,3.7,0,0,0-.47.38l-.29.07a2.68,2.68,0,0,0-1.13.65A.53.53,0,0,1,1.76,14.71Z" transform="translate(-0.3 -0.41)"/><path d="M1.09,13.8a.7.7,0,0,1-.32-.2,1.14,1.14,0,0,1-.18-.25c-.06-.07-.09-.16-.14-.23a1.55,1.55,0,0,1-.14-.29.34.34,0,0,1,.32-.43.43.43,0,0,1,.2.06.81.81,0,0,1,.14.12l.23.22a1.44,1.44,0,0,1,.35.39.42.42,0,0,1,0,.42.43.43,0,0,1-.35.21Z" transform="translate(-0.3 -0.41)"/></g></g></g></g></svg>