<svg xmlns="http://www.w3.org/2000/svg" xmlns:xlink="http://www.w3.org/1999/xlink" viewBox="0 0 118.28 84.71"><defs><style>.cls-1{fill:none;}.cls-2{clip-path:url(#clip-path);}</style><clipPath id="clip-path" transform="translate(-0.26 -0.25)"><rect class="cls-1" width="118.8" height="85.21"/></clipPath></defs><g id="Layer_2" data-name="Layer 2"><g id="Wavy_Bob" data-name="Wavy Bob"><g class="cls-2"><path d="M57.49,1.6c.37,0,.74,0,1.1,0a12.26,12.26,0,0,1,1.83.3c.67.16,1.12.28,1.54.42a16.55,16.55,0,0,1,1.76.7L63.55,3l-.48-.21-.22-.11-.68-.28-.84-.32L61.1,2a9.37,9.37,0,0,0-1.48-.41c-.29-.05-.58-.1-.87-.13l-.83-.08H57l-.27,0-.21,0-.32,0-.14,0h0a3,3,0,0,0-.4.09l-.18.05-.18,0a4.93,4.93,0,0,0-.64.24,4.63,4.63,0,0,1,.56-.11A14,14,0,0,1,57.49,1.6Zm12.1,6.08,0,0a6.21,6.21,0,0,0,.82.4,7.89,7.89,0,0,0,1.36.29c.31,0,.63.06.94.09l-1.06-.28-.37-.1-.65-.18-.37-.09-.19,0Zm8.94,2.93.44.33c1,.74,1.72,1.36,2.4,2a21.28,21.28,0,0,1,4,4.89,17.45,17.45,0,0,1,1.38,2.71c.41,1,.81,2,1.18,2.95l.17.46,0,.14c.15.4.3.8.47,1.2s.31.76.47,1.13l.11.27.17.42.27.65.19.46a5.41,5.41,0,0,1-.19-1c0-.32-.06-.64-.08-1v-.18a28.18,28.18,0,0,0-.59-4.28c-.19-.67-.36-1.21-.55-1.69a16.25,16.25,0,0,0-.76-1.64,15.27,15.27,0,0,0-.9-1.39,12.93,12.93,0,0,0-1-1.17,30.38,30.38,0,0,0-2.54-2.28,25.44,25.44,0,0,0-2.6-1.89C80,11.34,79.31,11,78.53,10.61Zm5.56,50.5,0,.09.13.63c.06.34.13.66.18,1,.08.57.15,1.13.21,1.7s.06.92.07,1.37v.22c0,.33,0,.66,0,1,.1-.56.18-1.12.24-1.7a8.64,8.64,0,0,0-.17-2.13c-.06-.3-.12-.58-.19-.85a9.21,9.21,0,0,0-.31-1Zm16.56,17.56-.05.07-.17.24-.07.11.19-.08.49-.17h0a.48.48,0,0,1-.26-.09ZM67.46,85a2.56,2.56,0,0,1-1.39-.38,5.06,5.06,0,0,1-1.3-1.25A3.34,3.34,0,0,1,64.15,82,7,7,0,0,1,64,80.54a9.16,9.16,0,0,1,.38-2.4c.09-.31.18-.61.3-.92a2.64,2.64,0,0,1,.4-.67,2.57,2.57,0,0,1,.6-.59l.14-.11a2.6,2.6,0,0,1,.55-.36l.26-.14.81-.43.39-.24c.47-.29,1-.57,1.43-.85s.67-.4,1-.62.34-.24.51-.36l.14-.1.5-.37.32-.21.09-.06.53-.38.21-.17.75-.57.52-.36.26-.18c.44-.3.88-.61,1.3-.94s.56-.53.82-.82.71-.73,1.08-1.1.79-.8,1.18-1.21l.26-.27.26-.27.09-.1.19-.19a1.11,1.11,0,0,1,.24-.2l.06-.1c.24-.36.47-.72.72-1.07l.07-.11c.26-.38.52-.75.79-1.11.11-.14.22-.27.34-.4l.16-.17.3-.63.29-.63.1-.22.43-.89c-.17-.44-.37-.88-.57-1.31s-.5-.89-.77-1.32l-.29-.46L81,56.75l-.41-.66-.11-.18a13.15,13.15,0,0,1-1.34-2.61,9.86,9.86,0,0,1-.37-1.57c-.08-.53-.14-1-.17-1.48a13.47,13.47,0,0,1,.15-3.2,10.64,10.64,0,0,1,.78-2.28l.34-.74.18-.36c.17-.37.35-.73.52-1.1l.33-.75.17-.38.07-.16c.13-.29.26-.58.4-.87l.09-.2c.3-.66.56-1.23.8-1.83.13-.4.25-.8.36-1.21A10.34,10.34,0,0,0,83,35.91a14.43,14.43,0,0,0,0-1.6,13.64,13.64,0,0,0-.18-1.51,8.59,8.59,0,0,0-.27-1.11c-.15-.43-.32-.83-.51-1.24s-.41-.82-.64-1.21a15.2,15.2,0,0,0-1-1.43,20,20,0,0,0-3-2.79,26.16,26.16,0,0,0-5.12-2.7c-.49-.17-1-.32-1.48-.47s-1-.25-1.5-.34c-.69-.14-1.41-.24-2.1-.33l-.14,0L66.13,21c-.92-.14-1.84-.32-2.73-.49l-.28-.05-.13,0c-1-.19-2-.4-3-.65a32,32,0,0,1-3.18-1,11.25,11.25,0,0,1-2.79-1.56,6.42,6.42,0,0,1-1.16-1.12l-.09-.11-.14-.18.19.75c.07.36.17.72.27,1.07l.06.24c.09.33.2.64.31,1l0,.12.08.22c.14.38.31.76.48,1.13s.45.84.69,1.21.58.88.89,1.3c.55.72,1.12,1.42,1.69,2.12l.32.38c.35.43.7.86,1,1.3a11.6,11.6,0,0,1,.87,1.21,7.76,7.76,0,0,1,.4.69c.11.2.2.4.29.6l.1.23a.77.77,0,0,1,.08.19l.06.15,0,.13a.87.87,0,0,1,.07.17l.07.24.07.23a2,2,0,0,1,.08.35,8.19,8.19,0,0,1,.21,1.3,9,9,0,0,1-.33,2.8,9.52,9.52,0,0,1-.9,2.21c-.19.35-.4.68-.61,1l-.21.3-.1.14c-.11.16-.23.32-.34.49-.25.38-.42.65-.58.94s-.18.35-.27.54-.14.32-.2.48l0,.1c-.07.25-.15.5-.21.76s-.11.63-.15,1a4,4,0,0,0,0,.77c0,.17.08.32.13.47a.37.37,0,0,1-.15.43.44.44,0,0,1-.21.07.34.34,0,0,1-.31-.18,2.53,2.53,0,0,1-.18-.37,2.11,2.11,0,0,1-.14-.49,3.48,3.48,0,0,1-.06-.92,8.15,8.15,0,0,1,.12-1.07l0-.15.08-.3c.05-.19.11-.39.18-.58a9,9,0,0,1,.46-1.06c.14-.28.31-.56.48-.83l.36-.57.24-.38a10.1,10.1,0,0,0,.51-.91l.11-.24.12-.24c.05-.11.1-.22.14-.33l.08-.19a9.24,9.24,0,0,0,.3-1l0-.16a3.12,3.12,0,0,0,.09-.44l0-.27,0-.12c0-.13,0-.25,0-.38,0-.32,0-.62,0-.92a7.34,7.34,0,0,0-.08-.82v-.13c0-.13-.08-.28-.12-.44l0-.1a4.38,4.38,0,0,0-.14-.43l-.06-.19c0-.12-.09-.23-.13-.34L59,29.87a2.09,2.09,0,0,0-.14-.3l-.08-.18c-.14-.26-.21-.39-.29-.51s-.33-.51-.5-.76-.58-.76-.88-1.14l-.68-.85-.24-.3c-.36-.44-.72-.88-1.07-1.33s-.68-.88-1-1.33-.56-.85-.86-1.38a14.62,14.62,0,0,1-.73-1.5c-.08-.21-.17-.43-.24-.64l-.09-.25c-.07-.23-.12-.37-.16-.5-.12-.42-.25-.83-.34-1.24l0-.16,0-.15c-.08-.39-.16-.77-.22-1.16-.14-.88-.26-1.79-.36-2.79q0-.35-.06-.69l0-.11a1.73,1.73,0,0,1-.16.37c-.1.22-.23.44-.35.65l-.59.91-.06.08-.18.28c-.27.41-.55.82-.85,1.23s-.65.81-1,1.25-.69.76-1,1.1c-.75.73-1.5,1.42-2.34,2.18l-1.79,1.57-.54.48c-.48.43-1,.85-1.47,1.26l-.9.77c-.78.66-1.54,1.35-2.29,2l-1.13,1-.6.54-.5.44a17.51,17.51,0,0,0-1.67,1.72A14,14,0,0,0,32,32.92a10.11,10.11,0,0,0-.39,1.22c-.1.46-.19.91-.26,1.38a9.65,9.65,0,0,0-.09,1.07c0,.37,0,.73,0,1.09,0,.77.08,1.53.12,2.29s.09,1.42.15,2.12.14,1.49.24,2.22v.14A8.79,8.79,0,0,1,32,46.23c0,.67-.25,1-.64,1a.91.91,0,0,1-.41-.14,5.12,5.12,0,0,0-.49-.19l-.3-.11a1,1,0,0,1-.24-.16l-.1,0a1.66,1.66,0,0,1-.4-.19.75.75,0,0,1-.27-.29,1.59,1.59,0,0,1-.17-.38c0-.12-.07-.25-.1-.38l0-.16c-.09-.34-.15-.69-.22-1l-.15-.94,0-.22c-.1-.61-.21-1.22-.34-1.82s-.2-.89-.31-1.34-.22-.9-.36-1.34l-.14-.42c-.16-.52-.33-1-.52-1.54l-.15-.34-.13-.06h0a.26.26,0,0,1-.26-.18l-.06-.16-.08-.1-.18-.15-.1-.07-.14-.05h-.26l-.26,0-.21.06a6,6,0,0,0-.77.45,10.8,10.8,0,0,0-1.05.75,6.3,6.3,0,0,0-.86.94,7.53,7.53,0,0,0-.79,1.62A11.93,11.93,0,0,0,21,40.83a12.61,12.61,0,0,0-.23,1.43c0,.51-.07,1-.1,1.39V44l0,.4,0,.4a.44.44,0,0,1,0,.13,6.17,6.17,0,0,0,.09.62,7.14,7.14,0,0,0,.55,1.77l.4.78.07.14c.23.44.46.87.72,1.29l.15.23c.21.33.42.66.62,1s.38.75.54,1.1l.14.33a8.74,8.74,0,0,0,.45.8c.18.29.38.56.58.83.37.51.75,1,1.16,1.49.26.3.49.57.74.83l.19.13.44.31.19.16a.38.38,0,0,1,.16.14.31.31,0,0,1,.18-.05.27.27,0,0,1,.25.17,1,1,0,0,0,.25.22,8.42,8.42,0,0,0,1,.58l.23.1.14.08L30,58l.16.05a1.63,1.63,0,0,1,.31.11.73.73,0,0,1,.34.42l.11.19L31,59c.05.08.09.17.14.26l.08.16h0a.23.23,0,0,1,.18.09.3.3,0,0,1,0,.26v.13h0c.1.2.21.4.32.59.38.69.74,1.36,1.09,2a15.92,15.92,0,0,0,1.15,2c.07.1.14.21.22.31.33.45.68.89,1,1.32l.17.2c.3.36.59.68.89,1l.44.45a13.52,13.52,0,0,0,1.57,1.28c.67.47,1.38.9,2.07,1.33l.1.06.35.22c.28.16.56.34.83.52l.38.27.22.16.44.32a4.56,4.56,0,0,0,.56.33l.17,0,.17.05.42.12A8.6,8.6,0,0,1,45.2,73a6,6,0,0,1,.68.43l1.1.77a14,14,0,0,1,1.27,1.16c.29.3.58.61.85.92l.37.42.33.38.09.11a3.27,3.27,0,0,1,.28.35,7,7,0,0,1,.48.9.83.83,0,0,1,.29.26,1.47,1.47,0,0,1,.21.38,1.09,1.09,0,0,1,.07.4,3.62,3.62,0,0,1,.13.35,1.79,1.79,0,0,1,.09.66.57.57,0,0,1,0,.22.62.62,0,0,1-.22.32A2.69,2.69,0,0,1,51,82a4.66,4.66,0,0,1-.39.72,4.87,4.87,0,0,1-.46.6,7.28,7.28,0,0,1-.63.61l-.26.22-.42.28a.63.63,0,0,1-.85-.19.58.58,0,0,1-.09-.48s0-.08.06-.14a.53.53,0,0,1,.21-.24l.4-.33a7.22,7.22,0,0,0,1-1.08l.12-.18c-.46.22-1,.42-1.46.61l-.2.08-.54.2-.84.33a8.45,8.45,0,0,1-1.64.44,11.36,11.36,0,0,1-1.5.15c-.5,0-1,0-1.5,0s-1.12,0-1.68,0a8.33,8.33,0,0,1-1.87-.24,3.32,3.32,0,0,1-.89-.39,3,3,0,0,1-.39-.29,2.73,2.73,0,0,1-.38-.38,4.18,4.18,0,0,1-.56-1.09l-.14-.34L36,80.6l-.15-.14a2.22,2.22,0,0,0-.38-.18,4.05,4.05,0,0,0-.75-.17,2.82,2.82,0,0,0-.41,0h-.15a5.32,5.32,0,0,0-.56.06,13.2,13.2,0,0,0-2.54.94c-.51.25-1,.51-1.5.77l-.16.08-.2.11-.8.41a12.77,12.77,0,0,1-3,1.18,11.37,11.37,0,0,1-2.63.34h-.43a6.8,6.8,0,0,1-1.45-.22l-.29-.08-.3-.08-.51-.09-.16,0a4.5,4.5,0,0,1-.6-.14c-.47-.14-.72-.37-.76-.7a.87.87,0,0,1,.11-.46,2.06,2.06,0,0,1,.23-.37,4.78,4.78,0,0,1,.66-.7l.18-.16a8.21,8.21,0,0,0,.89-1,2.06,2.06,0,0,0,.17-.33.74.74,0,0,0,0-.14c-.14.18-.3.35-.45.53s-.51.58-.78.86-.58.51-.83.71-.64.47-1,.69a18.5,18.5,0,0,1-2.14,1.16,8.85,8.85,0,0,1-1,.43c-.2.08-.41.14-.61.21l-.13,0-.25.07a.28.28,0,0,1-.18.06l-.56.16a2.47,2.47,0,0,1-.7.1h-.16c-.53,0-.84-.19-.93-.47a.53.53,0,0,1,0-.39.55.55,0,0,1,.34-.27.84.84,0,0,1,.31,0l.12,0h.1l.22,0a3.56,3.56,0,0,0,.53-.16,1.37,1.37,0,0,0,.2-.13,1,1,0,0,0,.21-.24,1.44,1.44,0,0,0,.08-.25,2.06,2.06,0,0,0,0-.35,2.17,2.17,0,0,0-.07-.24,2.29,2.29,0,0,0-.28-.41,3.47,3.47,0,0,0-.45-.41,5.39,5.39,0,0,0-.87-.47,1.26,1.26,0,0,1-.39.21,3.88,3.88,0,0,1-.48,0l-.36,0H9.92c-.44,0-.87-.06-1.32-.11A13.27,13.27,0,0,1,7,80.45,9,9,0,0,1,5.63,80a9,9,0,0,1-.83-.4,4.85,4.85,0,0,1-.75-.53,3.55,3.55,0,0,1-.83-1,4.38,4.38,0,0,1-.31-.7L2.79,77a4.7,4.7,0,0,1-.28-1,8.05,8.05,0,0,1-.09-1.62,5.18,5.18,0,0,1,.16-1A3.06,3.06,0,0,1,3,72.57,3.56,3.56,0,0,1,3.42,72a22.37,22.37,0,0,1,1.77-1.59,11,11,0,0,1,1.59-1.13c.35-.2.73-.37,1.1-.54l.31-.14,1.93-.92.32-.16,1.1-.59a7.51,7.51,0,0,0,.86-.58l.5-.41.11-.09.36-.27.37-.26a5.11,5.11,0,0,0,.52-.52,3.76,3.76,0,0,0,.36-.61,3.58,3.58,0,0,0,.18-.64,4,4,0,0,0,0-.77,3.51,3.51,0,0,0-.15-.53,7.28,7.28,0,0,0-.62-1,3.31,3.31,0,0,0-.53-.53l-.19-.16-.12-.1-.27-.22-.49-.42-.63-.53c-.4-.33-.79-.66-1.17-1L10.4,58c-.32-.3-.65-.59-1-.88a10,10,0,0,1-1.07-1c-.44-.51-.82-1-1.18-1.49s-.49-.73-.77-1.22-.53-1-.76-1.44A10,10,0,0,1,5,50.41c-.07-.28-.14-.55-.2-.83s-.09-.58-.12-.87l0-.14a7.8,7.8,0,0,1,0-1.47c0-.57.09-1.14.16-1.71a15.79,15.79,0,0,1,.75-3.16c.37-1,.84-2.06,1.32-3.09s.9-1.82,1.47-2.87a17.08,17.08,0,0,1,1.84-2.65c.36-.43.73-.86,1.12-1.27.16-.17.33-.34.51-.5s.39-.38.57-.59c.6-.63,1.41-1.46,2.28-2.22a13.62,13.62,0,0,1,2.44-1.69l1.11-.59.43-.23L19.75,26c.91-.5,1.86-.93,2.59-1.26.45-.21.9-.41,1.34-.64a10.59,10.59,0,0,0,1.18-.72,15.52,15.52,0,0,0,1.58-1.5l.33-.35.08-.09c.37-.4.75-.81,1.1-1.24a19.72,19.72,0,0,0,1.55-2.49c.3-.6.58-1.21.85-1.82l.15-.32c.11-.26.23-.52.35-.78.4-.83.88-1.81,1.43-2.75a11.71,11.71,0,0,1,1-1.47,11.21,11.21,0,0,1,1.06-1.19,18.27,18.27,0,0,1,2.63-2.14,8.72,8.72,0,0,1,1.3-.72l.12,0a10,10,0,0,1,1.5-.57c.26-.07.52-.14.78-.19a4.85,4.85,0,0,1,.55-.09l.21,0a11,11,0,0,1,1.51-.09h.26a27.43,27.43,0,0,1,3.06.24,5.39,5.39,0,0,1,2.89,1,4.86,4.86,0,0,1,.79.87,1.42,1.42,0,0,1-.12-.46,3.35,3.35,0,0,1,0-1.14,3.12,3.12,0,0,1,.44-1.09,6.19,6.19,0,0,1,.89-1.11c.12-.13.24-.23.35-.34l.11-.14.29-.4a2,2,0,0,1,.19-.22l.1-.13c.12-.14.25-.27.38-.4l.1-.11a6.78,6.78,0,0,1,.76-.66,4.58,4.58,0,0,1,1-.56A4.32,4.32,0,0,1,55,.59l.14,0,.24-.07.21,0,.21,0,.44-.06A6.67,6.67,0,0,1,57.2.25h.69c.24,0,.48,0,.72.07l.21,0c.21,0,.42,0,.63.09l.42.08.2,0c.43.11.69.19,1,.28l.23.08.44.17.85.35A15.3,15.3,0,0,1,64,2.13l.27.14.41.22.13.07c.19.1.39.21.59.3l.22.11a4.65,4.65,0,0,0,.5.25l.92.37a11.25,11.25,0,0,0,1.2.32,9.2,9.2,0,0,0,1.36.16c.21,0,.44,0,.67,0h.54c.23,0,.47,0,.7,0h.24a5.11,5.11,0,0,0,.55,0l.88-.12.61-.12.51-.13.16-.05A8.64,8.64,0,0,0,75.86,3h0c.17,0,.25,0,.29.12a.26.26,0,0,1,0,.23.23.23,0,0,1-.12.15l-.52.27a2,2,0,0,1-.3.15l-.23.1-.23.09a1.45,1.45,0,0,1-.29.11l-.46.15-.21,0-.14,0-.44.11-.2,0-.39.06-.5.07-.51,0h-.11l-.23,0-.46,0-.46,0H70c-.41,0-.86,0-1.47-.09a9.78,9.78,0,0,1-2.06-.47L66,4.14l-.12,0L65.66,4l-.22-.09-.26-.12L65,3.68l-.46-.23-.27-.13-.15-.07a8.73,8.73,0,0,1,1,.58,31.4,31.4,0,0,1,2.73,2.09l.55.48c.37.08.74.14,1.12.19l.57.07c.32,0,.64.07,1,.12a29.06,29.06,0,0,1,2.9.66l.72.19.7.19.14,0c.48.13.93.24,1.38.4a23.89,23.89,0,0,1,5.65,2.9c.82.58,1.64,1.24,2.45,1.94a21.42,21.42,0,0,1,2.34,2.32,15.39,15.39,0,0,1,1.8,2.78,15.83,15.83,0,0,1,1.55,5.25c.11.82.18,1.63.25,2.49V26c0,.45.08.9.13,1.35s.15.85.24,1.27.18.66.3,1,.29.67.45,1,.3.52.46.77a6.53,6.53,0,0,0,.6.72c.18.16.35.32.53.46s.41.3.62.44a5.18,5.18,0,0,1,1.09.55l.33.23,1.2.59,2.82,1.3a15.74,15.74,0,0,1,2.8,1.54,11.37,11.37,0,0,1,2.33,2.22,14.56,14.56,0,0,1,.89,1.27c.3.49.59,1,.89,1.62a11.72,11.72,0,0,1,1.07,3.07,6.89,6.89,0,0,1,.19,1.53v.21a6.47,6.47,0,0,1,0,.76,5.53,5.53,0,0,1-.16.79,16.61,16.61,0,0,1-.86,2.33l-.3.69c-.16.38-.3.77-.43,1.17l-.06.15a11.4,11.4,0,0,0-.31,1.84c0,.17,0,.33,0,.49a1.66,1.66,0,0,0,.12.31l.25.33a4.49,4.49,0,0,0,.65.5,16,16,0,0,0,1.91.89,1,1,0,0,1,.36.26,2.55,2.55,0,0,1,.66.12,3.38,3.38,0,0,1,1.23.61,2.81,2.81,0,0,1,.35.34,7,7,0,0,1,.75.5c.3.23.59.48.87.74a9.48,9.48,0,0,1,1.52,1.77l.06.1.16.19.16.19a5.69,5.69,0,0,1,.46.74,6.6,6.6,0,0,1,.63,1.41,4.13,4.13,0,0,1,.18.89,7.69,7.69,0,0,1,0,1,10.86,10.86,0,0,1-.14,1.35A4.87,4.87,0,0,1,114.6,70a8.08,8.08,0,0,1-1.24,1,8.77,8.77,0,0,1-1.38.82,6.28,6.28,0,0,1-1.12.36l-.19,0-.7.2-.78.21-1.55.41c-.66.19-1.54.44-2.42.75a15.54,15.54,0,0,0-2,.9,7.51,7.51,0,0,0-1.08.72,5.2,5.2,0,0,0-.57.71,2.58,2.58,0,0,0-.19.37,3.94,3.94,0,0,0-.09.7.92.92,0,0,0,0,.16,1,1,0,0,1,0,.1l.06.11a.79.79,0,0,1,0,.82h.2l.26,0a.64.64,0,0,1,.14-.15l.11-.09a.51.51,0,0,1,.26-.09h0a.62.62,0,0,1,.38.13.5.5,0,0,1,.17.37.46.46,0,0,1,0,.23l-.07.12a.61.61,0,0,1-.12.21,1.61,1.61,0,0,1-.24.26,2.22,2.22,0,0,1-.51.35,6.88,6.88,0,0,1-.74.32c-.24.08-.47.14-.71.2s-.78.2-1.17.28l-.21,0c-.48.11-1,.2-1.45.27q-.36,0-.72.06h-.17a6.85,6.85,0,0,1-1.13-.13,6.06,6.06,0,0,1-.61-.16c-.3-.09-.52-.18-.73-.26-.54-.22-.94-.42-1.33-.62l-.19-.09-.39-.2c-.21-.1-.43-.19-.66-.28L91,79a5.49,5.49,0,0,0-.7-.17l-.13,0a12.67,12.67,0,0,0-1.49-.21l-.5,0h-.15a5,5,0,0,0-.67,0l-.15,0-.15,0a2.84,2.84,0,0,0-.44.15,3,3,0,0,0-.35.23,4.45,4.45,0,0,0-.54.61l-.16.24a5.51,5.51,0,0,1-.65.89,4.8,4.8,0,0,1-.53.47,3.06,3.06,0,0,1-.63.37,4.16,4.16,0,0,1-.69.26,6.55,6.55,0,0,1-1,.23,5.51,5.51,0,0,1-.71.08h-.21l-.6,0a11,11,0,0,1-1.54-.23c-.3-.06-.58-.14-.87-.21l-.16,0-.38-.11-.53-.13c-.31-.07-.61-.15-.92-.24-.5-.14-1-.27-1.52-.38a16.61,16.61,0,0,0-2.25-.34h-.18l-.69,0a6.1,6.1,0,0,0-1.72.26A7.13,7.13,0,0,0,69,81a6.51,6.51,0,0,0-1.15.73l-.08.08,0,.11c0,.15-.08.3-.11.45l0,.15-.09.41.09.06a4.88,4.88,0,0,0,.58.34.84.84,0,0,1,.43.93.87.87,0,0,1-.78.66Z" transform="translate(-0.26 -0.25)"/><path d="M82.48,60.93c0-.07,0-.13.07-.19S82.51,60.86,82.48,60.93ZM77.76,71a1.87,1.87,0,0,1-.12-2.61c.43-.49.91-.94,1.37-1.41a12.47,12.47,0,0,0,1-1.18,25.41,25.41,0,0,0,2.4-4.63,13.85,13.85,0,0,0,.71-3,1.65,1.65,0,0,1,.39-.74,1.63,1.63,0,0,1,1.13-.53,1.44,1.44,0,0,1,.55.07,1.43,1.43,0,0,1,1.48,1,4.52,4.52,0,0,1,.12.62c0,.16,0,.32,0,.48a.57.57,0,0,1,0,.13,16.76,16.76,0,0,1,.28,2,19,19,0,0,1-.32,4.12c-.1.62-.24,1.24-.38,1.85a13.91,13.91,0,0,1-.68,2.45A2,2,0,0,1,84,70.61a2,2,0,0,1-1-.23,2,2,0,0,1-.76-.69,1.31,1.31,0,0,1-.24-.43l-.37.37c-.41.41-.84.81-1.27,1.2a2,2,0,0,1-1.28.61H79A1.83,1.83,0,0,1,77.76,71Z" transform="translate(-0.26 -0.25)"/><path d="M32.2,66a2.47,2.47,0,0,1-.81-.51,3,3,0,0,1-.43-.57c-.15-.22-.28-.46-.42-.7-.32-.56-.6-1.14-.87-1.73-.16-.35-.32-.71-.46-1.06a1.6,1.6,0,0,1-.42.07,1.69,1.69,0,0,1-.93-.23,2.84,2.84,0,0,1-.54-.39c-.2-.18-.4-.36-.59-.55a12.89,12.89,0,0,1-1.28-1.57c-.69-1-1.36-2-2-3.08a18.85,18.85,0,0,1-1.63-3.57c-.22-.62-.42-1.24-.61-1.86s-.29-1.17-.41-1.76c-.18-.89-.28-1.8-.39-2.7-.08-.7-.16-1.4-.22-2.1s-.1-1.61-.13-2.42c0-.34,0-.68,0-1s0-.62.08-.93.21-.84.64-.94a.69.69,0,0,1,.88.61l0,.24a10,10,0,0,0,.45,1.26.49.49,0,0,1-.27.6c0,.25.08.5.13.75.34,1.65.75,3.27,1.22,4.89a23.79,23.79,0,0,0,1.21,3.17l.72.93.19.24.09-.13a1.09,1.09,0,0,1,1.71.14c.08.14.15.28.22.42.26.53.55,1,.84,1.56.42.79.88,1.58,1.34,2.35s1,1.65,1.54,2.47c0,.14.08.28.13.42a11.68,11.68,0,0,0,.9,2.63c.15.32.31.64.48.94v0a1.61,1.61,0,0,1-.82.75c.1.25.2.49.31.74a7.64,7.64,0,0,0,.56,1l.19.16.08,0a.81.81,0,0,1,.33,1.06.77.77,0,0,1-.69.4A.83.83,0,0,1,32.2,66Z" transform="translate(-0.26 -0.25)"/><path d="M16.22,30ZM9.06,36.47l.06-.08ZM5,48.72a.77.77,0,0,0,0-.15A.77.77,0,0,1,5,48.72Zm2.79,4.1-.1-.07Zm.81,2A11.77,11.77,0,0,1,7,54a7.41,7.41,0,0,1-1.49-1.31,8.42,8.42,0,0,1-1.24-1.94,7.36,7.36,0,0,1-.64-2.14,10,10,0,0,1,0-2.5,10.93,10.93,0,0,1,.3-1.71l.27-1c0-.21.13-.4.19-.6s.19-.58.31-.86c.2-.48.39-1,.62-1.44.14-.3.29-.6.44-.9s.22-.4.33-.6l.39-.69c.14-.26.32-.5.48-.75s.21-.34.32-.51.26-.36.38-.54.34-.46.52-.7a11.28,11.28,0,0,1,.83-1,11,11,0,0,1,1-1l.69-.59c.37-.31.75-.59,1.13-.88.68-.53,1.41-1,2.12-1.51L15.06,30l.5-.33c.15-.1.3-.17.45-.27h0a.36.36,0,0,1,.5.08.36.36,0,0,1,0,.35.31.31,0,0,1-.22.17h0a3.21,3.21,0,0,0-.48.34c-.19.14-.38.28-.56.43l-1.24,1-1.3,1c-.36.29-.71.59-1.07.9l-.85.79c-.26.24-.51.52-.76.79s-.6.73-.89,1.11l-.48.71c-.14.2-.28.39-.41.6-.3.51-.62,1-.9,1.54-.15.29-.3.58-.46.86s-.26.56-.39.83c-.23.5-.43,1-.63,1.53l-.24.71c-.06.19-.12.37-.17.57s-.16.64-.25,1a11.07,11.07,0,0,0-.26,1.63A9.34,9.34,0,0,0,5,48.56c.05.24.1.47.17.7a6.26,6.26,0,0,0,.31.82,8.37,8.37,0,0,0,1,1.59,8.05,8.05,0,0,0,1.19,1.07c.49.35,1,.66,1.53,1a.68.68,0,0,1,.27.89.64.64,0,0,1-.58.35A.7.7,0,0,1,8.64,54.87Z" transform="translate(-0.26 -0.25)"/><path d="M6.83,54.9h0ZM6,53.5l0,0ZM7.8,55.8l0,0ZM8.88,57l-.5-.24-.32-.17a6.67,6.67,0,0,1-1.27-1,6.83,6.83,0,0,1-1.12-1.54c-.15-.28-.28-.57-.41-.86s-.23-.61-.33-.93-.17-.65-.25-1-.09-.47-.13-.71l0-.28c0-.12,0-.25,0-.37,0-.31,0-.63,0-.95a.25.25,0,0,1,.24-.26.25.25,0,0,1,.26.24c0,.35,0,.7,0,1.05,0,.16,0,.32,0,.48s.07.37.09.56.12.5.18.75.16.53.25.79.23.59.36.88h0c.13.27.28.53.43.79a8,8,0,0,0,.48.66l0,0,0,0h0c.13.15.26.29.4.43a4.18,4.18,0,0,0,.57.47,4,4,0,0,0,.43.28l.27.16a4.11,4.11,0,0,0,.6.28.25.25,0,0,1,.11.34A.24.24,0,0,1,9,57Z" transform="translate(-0.26 -0.25)"/><path d="M29.77,31.78a1.5,1.5,0,0,1-.63-2c.26-.41.53-.8.82-1.19a6.15,6.15,0,0,1,.68-.76,22.25,22.25,0,0,1,1.75-1.61c1-.86,2.21-1.62,3.33-2.39.54-.38,1.09-.74,1.63-1.13s1.13-.81,1.7-1.21c1.13-.79,2.3-1.53,3.48-2.26.79-.49,1.59-.95,2.37-1.44a20.06,20.06,0,0,0,2-1.46c.29-.26.58-.52.86-.81a6.69,6.69,0,0,0,.63-.76,10.4,10.4,0,0,0,1-1.94,4.87,4.87,0,0,0,.12-.52,1.38,1.38,0,0,0,0-.29,1.28,1.28,0,0,1-.11-.2.64.64,0,0,1,.26-.73.65.65,0,0,1,1,.4c.09.13.21.26.3.4a3.65,3.65,0,0,1,.5,2,7.15,7.15,0,0,1-.55,2.45,11.2,11.2,0,0,1-2.59,3.56,19.94,19.94,0,0,1-1.86,1.56c-.54.42-1.09.82-1.65,1.22-1.11.8-2.27,1.52-3.43,2.24-1.4.86-2.85,1.62-4.28,2.42a26.38,26.38,0,0,0-3.89,2.56,17.48,17.48,0,0,0-1.62,1.6,1.5,1.5,0,0,1-1.8.32Z" transform="translate(-0.26 -0.25)"/><path d="M47.56,19.68l0-.05ZM35.23,32.53v0ZM33.49,35a.27.27,0,0,1-.11-.36c.22-.44.45-.88.68-1.32l.27-.5a7,7,0,0,1,.45-.74,6.84,6.84,0,0,1,1-1.23c.48-.48,1-.91,1.52-1.35.31-.27.63-.53.95-.79.62-.5,1.25-1,1.88-1.47.35-.28.71-.55,1.06-.84l1.08-.91-.09.07.82-.75.59-.56.64-.64c.28-.31.57-.62.86-.92s.4-.46.6-.69.4-.46.59-.7.41-.5.61-.76l.66-.91.55-.82.14-.25c.12-.2.24-.4.35-.6s.3-.59.44-.88.25-.57.37-.85.15-.43.22-.64a8.68,8.68,0,0,0,.45-1.94c0-.23,0-.46,0-.7v-.25a1.92,1.92,0,0,0,0-.24.45.45,0,0,1,.1-.29.42.42,0,0,1,.28-.12.4.4,0,0,1,.42.44c0,.2,0,.4,0,.61a7.5,7.5,0,0,1-.08,1.25,8.16,8.16,0,0,1-.4,1.62q-.14.42-.3.84c-.1.23-.19.47-.31.7l-.24.48a3.18,3.18,0,0,1-.16.32L49,19.1c-.14.23-.29.44-.44.67s-.25.37-.39.55l-.61.83-.48.6c-.15.17-.29.35-.44.53-.37.42-.73.84-1.12,1.25l-.65.69-.55.54-.45.44-.34.3c-.29.26-.58.53-.88.78l-1,.83-.4.31-.64.49c-1.24,1-2.51,1.88-3.71,2.89l.07-.06c-.3.26-.59.53-.88.8a5.32,5.32,0,0,0-.47.48,5.52,5.52,0,0,0-.43.53c-.09.13-.18.26-.26.4s-.22.37-.33.56-.17.3-.26.44l-.52.92a.29.29,0,0,1-.24.14A.2.2,0,0,1,33.49,35Z" transform="translate(-0.26 -0.25)"/><path d="M2.88,72.94l0,0,0,0ZM5.25,70.4h0Zm10.16-5.7h0Zm-5.9,3,.08,0Zm-6,12.93a5.4,5.4,0,0,1-.9-.23A3,3,0,0,1,1.75,80a2.86,2.86,0,0,1-.67-.63,4.13,4.13,0,0,1-.51-.95,4.88,4.88,0,0,1-.25-1,4.07,4.07,0,0,1,0-1.05,7.26,7.26,0,0,1,.46-2.2,10.66,10.66,0,0,1,2.43-3.72,16.82,16.82,0,0,1,1.53-1.39l.82-.64c.31-.21.62-.44,1-.62.48-.27,1-.57,1.44-.8l.94-.44a5.93,5.93,0,0,1,.63-.26c.24-.09.49-.2.73-.28l1-.29c.36-.11.72-.19,1.08-.27s.67-.15,1-.22a12.13,12.13,0,0,0,2.15-.56l.09,0a.47.47,0,0,1,.71.09.48.48,0,0,1-.25.7l-.06,0c-.22.11-.44.22-.66.31l-.88.31c-.54.18-1.1.33-1.64.49s-1.11.34-1.65.53l-.66.25-.93.39-.8.4-.61.34L7.2,69a12.9,12.9,0,0,0-1.08.74c-.3.22-.58.45-.86.68l.06,0-.07.06-.07.06.07-.06A15.51,15.51,0,0,0,2.9,72.91l0,0-.05.07,0,.07,0-.06a9.9,9.9,0,0,0-1,1.82,7.21,7.21,0,0,0-.39,1.65,5.22,5.22,0,0,0,.05,1.25,4.17,4.17,0,0,0,.25.78,3.26,3.26,0,0,0,.24.4,3.15,3.15,0,0,0,.38.35,2.81,2.81,0,0,0,.52.26,6.45,6.45,0,0,0,1.46.33h1l.72,0a.4.4,0,0,1,.42.38.41.41,0,0,1-.38.42l-.9.08-.72.06H4.34A6.4,6.4,0,0,1,3.47,80.63Z" transform="translate(-0.26 -0.25)"/><path d="M34,79.55Zm.06,0h0Zm-.47.18h0Zm-3.34,2.51a.4.4,0,0,1,0-.56c.25-.29.5-.58.78-.85s.53-.5.81-.74.29-.25.44-.37a3.55,3.55,0,0,1,.77-.51l.18-.08a1.6,1.6,0,0,1,.42-.1.59.59,0,0,1,.47.07L34,79l-.07,0a.28.28,0,0,1,.22.27.27.27,0,0,1-.17.27h0a.93.93,0,0,0-.33.12,5.66,5.66,0,0,0-.82.56c-.31.27-.61.55-.9.83l-1.12,1.11a.39.39,0,0,1-.3.13A.39.39,0,0,1,30.21,82.21Z" transform="translate(-0.26 -0.25)"/><path d="M78.93,54.43h0v0Zm4.84-16.28,0,0Zm-.54,23.56c-.26-.11-.53-.23-.79-.36a6.12,6.12,0,0,1-1.47-1,8.55,8.55,0,0,1-.65-.7,7.27,7.27,0,0,1-.59-.86,13.67,13.67,0,0,1-1-1.95,10.47,10.47,0,0,1-.63-2A9.6,9.6,0,0,1,78,52.48a14.22,14.22,0,0,1,.28-2.15c.07-.36.16-.71.25-1.07s.1-.43.16-.63l.3-1c.14-.49.31-1,.46-1.45.08-.26.18-.52.27-.78s.15-.45.24-.68c.2-.51.39-1,.61-1.54l.39-.89c.1-.24.22-.47.33-.7s.17-.39.27-.58l.49-.92c.11-.22.25-.43.38-.65s.28-.46.42-.69l.43-.65.25-.38a1.81,1.81,0,0,1,.37-.41.25.25,0,0,1,.27.43h0a3.32,3.32,0,0,0-.37.47h0c-.1.17-.22.33-.31.51l-.4.71-.42.84c-.12.23-.22.47-.33.7-.23.5-.44,1-.66,1.51s-.36.9-.54,1.36-.4,1.1-.58,1.66-.42,1.29-.61,1.93c-.08.24-.15.49-.21.73s-.16.53-.22.8L79.2,50a14.45,14.45,0,0,0-.36,2.17c0,.33,0,.67,0,1a8.52,8.52,0,0,0,.11,1.23v0a12.35,12.35,0,0,0,.34,1.33,12.52,12.52,0,0,0,.57,1.43c.15.34.32.67.5,1a7.77,7.77,0,0,0,.77,1.13c.17.19.34.37.53.55a6,6,0,0,0,.64.49l-.08,0c.43.28.89.53,1.35.78a.36.36,0,0,1,.15.46.35.35,0,0,1-.31.19A.47.47,0,0,1,83.23,61.71Z" transform="translate(-0.26 -0.25)"/><path d="M96.82,34.16h0l.1,0Zm-2.15-.77h0l.06,0Zm7.32,4.7-.07,0Zm3.86,4.48,0-.06ZM105.7,55a.44.44,0,0,1-.19-.6,13.3,13.3,0,0,0,.7-1.22,10.57,10.57,0,0,0,.57-1.34c.06-.2.12-.4.19-.6a8.68,8.68,0,0,0,.34-1.67,11.38,11.38,0,0,0-.13-2.61c-.12-.67-.3-1.32-.48-2a16.26,16.26,0,0,0-.8-2.25,11.21,11.21,0,0,0-1.59-2.49,13.28,13.28,0,0,0-2.4-2.15c-.73-.49-1.5-.91-2.26-1.35-.58-.33-1.16-.65-1.76-.93L96,34.84l-.89-.45-.47-.26a3.45,3.45,0,0,1-.41-.25.72.72,0,0,1-.24-.25.29.29,0,0,1,0-.34.35.35,0,0,1,.24-.1h.07a.33.33,0,0,1,.27.16l.11,0h0l.06,0h0l1.4.5h0l.73.26h0l.11,0h0l1.5.53c.2.08.41.15.61.24l.79.34,1.52.75c.38.18.76.38,1.12.59A12,12,0,0,1,107,41.36a15.52,15.52,0,0,1,1.2,3.3c.07.31.16.61.22.92a13.8,13.8,0,0,1,.29,2.4,10.22,10.22,0,0,1-.21,2.21,13.65,13.65,0,0,1-1.3,3.26,9.7,9.7,0,0,1-1,1.4.45.45,0,0,1-.33.14A.45.45,0,0,1,105.7,55Z" transform="translate(-0.26 -0.25)"/><path d="M111.06,58.64l0,0Zm.08,0,0,0Zm4.08,10.38a.36.36,0,0,1,.11-.49,7.6,7.6,0,0,0,1.11-.73,3.21,3.21,0,0,0,1-1.42,5.09,5.09,0,0,0,.18-.93,5.64,5.64,0,0,0-.06-1.16,5.39,5.39,0,0,0-.37-1.18,7.43,7.43,0,0,0-.94-1.46,7.32,7.32,0,0,0-1.32-1.16l0,0a12.37,12.37,0,0,0-1.35-.81c-.27-.13-.52-.27-.79-.39s-.54-.25-.82-.35l-.88-.34-.77-.26-.71-.2a13.73,13.73,0,0,0-2.12-.43h.11a3.66,3.66,0,0,0-.74,0l0,0a.37.37,0,0,1-.39,0,.4.4,0,0,1,0-.68A1.69,1.69,0,0,1,107,57a5.47,5.47,0,0,1,1.07,0c.34,0,.68.09,1,.14s.45.09.67.13l.65.16.9.26c.26.08.5.18.75.27s.44.15.65.24l.51.22.26.11.84.42c.28.15.56.33.83.5s.59.41.87.64a7.17,7.17,0,0,1,1.28,1.36,6.87,6.87,0,0,1,.94,1.85,5.44,5.44,0,0,1,.21,1,5.25,5.25,0,0,1,0,1,4.51,4.51,0,0,1-.53,1.89,4.23,4.23,0,0,1-1.2,1.36,6.6,6.6,0,0,1-1.17.63.2.2,0,0,1-.1,0A.38.38,0,0,1,115.22,69.05Z" transform="translate(-0.26 -0.25)"/></g></g></g></svg>